<svg xmlns="http://www.w3.org/2000/svg" id="Layer_1" version="1.1" viewBox="0 0 299.17 100.99">

    <path fill="#ffffff"
        d="M202.35 26.86c-1.52-1.46-3.79-2.27-5.77-2.27-4.86 0-7.81 3.69-7.81 8.36 0 3.73 2.17 7.58 7.81 7.58 1.78 0 3.34-.39 5.12-1.81V34.7h-5.8v-3.82h9.72v9.56c-2.24 2.56-5.05 4.08-9.04 4.08-8.52 0-11.99-5.6-11.99-11.56 0-6.38 3.98-12.28 11.99-12.28 3.05 0 6.09 1.17 8.42 3.47l-2.66 2.72ZM228.92 43.99h-5.09l-6.61-7.58h-4.11v7.58h-4.28V21.28c3.6 0 7.19.03 10.79.03 5.35.03 8.16 3.6 8.16 7.52 0 3.11-1.43 6.25-5.73 7.13l6.87 7.74v.29ZM213.11 25.3v7.26h6.51c2.72 0 3.89-1.81 3.89-3.63s-1.2-3.63-3.89-3.63h-6.51ZM252.95 32.79c-.07 5.86-3.66 11.73-11.63 11.73s-11.66-5.73-11.66-11.69 3.82-11.95 11.66-11.95 11.69 5.99 11.63 11.92Zm-19.08.09c.1 3.73 2.11 7.71 7.45 7.71s7.35-4.02 7.42-7.74c.07-3.82-2.07-8.1-7.42-8.1s-7.55 4.31-7.45 8.13ZM275.98 21.35v12.99c0 6.71-4.11 10.14-9.82 10.14s-10.07-3.3-10.07-10.14V21.35h4.24v12.99c0 4.08 2.33 6.25 5.86 6.25s5.54-2.37 5.54-6.25V21.35h4.24ZM290.85 37.32h-6.41v6.67h-4.28V21.31c3.56 0 7.13-.03 10.69-.03 11.08 0 11.11 16.04 0 16.04Zm-6.42-3.92h6.41c5.47 0 5.44-8.03 0-8.03h-6.41v8.03Z">
    </path>
    <path fill="#ffef53" d="m176.75 63.22-52.85 22.3v15.47l52.85-22.63V63.22z"></path>
    <path fill="#ffffff"
        d="M37.77 38.3H25.95l8.11-18.59 18.69 42.7h15.36L41 1.96H27.11L0 62.41h15.27l4.9-10.78h23.44L37.77 38.3zM135.98 33.39l20.27-8.62c-1.34-.23-2.7-.42-4.08-.59-8.13-.97-11.29-2.52-11.29-5.56 0-3.73 3.81-5.95 10.2-5.95 5.72 0 10.53 2.87 12.15 5.57l.33.55 10.94-4.62.9-.46-.71-1.45C170.75 4.23 162.48-.01 150.75-.01c-11.83.09-23.76 5.78-23.76 18.3 0 7.84 3.7 12.37 9 15.09ZM164.74 26.95l-21.18 9.07c2.39.55 4.87.93 7.35 1.22 11.76 1.26 11.76 5.42 11.76 6.78 0 6.43-8.81 6.93-11.51 6.93-7.09 0-12.54-3-14.57-8.04l-.34-.85-12.24 5.37.55 1.36c4.12 10.14 12.76 15.07 26.43 15.07 15.82 0 25.65-7.61 25.65-19.85 0-9.6-4.96-14.43-11.91-17.07ZM69.13 51.74v10.62h14.06V45.75l-14.06 5.99zM121.98 23.46V1.96H108v12.83L83.19 25.26V1.96H69.13v43.88l52.85-22.38zM108 35.17v27.19h13.98V29.21L108 35.17z">
    </path>
</svg>