<svg xmlns="http://www.w3.org/2000/svg" viewBox="0 0 552.1 173">
    <radialGradient id="greatplains_a" cx="275.0094" cy="17.76" r="168.9014"
        gradientTransform="translate(.2559 15.9797) scale(1.0006)" gradientUnits="userSpaceOnUse">
        <stop offset="0" stop-color="#fff"></stop>
        <stop offset=".03588724" stop-color="#fbf2e1"></stop>
        <stop offset=".0986904" stop-color="#f4deb2"></stop>
        <stop offset=".1672" stop-color="#efcb88"></stop>
        <stop offset=".2398" stop-color="#eabc63"></stop>
        <stop offset=".3176" stop-color="#e5ae44"></stop>
        <stop offset=".4023" stop-color="#e2a42b"></stop>
        <stop offset=".4966" stop-color="#df9b18"></stop>
        <stop offset=".6057" stop-color="#dd950a"></stop>
        <stop offset=".7431" stop-color="#dc9202"></stop>
        <stop offset="1" stop-color="#dc9100"></stop>
    </radialGradient>
    <path fill="url(#greatplains_a)" stroke="#492700" stroke-width="3" stroke-miterlimit="10"
        d="M169.1 67.3c-5.4 11.2-9 23.3-10.4 36.1l46.2-36.1h-35.8z"></path>
    <radialGradient id="greatplains_b" cx="275.0057" cy="17.7602" r="168.8978"
        gradientTransform="translate(.2559 15.9797) scale(1.0006)" gradientUnits="userSpaceOnUse">
        <stop offset="0" stop-color="#fff"></stop>
        <stop offset=".03588724" stop-color="#fbf2e1"></stop>
        <stop offset=".0986904" stop-color="#f4deb2"></stop>
        <stop offset=".1672" stop-color="#efcb88"></stop>
        <stop offset=".2398" stop-color="#eabc63"></stop>
        <stop offset=".3176" stop-color="#e5ae44"></stop>
        <stop offset=".4023" stop-color="#e2a42b"></stop>
        <stop offset=".4966" stop-color="#df9b18"></stop>
        <stop offset=".6057" stop-color="#dd950a"></stop>
        <stop offset=".7431" stop-color="#dc9202"></stop>
        <stop offset="1" stop-color="#dc9100"></stop>
    </radialGradient>
    <path fill="url(#greatplains_b)" stroke="#492700" stroke-width="3" stroke-miterlimit="10"
        d="M249.3 67.3h-20.7l-70.5 55.4c.6 12.1 3.1 23.7 7.2 34.6l84-90z"></path>
    <radialGradient id="greatplains_c" cx="275.0078" cy="17.7601" r="168.9035"
        gradientTransform="translate(.2559 15.9797) scale(1.0006)" gradientUnits="userSpaceOnUse">
        <stop offset="0" stop-color="#fff"></stop>
        <stop offset=".03588724" stop-color="#fbf2e1"></stop>
        <stop offset=".0986904" stop-color="#f4deb2"></stop>
        <stop offset=".1672" stop-color="#efcb88"></stop>
        <stop offset=".2398" stop-color="#eabc63"></stop>
        <stop offset=".3176" stop-color="#e5ae44"></stop>
        <stop offset=".4023" stop-color="#e2a42b"></stop>
        <stop offset=".4966" stop-color="#df9b18"></stop>
        <stop offset=".6057" stop-color="#dd950a"></stop>
        <stop offset=".7431" stop-color="#dc9202"></stop>
        <stop offset="1" stop-color="#dc9100"></stop>
    </radialGradient>
    <path fill="url(#greatplains_c)" stroke="#492700" stroke-width="3" stroke-miterlimit="10"
        d="M291.5 67.3h-22.7l-91.1 99.1h53z"></path>
    <radialGradient id="greatplains_d" cx="275.0079" cy="17.7601" r="168.9021"
        gradientTransform="translate(.2559 15.9797) scale(1.0006)" gradientUnits="userSpaceOnUse">
        <stop offset="0" stop-color="#fff"></stop>
        <stop offset=".03588724" stop-color="#fbf2e1"></stop>
        <stop offset=".0986904" stop-color="#f4deb2"></stop>
        <stop offset=".1672" stop-color="#efcb88"></stop>
        <stop offset=".2398" stop-color="#eabc63"></stop>
        <stop offset=".3176" stop-color="#e5ae44"></stop>
        <stop offset=".4023" stop-color="#e2a42b"></stop>
        <stop offset=".4966" stop-color="#df9b18"></stop>
        <stop offset=".6057" stop-color="#dd950a"></stop>
        <stop offset=".7431" stop-color="#dc9202"></stop>
        <stop offset="1" stop-color="#dc9100"></stop>
    </radialGradient>
    <path fill="url(#greatplains_d)" stroke="#492700" stroke-width="3" stroke-miterlimit="10"
        d="M323.3 67.3h-14.8l-60.6 99.1h39.4z"></path>
    <radialGradient id="greatplains_e" cx="275.005" cy="17.7601" r="168.9022"
        gradientTransform="translate(.2559 15.9797) scale(1.0006)" gradientUnits="userSpaceOnUse">
        <stop offset="0" stop-color="#fff"></stop>
        <stop offset=".03588724" stop-color="#fbf2e1"></stop>
        <stop offset=".0986904" stop-color="#f4deb2"></stop>
        <stop offset=".1672" stop-color="#efcb88"></stop>
        <stop offset=".2398" stop-color="#eabc63"></stop>
        <stop offset=".3176" stop-color="#e5ae44"></stop>
        <stop offset=".4023" stop-color="#e2a42b"></stop>
        <stop offset=".4966" stop-color="#df9b18"></stop>
        <stop offset=".6057" stop-color="#dd950a"></stop>
        <stop offset=".7431" stop-color="#dc9202"></stop>
        <stop offset="1" stop-color="#dc9100"></stop>
    </radialGradient>
    <path fill="url(#greatplains_e)" stroke="#492700" stroke-width="3" stroke-miterlimit="10"
        d="M356.5 67.3h-16.9l-35.8 99.1H346z"></path>
    <radialGradient id="greatplains_f" cx="275.0017" cy="17.7601" r="168.9017"
        gradientTransform="translate(.2559 15.9797) scale(1.0006)" gradientUnits="userSpaceOnUse">
        <stop offset="0" stop-color="#fff"></stop>
        <stop offset=".03588724" stop-color="#fbf2e1"></stop>
        <stop offset=".0986904" stop-color="#f4deb2"></stop>
        <stop offset=".1672" stop-color="#efcb88"></stop>
        <stop offset=".2398" stop-color="#eabc63"></stop>
        <stop offset=".3176" stop-color="#e5ae44"></stop>
        <stop offset=".4023" stop-color="#e2a42b"></stop>
        <stop offset=".4966" stop-color="#df9b18"></stop>
        <stop offset=".6057" stop-color="#dd950a"></stop>
        <stop offset=".7431" stop-color="#dc9202"></stop>
        <stop offset="1" stop-color="#dc9100"></stop>
    </radialGradient>
    <path fill="url(#greatplains_f)" stroke="#492700" stroke-width="3" stroke-miterlimit="10"
        d="M386.6 116.7c0-17.7-4-34.5-11.2-49.4h-3.9L361 166.4h14.2c7.3-15 11.4-31.9 11.4-49.7z"></path>
    <radialGradient id="greatplains_g" cx="272.277" cy="12.0778" r="69.8879" gradientTransform="translate(0 16)"
        gradientUnits="userSpaceOnUse">
        <stop offset="0" stop-color="#fff"></stop>
        <stop offset=".03588724" stop-color="#fbf2e1"></stop>
        <stop offset=".0986904" stop-color="#f4deb2"></stop>
        <stop offset=".1672" stop-color="#efcb88"></stop>
        <stop offset=".2398" stop-color="#eabc63"></stop>
        <stop offset=".3176" stop-color="#e5ae44"></stop>
        <stop offset=".4023" stop-color="#e2a42b"></stop>
        <stop offset=".4966" stop-color="#df9b18"></stop>
        <stop offset=".6057" stop-color="#dd950a"></stop>
        <stop offset=".7431" stop-color="#dc9202"></stop>
        <stop offset="1" stop-color="#dc9100"></stop>
    </radialGradient>
    <path fill="url(#greatplains_g)" stroke="#492700" stroke-width="3" stroke-miterlimit="10"
        d="M272.2 2.4c-39.9 0-75 20.4-95.4 51.3h190.9c-20.5-30.9-55.6-51.3-95.5-51.3z"></path>
    <g fill="#492700">
        <path
            d="M534.2 165.2c.1-.1.2-.1.3-.2 1-.7 1.8-1.5 2.5-2.3s1.3-1.7 1.8-2.6.8-1.9 1.1-2.9c.2-1 .4-2.1.4-3.2 0-.9-.1-1.7-.2-2.5-.2-.8-.4-1.6-.7-2.3-.3-.7-.7-1.4-1.1-2.1-.5-.7-1-1.3-1.6-1.9-.7-.7-1.5-1.4-2.3-2-.8-.7-1.8-1.3-2.8-2-1-.6-2.1-1.3-3.2-1.9-.7-.4-1.4-.7-2.2-1.1 2.9.1 5.7.2 8.6.2h-.4.6c.4 0 .7 0 1-.1s.6-.1.9-.3c.3-.1.6-.3.9-.4.3-.2.5-.4.8-.6.2-.2.5-.5.6-.7.2-.3.3-.5.5-.8l.3-.9c.1-.3.1-.7.1-1s0-.7-.1-1c0-.4-.1-.7-.2-1.1-.1-.4-.2-.8-.4-1.2-.1-.4-.3-.8-.5-1.3-.2-.4-.4-.9-.6-1.3-.2-.4-.4-.8-.7-1.2-.2-.4-.5-.8-.8-1.2-.3-.4-.5-.8-.8-1.1-.4-.5-.8-.9-1.2-1.3s-.8-.7-1.2-.9c-.4-.2-.8-.4-1.2-.5s-.8-.2-1.2-.2h-.3.2l-10 .4c-.2 0-.5-.1-.7-.1-.6-.1-1.2-.1-1.7-.2-.5 0-1-.1-1.3-.1h-1c-4.3.2-8.5.4-12.8.5h-.4c-.3 0-.6 0-.8.1-.2 0-.3 0-.5.1h-.4c-.3 0-.5.1-.8.1-.2 0-.4.1-.6.1h-.1-.1c-.1 0-.3.1-.4.1-.1 0-.3.1-.4.1-.1 0-.3.1-.4.1-.1 0-.1 0-.2.1h-.2c-.1 0-.2.1-.3.1s-.2.1-.3.1-.2.1-.3.1-.2.1-.3.1h-.1c-.1 0-.1.1-.2.1s-.2.1-.3.1-.2.1-.3.1-.2.1-.3.1-.2.1-.2.1c-.1 0-.1.1-.2.1s-.2.1-.2.1c-.1 0-.2.1-.2.1-.1 0-.1.1-.2.1s-.1.1-.2.2l-.2.2-.2.2-.2.2-.2.2-.2.2-.2.2-.2.2-.2.2-.2.2-.2.2-.2.2c-.3-.3-.5-.6-.8-.9-.4-.4-.9-.8-1.4-1.2-.7-.5-1.4-1-2.2-1.4s-1.6-.7-2.4-1c-.8-.3-1.7-.5-2.7-.6-.9-.1-1.9-.2-2.8-.2h-.9c-3.6.2-7.1.3-10.7.5-.2 0-.5 0-.7.1-.2 0-.4.1-.7.1h-.1-.1c-.2 0-.4.1-.5.1-.2 0-.4.1-.6.1-.1 0-.2.1-.3.1-.1 0-.2.1-.4.1-.1 0-.2.1-.3.1s-.1 0-.2.1c-.2-.2-.4-.4-.6-.5-.2-.1-.4-.3-.7-.4-.2-.1-.5-.2-.7-.2-.3 0-.5-.1-.8-.1h-.4.1l-9.9.5H450.8c-.2 0-.4.1-.5.1-.2 0-.4.1-.6.1h-.4c-.2.1-.5.1-.8.2h-.1-.1-.1c-.1 0-.2 0-.3.1-.1 0-.3.1-.4.1-.1 0-.2.1-.4.1-.1 0-.3.1-.5.1-.6.2-1.3.3-1.9.5-.7.2-1.3.4-2 .6s-1.3.4-2 .6-1.4.5-2 .7c-.1.1-.3.1-.4.1-.3.1-.5.2-.8.3h-.1c-.1 0-.2.1-.3.1s-.3.1-.4.2v-1.3c0-.6-.1-1.1-.2-1.5-.1-.4-.3-.8-.6-1.1-.3-.3-.6-.5-1-.7-.4-.1-.8-.2-1.3-.2s-1 0-1.6.1h.5l-8.3.5c-.5 0-1 .1-1.6.1l-1.8.3c-.6.1-1.3.2-2 .4-.7.1-1.4.3-2.2.5-.7.2-1.5.4-2.2.6h-.4c-.2 0-.4.1-.5.2-.4.1-.9.2-1.3.4-.2 0-.3.1-.5.1-.1 0-.2.1-.3.1-.2 0-.3.1-.5.2-.3.1-.5.2-.8.2-.3.1-.5.2-.8.3-.2.1-.3.1-.5.2-.1 0-.2.1-.3.1-.2.1-.3.1-.5.2-.1 0-.3.1-.4.2-.1.1-.3.1-.4.2-.1.1-.3.1-.4.2-.1.1-.3.1-.4.2-.1 0-.1 0-.2.1-.1 0-.1 0-.2.1-.1 0-.1 0-.2.1-.1 0-.1 0-.2.1-.1 0-.1 0-.2.1 0 0-.1 0-.1.1-.1 0-.1.1-.2.1s-.1.1-.1.1-.1 0-.1.1c0 0-.1 0-.1.1 0 0-.1 0-.1.1h-.1s-.1 0-.1.1c0 0-.1 0-.1.1 0 0-.1 0-.1.1 0 0-.1 0-.1.1 0 0-.1 0-.1.1 0 0-.1 0-.1.1 0 0-.1 0-.1.1 0-.1-.1-.1-.1-.2l-1.2-1.2c-.4-.4-.9-.8-1.4-1.2-.9-.7-1.9-1.3-3-1.8-1-.5-2.1-.9-3.3-1.3-1.1-.3-2.3-.6-3.6-.8-1.2-.2-2.5-.3-3.9-.3s-2.7.1-4 .2c.2 0 .5-.1.7-.1-1.9.2-3.8.4-5.7.5-.4 0-.8.1-1.2.1-.1 0-.2 0-.3.1-.1 0-.3 0-.4.1-.2 0-.3 0-.5.1-.3.1-.6.1-.9.2h-.2l-1.2.3c-.1 0-.2 0-.3.1-.1 0-.2 0-.3.1-.1 0-.3.1-.4.1l-.9.3c-.1 0-.1 0-.2.1h-.2c-.2.1-.4.1-.6.2l-.9.3h-.1-.1c-.2.1-.4.2-.7.2-.3.1-.5.2-.8.3 0 0-.1 0-.1.1h-.2c-.2.1-.3.1-.5.2-.3.1-.5.2-.8.3-.1 0-.2.1-.3.1h-.1s-.1 0-.1.1c-.2.1-.3.2-.5.2-.2.1-.3.2-.5.2-.2.1-.3.2-.5.2h-.1-.1-.1-.1c-.1.1-.2.1-.3.2-.1.1-.2.1-.3.2-.1.1-.2.1-.3.2-.1.1-.2.1-.2.2-.1.1-.2.1-.3.2-.1.1-.2.1-.2.2-.1.1-.2.1-.2.2-.1.1-.2.1-.2.2l-.2.2c-.1 0-.1.1-.2.1l-.2.2-.2.2-.2.2-.2.2-.2.2-.2.2-.2.2-.2.2c-.1.1-.1.1-.1.2s-.1.1-.1.2v.2l-.1.1-.1.1-.1.1-.1.1s0 .1-.1.1c0 .1-.1.1-.1.2s-.1.1-.1.2-.1.1-.1.2l-.1.1c0 .1-.1.1-.1.2s-.1.1-.1.2v.2c0 .1-.1.1-.1.2s-.1.1-.1.2v.2c0 .1 0 .1-.1.2v.2c0 .1 0 .1-.1.2V134.3c0 .4 0 .7.1 1.1.1.3.2.7.3 1 .1.3.3.6.5.9s.4.5.7.8c.2.2.4.4.7.5.2.2.5.3.8.4s.5.2.8.3c.3.1.6.1.9.2 1.6.2 3.3.3 4.9.4h-.1.8c.8 0 1.6-.1 2.3-.4.8-.3 1.5-.6 2.3-1.1.7-.5 1.5-1.1 2.2-1.9s1.4-1.6 2.1-2.6c.3-.3.5-.7.7-1s.5-.6.7-.8c.1.3.3.7.4 1.1s.2.9.3 1.4.1 1.1.2 1.7c0 .6.1 1.3.1 2v1.5c0 .1 0 .1-.1.2 0 0 0 .1-.1.1 0 0 0 .1-.1.1h-.2s-.1 0-.2.1h-.2-.1c-.1 0-.2 0-.3.1h-1H374.5c-.3 0-.6 0-.9.1h-.5c-.4 0-.7.1-1.1.1h-.3c-.4.1-.9.1-1.3.2-.1 0-.2 0-.3.1-.3.1-.6.1-.9.2h-.1c-.2.1-.5.1-.7.2h-.2c-.1 0-.1 0-.2.1-.1 0-.2.1-.3.1-.2.1-.4.1-.6.2h-.1c-.2.1-.3.1-.5.2s-.3.1-.5.2c-.1.1-.3.1-.4.2s-.3.1-.4.2c0 0-.1 0-.1.1h-.1c-.1 0-.2.1-.2.1-.1.1-.2.1-.4.2-.1.1-.2.1-.3.2-.1.1-.2.1-.3.2-.1.1-.2.1-.3.2-.1 0-.1.1-.2.1h-.1c-.1.1-.2.1-.3.2-.1.1-.2.1-.3.2-.1 0-.2.1-.2.1-.1.1-.2.1-.3.2-.1.1-.2.1-.3.2-.1.1-.2.1-.2.2-.1 0-.1.1-.2.1-.1.1-.2.1-.2.2-.1.1-.2.1-.2.2l-.1.1s-.1 0-.1.1l-.2.2-.1.1-.1.1-.1.1-.1.1-.1.1-.1.1-.1.1-.1.1-.2.2-.2.2-.1.1-.2.2-.2.2-.2.2c-.1.1-.1.1-.1.2l-.1.1v.1c0 .1-.1.1-.1.2s-.1.1-.1.2-.1.1-.1.2-.1.1-.1.2V131c0-1.1 0-2.3.1-3.4 0-1.2.1-2.4.1-3.6.1-1.2.1-2.5.2-3.8l.3-3.9c.1-.9.1-1.7.2-2.4s.1-1.3.1-1.9.1-1 .1-1.4v-1c0-1-.1-1.9-.4-2.6-.2-.7-.6-1.2-1-1.5-.4-.4-.9-.6-1.4-.8-.5-.1-1-.2-1.5-.2-.4 0-.8 0-1.3.1-.5 0-1 .1-1.7.2-.6.1-1.3.2-2 .3-.7.1-1.5.2-2.4.4-.8.1-1.6.3-2.4.4s-1.5.3-2.2.5-1.3.3-1.9.5-1.2.3-1.7.5c-.8.2-1.5.5-2.2.7-.3.1-.5.2-.7.3 0 0 .1 0 .1-.1l-3.2 1.2c-.1 0-.2.1-.4.1-.1 0-.2.1-.3.1-.1 0-.2.1-.3.1 0 0-.1 0-.1.1 0 0-.1 0-.1.1-.1 0-.2.1-.3.2-.1 0-.2.1-.3.2-.1 0-.2.1-.2.1-.1.1-.2.1-.3.2-.1 0-.1.1-.2.1s-.1.1-.2.1-.1.1-.2.1-.1.1-.2.1l-.1.1-.1.1-.1.1-.1.1-.1.1-.1.1-.1.1-.1.1-.1.1-.1.1-.1.1-.1.1-.1.1s0 .1-.1.1c-.5-.7-1.2-1.3-1.8-1.9-.7-.6-1.4-1.2-2.2-1.7-.8-.5-1.6-1.1-2.5-1.5-1-.5-2-1-3.1-1.4s-2.2-.7-3.3-1c-1.1-.3-2.3-.5-3.5-.6s-2.4-.2-3.7-.2h-1.1c-.4 0-.8 0-1.2.1-.4 0-.8.1-1.2.1-.4 0-.9.1-1.3.1-1.3.1-2.5.2-3.5.3-1 .1-1.9.2-2.7.2-.8.1-1.4.1-1.9.2-.5 0-.8.1-1.1.1H283.3c-.7 0-1.4 0-1.9-.1h-3.5c-.6 0-1.1 0-1.6.1-.5 0-1 .1-1.4.2s-.9.2-1.2.4c-.4.1-.7.3-1 .5s-.6.4-.9.7c-.3.3-.5.5-.6.8-.2.3-.3.6-.4 1s-.1.7-.1 1.1c0 .5.1 1 .3 1.5 0 0 0-.1-.1-.1.1.4.2.7.3 1.1.1.4.3.7.5 1s.5.6.9.9c.3.3.7.5 1.2.7l1.5.6c.5.1.9.3 1.3.4.3.1.6.3.8.4.2.1.4.3.5.4s.2.2.3.4c.1.1.1.3.2.5s.1.6.2 1c0 .4.1.9.1 1.5V145c0 1.3 0 2.5-.1 3.5 0 1 0 2-.1 2.7 0 .8-.1 1.4-.1 1.9s-.1.9-.1 1.1-.1.4-.2.5c-.1.2-.2.3-.3.5-.1.2-.3.3-.4.4-.2.1-.4.2-.6.4-.1.1-.3.1-.4.2-.1 0-.1.1-.2.1l-.1.1h-.1c-.1.1-.2.1-.3.2h-.2s-.1 0-.1.1c-.1.1-.2.1-.3.2-.1.1-.2.1-.3.2 0 0-.1 0-.1.1h-.1-.1c-.1.1-.2.1-.2.2 0 0-.1 0-.1.1l-.1.1-.1.1s-.1 0-.1.1l-.1.1-.1.1-.1.1v1.2c-.1.5-.2 1.1-.3 1.6 0-.2.1-.3.1-.5v-.1c-.1.2-.1.4-.2.6 0 .2-.1.5-.1.8 0 1.1.4 2 1.1 2.8.1.1.2.1.2.2h-26.2c.9-.6 1.8-1.2 2.6-1.9.5-.5 1-.9 1.4-1.4.2-.2.4-.5.5-.7-.1.2-.3.4-.5.6.5-.5.9-1.1 1.4-1.6.3-.3.5-.7.7-1s.4-.7.5-1 .2-.7.3-1c.1-.4.1-.7.1-1.1v-.3-.3-.3-.2-.2V154v-.1V153.1s0-.1-.1-.1c0 0 0-.1-.1-.1 0 0 0-.1-.1-.1 0 0 0-.1-.1-.1 0 0 0-.1-.1-.1l-.1-.1-.1-.1-.1-.1-.1-.1c-.1-.1 0 0 0-.1l-.1-.1h-.1-.1-.1-.1-.1H252.3 252h-.1-.1-.1-.1-.1-.1-.1l-.6.3h-.1c-.2.1-.4.2-.5.3h-.1c-.2.1-.4.2-.5.2-.2.1-.3.1-.5.2s-.3.1-.5.2c-.1 0-.3.1-.4.1-.1 0-.3 0-.4.1h-.8c-.1 0-.2 0-.4-.1-.1 0-.2-.1-.4-.1-.1 0-.2-.1-.3-.1-.1-.1-.2-.1-.3-.2-.1-.1-.2-.1-.3-.2l-.3-.3-.3-.3c-.2-.2-.4-.5-.5-.8-.1-.3-.3-.6-.4-.9s-.2-.6-.2-1v-.1c0-.3-.1-.7-.1-1.1v-14.5-.6c0-.1 0-.3.1-.4 0-.1.1-.2.1-.2s0-.1.1-.1l.1-.1s.1-.1.2-.1.2 0 .3-.1h7.5-.4c.5 0 1 0 1.5-.1.3 0 .5 0 .8-.1.2 0 .5-.1.7-.2l.6-.3c.2-.1.3-.3.4-.4.1-.2.2-.3.3-.6.1-.2.2-.5.2-.7.1-.3.1-.6.1-.9v-3.6-.6-.5-.2-.2-.2V123.2v-.1-.1-.1-.1h-.1-.1-.1-.1c-.5-.2-.9-.3-1.4-.5h.1c-.1 0-.2-.1-.3-.1-.2-.1-.5-.1-.7-.2-.3 0-.6-.1-.9-.1h-7.9v-.2-.1V121.3v-6.1-.4-.4-.3-.3-.4-.1-.1c-.7-.4-1.4-.7-2.1-1.1.1 0 .1.1.2.1-.1-.1-.3-.2-.4-.2-.2-.1-.4-.1-.6-.1h-5c-.2 0-.4.1-.6.1s-.4.1-.5.2c-.2.1-.3.1-.5.2l-20.7 13c-.2.1-.4.3-.6.5s-.3.4-.4.6-.2.4-.3.7c-.1.2-.1.5-.1.8v1.9s0-.1-.1-.1c0-.1-.1-.1-.1-.2l-.1-.1c0-.1-.1-.1-.1-.2s-.1-.1-.1-.2-.1-.1-.1-.2l-.1-.1-.1-.1-.2-.2-.2-.2-.2-.2-.2-.2-.2-.2-.2-.2-.1-.1-.1-.1-.2-.2c-.1-.1-.2-.1-.2-.2-.1-.1-.2-.1-.3-.2-.1-.1-.2-.1-.3-.2-.1-.1-.2-.1-.3-.2-.1-.1-.2-.1-.3-.2-.1-.1-.2-.2-.4-.2-.1-.1-.2-.1-.4-.2-.1-.1-.2-.1-.4-.2-.1-.1-.2-.1-.4-.2s-.3-.2-.5-.2c-.1 0-.2-.1-.2-.1h-.1s-.1 0-.1-.1c-.2-.1-.3-.1-.5-.2s-.3-.1-.5-.2h-.1c-.3-.1-.5-.2-.8-.3-.1 0-.2-.1-.3-.1-.1 0-.2-.1-.3-.1-.1 0-.2-.1-.3-.1-.2-.1-.5-.1-.7-.2h-.1c-.3-.1-.6-.1-.9-.2-.1 0-.2 0-.3-.1h-.1c-.1 0-.3 0-.4-.1-.1 0-.3 0-.4-.1-.1 0-.3 0-.4-.1-1.5-.2-3-.3-4.5-.5h.3c-1.2-.2-2.4-.2-3.6-.2-1.5 0-3 .1-4.5.3-1.5.2-2.9.5-4.4.8-1.5.4-2.9.8-4.3 1.4s-2.8 1.2-4.2 1.9l-1.5.9c-.5.3-.9.6-1.3 1-.4.3-.8.7-1.2 1-.4.4-.7.7-1 1.1-.1.1-.1.2-.2.2v-.1c-.1-.1-.1-.2-.2-.3-.1-.1-.1-.2-.2-.3l-.1-.1c0-.1-.1-.1-.1-.2-.1-.1-.2-.2-.2-.3-.1-.1-.2-.2-.2-.3l-.2-.2-.2-.2-.2-.2-.1-.1c-.1-.1-.2-.2-.3-.2-.1-.1-.2-.2-.3-.2-.1-.1-.2-.2-.3-.2l-.1-.1-.1-.1-.1-.1-.1-.1c-.1 0-.1-.1-.2-.1s-.1-.1-.2-.1-.1-.1-.2-.1-.1-.1-.2-.1c-.1-.1-.2-.2-.3-.2-.1-.1-.2-.1-.3-.2-.1-.1-.2-.2-.3-.2-.1-.1-.2-.1-.3-.2-.1-.1-.3-.2-.4-.2s-.1-.1-.2-.1l-.1-.1c-.1-.1-.3-.2-.4-.2-.1-.1-.3-.1-.4-.2s-.3-.1-.4-.2c-.2-.1-.3-.2-.5-.2-.2-.1-.3-.1-.5-.2-.1-.1-.3-.1-.4-.1h-.1l-.9-.3c-.1 0-.3-.1-.4-.1s-.2-.1-.3-.1c-.1 0-.2 0-.2-.1-.3-.1-.6-.2-.9-.2-.1 0-.2 0-.2-.1H158.5c-.1 0-.3-.1-.4-.1-.2 0-.5-.1-.7-.1H156.8c-.2 0-.5-.1-.7-.1s-.5 0-.7-.1l-7.1-.5c-.7-.1-1.4-.1-2.1-.1-.9 0-1.8 0-2.7.1-.9.1-1.8.2-2.6.4-.9.2-1.7.4-2.5.6s-1.6.5-2.4.9c-1 .4-2 .9-3 1.5-.8.4-1.5.9-2.2 1.5l-.1-.1-.1-.1-.1-.1-.1-.1-.1-.1-.1-.1-.1-.1-.1-.1s0-.1-.1-.1c0 0 0-.1-.1-.1l-.1-.1-.1-.1-.1-.1-.1-.1-.1-.1-.1-.1-.1-.1-.1-.1-.1-.1-.1-.1-.1-.1s-.1 0-.1-.1l-.1-.1-.1-.1c-.1 0-.1-.1-.2-.1s-.1-.1-.2-.1c0 0-.1 0-.1-.1-.1 0-.1-.1-.2-.1s-.1-.1-.2-.1-.1-.1-.2-.1-.1-.1-.2-.1-.1-.1-.2-.1-.2-.1-.3-.1c-.1 0-.3-.1-.4-.1s-.3-.1-.4-.1c-.1 0-.2-.1-.4-.1-.1 0-.2 0-.3-.1h-.1-1c-3-.2-5.9-.3-8.9-.5h.2-.9c-1 0-2 .1-2.9.4-.4.1-.8.3-1.2.4h-.1-.1-.6H108.6l-9.8-.5h.3H98c-.8 0-1.7.1-2.6.2-.9.1-1.9.2-2.9.4s-2 .4-3.1.7c-1.1.3-2.2.6-3.4.9-.9.3-1.7.5-2.5.8s-1.5.5-2.1.8-1.2.5-1.7.8c-.2.1-.3.2-.4.2.3-.2.5-.5.7-.8.3-.4.6-.8.9-1.3.3-.5.5-1 .6-1.5.2-.5.3-1.1.4-1.7.1-.6.1-1.2.1-1.9v-.8-.4-.2-.2c0-.3-.1-.5-.1-.8v-.4c0-.1 0-.2-.1-.4 0-.2-.1-.3-.1-.5 0-.1-.1-.2-.1-.4v-.1c0-.2-.1-.3-.1-.5s-.1-.3-.1-.4-.1-.2-.1-.3c0-.1-.1-.2-.1-.4 0-.1-.1-.2-.1-.4 0-.1-.1-.2-.2-.4 0-.1 0-.1-.1-.2 0 0 0-.1-.1-.1 0-.1-.1-.2-.1-.3-.1-.1-.1-.2-.2-.3-.1-.1-.1-.2-.2-.3l-.1-.1s0-.1-.1-.1c-.1-.1-.1-.2-.2-.3-.1-.1-.1-.2-.2-.3-.1-.1-.1-.2-.2-.3 0-.1-.1-.1-.1-.2v-.1c-.1-.1-.1-.2-.2-.3-.1-.1-.1-.2-.2-.3-.1-.1-.1-.2-.2-.3v-.1-.1-.1-.1l-.1-.1-.1-.1-.1-.1-.1-.1-.1-.1-.1-.1-.1-.1-.1-.1-.1-.1-.1-.1-.1-.1-.1-.1-.1-.1h-.1l-.1-.1-.1-.1-.1-.1-.1-.1h-.1l-.1-.1s-.1 0-.1-.1c0 0-.1 0-.1-.1 0 0-.1 0-.1-.1h-.1s-.1 0-.1-.1c0 0-.1 0-.1-.1 0 0-.1 0-.1-.1h-.1c-.1 0-.1 0-.2-.1-.1 0-.1 0-.2-.1h-.1-.4H74.7c-3.9-.5-7.8-1-11.7-1.4h.1-1.2c-.2 0-.4 0-.5.1-.2 0-.4.1-.5.1-.2 0-.4.1-.5.2-.3.1-.6.2-.8.3l-12.5-1.5h.4c-.7-.1-1.3-.2-2-.2-1-.1-2-.1-3-.1-1.6 0-3.1.1-4.7.2-1.5.2-3 .4-4.4.7-1.4.3-2.8.7-4.1 1.2s-2.6 1-3.9 1.7c-1.4.7-2.8 1.5-4.1 2.4s-2.5 1.8-3.6 2.9c-1.1 1-2.2 2.2-3.1 3.3-1 1.2-1.8 2.5-2.6 3.8-.7 1.2-1.4 2.5-2 3.8s-1 2.6-1.4 3.9-.7 2.7-.8 4c-.2 1.4-.3 2.7-.3 4.1s.1 2.7.2 4c.2 1.3.4 2.6.7 3.9s.7 2.5 1.2 3.8c.5 1.2 1 2.4 1.6 3.6.7 1.4 1.6 2.8 2.5 4 .9 1.3 1.9 2.4 3 3.6 1.1 1.1 2.3 2.1 3.6 3.1 1.3.9 2.6 1.8 4.1 2.6.8.4 1.6.8 2.5 1.2-8.1.2-15.8.6-15.8 1.5 0 1.2 16.5 1.5 26.6 1.6h.3c1.6.2 3.2.3 4.9.3 1 0 2 0 3-.1.5 0 1.1-.1 1.6-.2h94.9c1.4.2 2.8.3 4.2.3 1.5 0 2.9-.1 4.3-.3h28.6c.3 0 .6.1.8.1.9.1 1.9.2 2.9.2s2-.1 2.9-.2c.1 0 .3-.1.4-.1h15.9c.1 0 .2.1.3.1.8.1 1.5.2 2.4.2.6 0 1.3 0 1.9-.1.3 0 .7-.1 1-.2h28.5c1.1.2 2.3.3 3.6.3 1.4 0 2.8-.1 4.1-.3h134.6c.3.1.7.1 1 .2.9.1 1.9.2 2.9.2s2-.1 2.9-.2c.2 0 .4-.1.5-.1h15.7c.1 0 .3.1.4.1.8.1 1.6.2 2.4.2.6 0 1.3 0 1.9-.1.4-.1.7-.1 1.1-.2h49.6c.8 0 1.6.1 2.5.1 1.1 0 2.1 0 3.1-.1h62.4c.7.1 1.3.1 1.8.2.5 0 1 .1 1.4.1h1.1c1.2 0 2.3-.1 3.4-.2.2 0 .3-.1.5-.1h.8s17.1 0 17.1-1.7c-7-3.7-12.4-4.1-17.1-4.3zm-264-53s-.1 0 0 0c.1.1.2.2.3.4-.1-.1-.2-.2-.3-.4zm1.3 48.3c0-.1 0-.1.1-.2 0-.1.1-.1.1-.2-.1.1-.2.2-.2.4zm.2-.6c.1 0 .1 0 0 0 .1 0 .1 0 0 0 .1-.2.2-.3.4-.4l-.4.4zm-19.6-1.8v.2c0 .1 0 .2-.1.3 0-.1.1-.3.1-.5zm-.1.7c-.1.2-.1.4-.2.6 0-.1.1-.4.2-.6zm-.7 1.6c0 .1-.1.1-.1.2-.1.1-.1.2-.2.3.1-.2.2-.4.3-.5zm-2-28.4c0 .1 0 .1 0 0 .1 0 .2-.1.4-.1-.1.1-.3.1-.4.1zm.7-.2c.1 0 .2-.1.4-.2-.1.1-.2.2-.4.2zm.6-.3c.2-.1.3-.3.5-.5-.2.2-.3.4-.5.5zm.2-9.9c.1 0 .1.1.2.2l.2.2c-.1-.2-.3-.3-.4-.4zm-.2-.1c.1 0 .1.1.2.1-.1-.1-.2-.1-.2-.1-.1 0-.1 0 0 0zm-12.8-10.7c.1 0 .1.1.1.1l.1.1-.2-.2c-.1 0-.1 0 0 0zm-38.8 13s.1 0 0 0c.1 0 .1 0 0 0s-.3-.1-.4-.2c.1.1.3.1.4.2zm-1.3-.6c.1 0 .1 0 0 0 .2.1.3.1.4.2-.3-.2-.7-.3-1.1-.5.3.1.5.2.7.3zm-2.4-1c.4.1.8.3 1.2.4 0 0 .1 0 .1.1-.5-.2-.9-.3-1.3-.5-.1 0 0 0 0 0zm-1.5-.4h.2c.3.1.6.2.9.2-.4-.1-.9-.2-1.3-.3 0 .1.1.1.2.1zm-1.5-.3c.1 0 .1 0 0 0 .2 0 .4.1.6.1-.4-.1-.8-.1-1.1-.2.2.1.4.1.5.1zm-27.7 24.9c.3 0 .5-.1.7-.2-.2.2-.4.4-.7.6-.6.6-1.2 1.3-1.7 1.9-.4.6-.8 1.2-1.1 1.8l-5.6.9H156.5c-.2 0-.4 0-.6.1-.2 0-.4.1-.7.2-.2.1-.5.2-.7.4-.3.2-.5.3-.8.5l-.9.6c-.3.2-.6.3-1 .5-.3.1-.6.2-.9.4-.2 0-.4-.1-.7-.1h-.1c-.3 0-.5-.1-.8-.2-.3-.1-.5-.2-.8-.3-.3-.1-.5-.2-.8-.3-.2-.1-.5-.2-.7-.4-.2-.1-.5-.3-.7-.5-.2-.2-.5-.3-.7-.5l-.6-.6-.6-.6c-.2-.2-.3-.4-.5-.6-.1-.2-.3-.4-.4-.6-.2-.4-.4-.8-.5-1.2-.1-.2-.1-.4-.1-.6v-.3h14.5c.4 0 .7 0 1.1-.1-.2 0-.3.1-.5.1l6.6-.9zm-5.7.7c.1 0 .2-.1.4-.1-.2 0-.3 0-.4.1zm1-.5c.1-.1.2-.1.3-.2l-.1.1c-.1.1-.2.1-.2.1zm.8-.6l.3-.3c-.1.1-.2.1-.3.3 0-.1 0 0 0 0zm-11.1-23.2c.2.1.4.2.5.2-.3-.1-.7-.3-1-.4.1.1.3.1.5.2zm-1.8-.6c.1 0 .2.1.3.1.1 0 .2.1.3.1-.4-.1-.7-.2-1.1-.3.1 0 .3 0 .5.1zm-1.7-.4c.1 0 .2 0 .3.1h.2c-.4-.1-.8-.2-1.3-.2.2-.1.5 0 .8.1zm-1.7-.3H144.7c-.6-.1-1.3-.2-1.9-.2.5 0 1 .1 1.6.2zm-31.9.8c.1 0 .2.1.3.2-.2-.1-.3-.2-.5-.2h.2zm-.8-.3c.1 0 .2.1.3.1-.2-.1-.3-.1-.5-.2 0 .1.1.1.2.1zm-.9-.2c.1 0 .2.1.3.1-.2 0-.4-.1-.5-.1h.2zm-.9-.2h.3c-.2 0-.4-.1-.6-.1 0 .1.2.1.3.1zm-15.1.4c.1 0 .1 0 0 0 .1 0 .1 0 0 0 .1 0 0 0 0 0zm-.2-.1s.1 0 0 0zm-.3-.1h-.1c0-.1 0-.1.1 0zm-.4-.1c.1 0 .1 0 0 0h-.2c.1-.1.2-.1.2 0zm-.8-.2h.4c-.1.1-.2 0-.4 0zm-24.7 6.4c.1 0 .1 0 0 0h.1c.6 0 1.1-.1 1.6-.2s1-.3 1.4-.5c0 0 .1 0 .1-.1-.2.1-.3.3-.5.5-.3.3-.6.7-.8 1-.2.4-.4.7-.5 1.1s-.2.8-.2 1.2c0 .5.1.9.2 1.3.2.4.4.8.7 1.2l.6.6c-.3 0-.5-.1-.8-.1h-.4c-.4 0-.7-.1-1.1-.1h-4.4c-4 0-7.9.1-11.9.1h.8c-1.2 0-2.4 0-3.5.1l-3.3.3c-1.1.1-2.1.3-3.1.5s-2 .5-2.9.8-1.7.6-2.4 1l-.1.1c-.1-.4-.1-.8-.2-1.1 0-.1 0-.3-.1-.4-.1-.6-.1-1.1-.2-1.7v-.6c0-.7-.1-1.4-.1-2.2 0-1.1.1-2.2.2-3.2s.3-1.9.6-2.8.6-1.7 1-2.5.8-1.5 1.4-2.1c.5-.6 1.1-1.2 1.7-1.7.3-.3.7-.5 1-.7.5.3.9.7 1.4 1 .9.7 1.7 1.6 2.5 2.6.7.8 1.2 1.5 1.7 2s.8 1 1.1 1.3l.7.7c.2.2.3.3.4.3.4.3.9.6 1.4.9s.9.5 1.4.6c.5.2.9.3 1.4.4s.9.1 1.4.1l11.7.3zm-9.3-22.1c.1.1.2.2.3.2-.1-.1-.2-.2-.3-.2-.1-.1-.1-.1 0 0zm-.6-.5c.1.1.2.1.2.2-.1-.1-.2-.2-.4-.3.1.1.1.1.2.1zm-.6-.3c.1 0 .1.1.2.1-.1-.1-.3-.1-.4-.2 0 0 .1 0 .2.1zm-.6-.3c.1 0 .1 0 .1.1-.1-.1-.3-.1-.4-.1.1-.1.2 0 .3 0zm-.7-.2s.1 0 0 0h.1c-.1 0-.3-.1-.4-.1.1 0 .2.1.3.1zm-7.9 1s.1 0 0 0c.1.1.1 0 0 0zm-.7-.2s-.1 0 0 0c-.1 0-.2 0-.2-.1.1.1.1.1.2.1zm-.6-.1s-.1 0 0 0c-.1 0-.1 0 0 0zm-2.5-.8c.1 0 .1 0 .2.1-.1 0-.3-.1-.4-.1h.2zm-1.7-.4c.1 0 .2 0 .3.1h.2c-.2 0-.4-.1-.6-.1h.1zm-1.6-.3h.1c.1 0 .2 0 .3.1-.2 0-.4-.1-.6-.1h.2zM58 158.9c-.1.1-.2.2-.3.4l-.1.1-.1.1c-.4.4-.8.8-1.2 1.1-.3.3-.6.5-.9.8-.1.1-.2.1-.3.2l-.1.1c-.2.2-.4.3-.6.5-.1.1-.2.1-.3.2-.2.1-.4.3-.6.4-.1.1-.3.2-.4.3-.2.1-.4.2-.6.4-.1 0-.1.1-.2.1-.2.1-.3.2-.5.2 0 0-.1 0-.1.1-.4.2-.7.4-1.1.6-.2.1-.4.2-.5.2 0 0-.1 0-.1.1-.2.1-.4.2-.7.3-.1 0-.2.1-.4.1l-1.5.6c-.9.3-1.8.6-2.7.8-.9.2-1.9.4-2.8.6-.9.2-1.9.3-2.9.3-1 .1-1.9.1-2.9.1-1.6 0-3.2-.1-4.8-.3-1.6-.2-3.1-.5-4.6-.8-1.5-.4-2.9-.8-4.4-1.4-1.4-.6-2.8-1.2-4.2-2s-2.7-1.6-3.9-2.5-2.4-1.9-3.4-3c-1.1-1.1-2-2.2-2.9-3.4-.9-1.2-1.7-2.5-2.4-3.9-.6-1.1-1.1-2.3-1.6-3.5s-.8-2.4-1.1-3.6-.5-2.5-.7-3.8-.2-2.6-.2-3.9.1-2.6.3-3.9.5-2.6.8-3.9c.4-1.3.8-2.5 1.4-3.8.5-1.2 1.2-2.5 1.9-3.6.8-1.3 1.6-2.5 2.5-3.6s1.9-2.2 3-3.2 2.2-1.9 3.5-2.8c1.2-.9 2.5-1.6 3.9-2.3 1.2-.6 2.4-1.2 3.7-1.6 1.3-.5 2.6-.9 4-1.2 1.4-.3 2.8-.5 4.3-.7 1.5-.2 3-.2 4.5-.2 1 0 1.9 0 2.9.1.9.1 1.9.2 2.8.3.9.1 1.8.3 2.7.5s1.8.4 2.6.7c.2.1.4.1.6.2.2 0 .3.1.5.1.1 0 .2.1.4.1.1 0 .2 0 .2.1h.1c.1 0 .1 0 .2.1.1 0 .3.1.4.1.1 0 .2 0 .3.1h1c.2 0 .4-.1.7-.1.3-.1.7-.2 1.1-.3.5-.1 1-.3 1.7-.6.1 0 .3-.1.4-.1.1 0 .3-.1.4-.1.1 0 .3 0 .4-.1h.4c.4 0 .7.1 1.1.2.4.1.7.3 1.1.5.4.2.7.5 1.1.9.3.3.5.6.8.9l.3.3c.3.4.6.8.8 1.2.3.4.5.8.7 1.2l.3.6.3.6c.1.2.1.3.2.5s.2.5.3.7v.1c.3.8.5 1.6.6 2.4v.1c.1.4.1.8.1 1.1 0 .5.1.9.1 1.4 0 .6 0 1.2-.1 1.7s-.2 1.1-.3 1.6c-.2.5-.3 1-.6 1.4v.1c-.2.4-.5.8-.7 1.1-.3.4-.6.7-1 1-.3.3-.7.5-1.1.7-.4.2-.8.3-1.2.4s-.9.1-1.4.1c-.4 0-.8 0-1.2-.1l-1.2-.3c-.4-.1-.8-.3-1.2-.6-.4-.2-.8-.5-1.2-.8-.1-.1-.2-.2-.4-.3l-.7-.7c-.3-.3-.6-.7-1.1-1.2-.4-.5-.9-1.1-1.5-1.9-.8-.9-1.6-1.8-2.4-2.5l-.3-.3c-.9-.8-1.9-1.5-2.9-2s-2-.9-3.1-1.2c-.8-.2-1.6-.3-2.4-.4h-.8c-1 0-2 .1-2.9.3h-.1c-.1 0-.3.1-.4.1-.1 0-.2.1-.4.1-.1 0-.3.1-.4.1-.2.1-.4.2-.7.3-.2.1-.4.1-.6.2l-.1.1-.6.3c-.2.1-.3.2-.5.3-.4.2-.7.5-1.1.7-.2.2-.5.4-.7.6l-.3.3c-.3.3-.6.7-.9 1-.6.7-1.1 1.5-1.6 2.4-.4.9-.8 1.8-1.1 2.8s-.5 2.1-.7 3.2-.2 2.3-.2 3.6v2.2c0 .4 0 .7.1 1.1 0 .2 0 .4.1.6 0 .4.1.8.1 1.2v.4c0 .1 0 .2.1.4 0 .3.1.6.1.9.1.3.1.6.2.9 0 .1 0 .2.1.3.1.3.1.6.2.9 0 .1 0 .2.1.2.1.4.2.7.3 1.1v.1l.3.9c0 .1 0 .1.1.2.1.3.2.7.4 1 0 0 0 .1.1.1.1.3.3.7.4 1v.1c.2.3.3.7.5 1s.3.7.5 1c0 0 0 .1.1.1.2.3.4.6.5.9 0 0 0 .1.1.1l.6.9c.2.3.4.6.7 1 .4.5.7.9 1.1 1.4l1.2 1.2c.4.4.9.7 1.3 1.1.5.3.9.6 1.4.9.2.1.5.3.7.4.2.1.5.2.7.3.2.1.5.2.7.3.1 0 .1 0 .2.1.2.1.4.1.6.2.2.1.5.1.7.2h.1c.2 0 .4.1.7.1.2 0 .4.1.7.1H39.9c.4 0 .9 0 1.2-.1.4-.1.8-.2 1.1-.3.4-.1.7-.3 1-.6.3-.2.6-.5.9-.8.3-.3.5-.6.7-.9s.4-.7.5-1.1l.3-1.2c.1-.4.1-.8.1-1.3 0-.4 0-.8-.1-1.2-.1-.4-.2-.7-.3-1s-.3-.6-.5-.8c-.2-.2-.4-.5-.7-.6-.1-.1-.2-.1-.3-.2s-.2-.1-.3-.2c-.1 0-.2-.1-.3-.1s-.2-.1-.3-.1h-2.7c-.3 0-.6 0-.8-.1-.3 0-.5-.1-.7-.2s-.5-.2-.7-.3c-.2-.1-.4-.3-.6-.5-.2-.2-.3-.4-.5-.6-.1-.2-.3-.4-.3-.6-.1-.2-.2-.5-.2-.7s-.1-.5-.1-.8c0-.5.1-1.1.3-1.5.2-.5.5-.9.8-1.3.4-.4.8-.7 1.4-1.1.6-.3 1.2-.6 2-.8.9-.3 1.8-.5 2.7-.7h.1c1-.2 2-.4 3-.5.1 0 .3 0 .4-.1.8-.1 1.6-.2 2.5-.2h.3c1.1-.1 2.2-.1 3.4-.1 1.3 0 2.5 0 3.6.1 1.2.1 2.3.2 3.3.3.8.1 1.6.2 2.3.4h.2c.2 0 .3.1.5.1h.1l1.2.3h.1l1.2.3c.4.1.7.2 1 .4l.6.3c.1.1.2.1.3.2.2.1.5.3.7.5.2.1.3.3.5.4.1.1.2.1.2.2.1.1.2.2.3.4.1.1.2.2.2.3.1.2.3.5.3.7.1.2.1.4.1.5s0 .1.1.2c0 .3.1.6.1.9 0 .2 0 .4-.1.7 0 .2-.1.4-.2.6l-.3.6c-.1.2-.3.4-.4.5l-.5.5c-.2.1-.4.3-.6.4-.2.1-.4.2-.7.3-.2.1-.5.1-.8.2-.3 0-.6.1-.8.2s-.5.1-.7.2-.4.2-.5.2c-.2.1-.3.2-.4.3-.1.1-.1.1-.2.3-.1.1-.2.3-.3.5s-.2.4-.3.8c-.1.3-.2.7-.3 1.1-.3 1.2-.7 2.3-1.2 3.3-.5 1.1-1 2.1-1.6 3.1s-1.3 1.9-2.1 2.8c.4.3.2.5-.1.8zm-15.8-12.2H43.2s.1 0 .2.1c.1 0 .1.1.2.1s.1.1.2.1c.2.1.3.3.4.4l.3.6c.1.2.1.4.2.7 0 .3.1.5.1.9v.2c-.3-.3-.6-.5-.8-.8-.3-.4-.7-.8-1-1.2-.4-.3-.6-.7-.8-1.1zM59.3 165c.1 0 .3-.1.4-.1.9-.3 1.7-.6 2.5-1s1.6-.7 2.4-1.2c.8-.4 1.5-.9 2.2-1.3.7-.5 1.4-1 2-1.5.9-.8 1.7-1.6 2.5-2.5s1.5-1.8 2.1-2.8c.5-.9 1-1.8 1.4-2.7-.1.9-.2 1.6-.3 2.2 0 .2-.1.3-.1.5s-.1.3-.1.4-.1.3-.2.4c-.1.1-.1.2-.2.3l-.3.3c-.1.1-.2.2-.4.3-.1.1-.3.2-.5.4-.2.1-.4.3-.6.4-.5.3-.9.7-1.3 1.1-.4.4-.7.7-.9 1.1l-.6 1.2c-.1.4-.2.9-.2 1.3 0 .6.1 1.1.3 1.6s.4 1 .8 1.4l.1.1h-11v.1zm45.1-23.1c-.3-.1-.5-.2-.8-.3-.2-.1-.5-.3-.8-.5s-.6-.4-.9-.7c-.3-.3-.7-.6-1-.9-.4-.3-.8-.7-1.2-1.1-.2-.2-.4-.4-.6-.5-.2-.1-.4-.3-.6-.4-.2-.1-.4-.2-.5-.2-.2 0-.4-.1-.5-.1H97c-.1 0-.1 0-.2.1h-.1c-.1 0-.1.1-.2.1 0 0-.1 0-.1.1-.1.1-.2.1-.3.2l-.2.2-.1.1c-.1.1-.2.2-.2.3 0 .1-.1.2-.1.3 0 0 0 .1-.1.1-.1.1-.1.3-.1.4-.1.3-.1.6-.2 1s-.1.8-.1 1.3-.1 1.1-.1 1.7V148.4c0 1 .1 1.8.1 2.6s.1 1.5.2 2.1c.1.6.1 1.1.2 1.6.1.3.1.5.2.7.1.2.2.4.2.6.1.2.2.3.3.5.1.1.2.3.3.4s.3.2.4.3l.6.3c.1 0 .2.1.3.1.1 0 .2.1.4.1.1 0 .2.1.4.1h.1c.1 0 .3.1.4.1.6.2 1.1.4 1.6.6.3.2.5.3.8.5l.3.3c.2.2.4.5.5.8 0 .1.1.2.1.2 0 .1 0 .2.1.2 0 .1.1.2.1.3 0 .2.1.4.1.6 0 .3 0 .5-.1.8 0 .2-.1.5-.2.7-.1.2-.2.5-.4.7-.1.2-.3.4-.5.6l-.5.5-.1.1c-.2.2-.5.3-.7.5-.3.1-.5.3-.8.4l-.9.3c-.7.1-1.5.3-2.4.4s-1.9.2-2.9.3c-1.1.1-2.2.1-3.4.2-1.2 0-2.5.1-3.9.1-1.3 0-2.5 0-3.7-.1s-2.2-.1-3.2-.3c-1-.1-1.9-.3-2.8-.4s-1.6-.4-2.3-.6c-.6-.2-1-.4-1.4-.7-.4-.2-.7-.5-1-.8s-.5-.7-.6-1c-.1-.4-.2-.8-.2-1.2 0-.3 0-.7.1-1s.2-.6.4-.9.5-.6.8-.9.7-.6 1.1-.9c.2-.2.5-.3.7-.5.2-.1.4-.3.5-.4.2-.1.3-.3.4-.4.1-.1.2-.3.3-.4s.2-.3.3-.4c.1-.2.2-.3.2-.5.1-.2.1-.4.2-.6 0-.2.1-.4.1-.6.1-.7.2-1.5.3-2.5s.2-2.1.2-3.4c.1-1.3.1-2.7.1-4.3v-5.1-1c0-.3-.1-.6-.1-.9s-.1-.5-.2-.7c-.1-.2-.1-.4-.2-.6-.1-.2-.2-.4-.3-.5-.1-.2-.3-.3-.5-.5-.2-.1-.4-.3-.6-.4s-.5-.2-.7-.3c-.5-.2-.9-.4-1.2-.6-.4-.2-.6-.5-.9-.7-.2-.3-.4-.5-.5-.8s-.2-.6-.2-.9 0-.6.1-.9.2-.6.4-.8c.2-.3.4-.5.6-.8.2-.2.5-.5.9-.7s.8-.5 1.2-.7c.5-.3 1-.5 1.6-.8.6-.2 1.3-.5 2-.8s1.5-.5 2.4-.8l3.3-.9c1.1-.3 2.1-.5 3-.6 1-.2 1.9-.3 2.8-.4.9-.1 1.7-.1 2.5-.1.5 0 .9 0 1.2.1.3 0 .6.1.7.1.2.1.3.1.4.1.1 0 .1.1.1.1s.1.1.1.2c.1.1.1.3.2.6.1.2.1.5.2.9V125.6c0 .2.1.4.1.7 0 .3.1.6.1.9s.1.5.1.7c.1.2.1.4.2.6.1.3.3.6.5.8.2.2.4.3.6.4.1 0 .2.1.3.1h.3c.2 0 .4 0 .6-.1l.6-.3c.2-.1.4-.3.5-.5.2-.2.3-.4.5-.7.6-.9 1.2-1.7 1.8-2.4.7-.7 1.3-1.2 2.1-1.7.7-.4 1.5-.8 2.3-1s1.7-.3 2.6-.3c.6 0 1.3.1 1.8.2.6.1 1.1.3 1.7.5.5.2 1 .5 1.5.8l.1.1c.1.1.2.2.4.3.3.2.5.4.8.7.2.2.4.4.6.7.1.2.3.4.4.6 0 .1.1.1.1.2.2.3.3.5.5.8.1.3.3.6.4.9l.3.9c.1.3.2.6.2.9.1.3.1.6.1.9v.9c0 .3 0 .7-.1 1 0 .3-.1.7-.2 1-.1.3-.2.7-.3 1s-.3.7-.4 1c-.2.3-.3.7-.5 1l-.6.9c-.2.3-.4.6-.6.8-.2.3-.5.5-.7.7-.3.3-.6.5-.9.7-.2.1-.3.2-.5.3h-.1c-.5.3-1 .6-1.6.8-.6.2-1.1.4-1.7.5-.6.1-1.2.2-1.9.2h-1c-.3 0-.6-.1-.9-.1.2 0-.1 0-.3-.1zm7.6.6c-.1 0-.2.1-.3.1s-.1.1-.2.1c.1 0 .3-.1.5-.2zm-1.8.7c-.1 0-.1 0-.2.1-.1 0-.3 0-.4.1.2-.1.4-.1.6-.2zm-.6 21.8c.2-.1.3-.1.5-.2.3-.2.6-.3.9-.5.3-.2.5-.4.7-.7.2-.2.4-.5.6-.8.2-.3.3-.5.4-.8l.3-.9c.1-.3.1-.6.1-1v-.2-.2V158.7v-.2-.1-.1-.1-.1-.1-.1-.1-.1-.1-.1-.1-.1-.1-.1-.1l-.1-.1-.1-.1-.1-.1-.1-.1-.1-.1-.1-.1-.1-.1-.1-.1-.1-.1s-.1 0-.1-.1c0 0-.1 0-.1-.1h-.1s-.1 0-.1-.1c0 0-.1 0-.1-.1 0 0-.1 0-.1-.1 0 0-.1 0-.1-.1l-.1-.1-.1-.1s-.1 0-.1-.1c0 0-.1 0-.1-.1-.1 0-.1-.1-.2-.1s-.1-.1-.2-.1-.1-.1-.2-.1-.2-.1-.2-.1c-.1 0-.1 0-.2-.1-.1 0-.1 0-.2-.1-.1 0-.1 0-.2-.1-.1 0-.1 0-.2-.1-.2 0-.3-.1-.4-.1h-.1c-.1 0-.2-.1-.4-.1h-.1c-.1 0-.2-.1-.3-.1-.1 0-.2-.1-.3-.1s-.1-.1-.2-.1-.1-.1-.1-.1c-.1-.1-.1-.1-.2-.1 0 0-.1-.1-.1-.2-.1-.1-.1-.2-.2-.3-.1-.1-.1-.2-.2-.4 0-.1 0-.2-.1-.2 0-.1-.1-.2-.1-.3-.1-.4-.1-.8-.2-1.4-.1-.6-.1-1.2-.1-1.9s-.1-1.5-.1-2.4v-2.9-1.1c.1 0 .2 0 .3.1.4 0 .8.1 1.2.1h1-.1c2.4-.2 4.8-.3 7.1-.5 0 .2-.1.5-.1.7v1.5c0 1 .1 1.9.2 2.9.1.9.3 1.9.5 2.8s.5 1.8.9 2.7c.3.9.7 1.8 1.2 2.7.3.7.7 1.3 1.1 1.9.4.6.8 1.2 1.3 1.8.4.6.9 1.1 1.4 1.6l1.5 1.5c.9.7 1.8 1.4 2.7 2h-16.9v.7zm44.8-.4c-.2.1-.5.3-.7.4.3-.2.6-.3.9-.5-.1.1-.2.1-.2.1zm.4-.2c.1 0 .1-.1.2-.1-.1 0-.2 0-.2.1zm-.4-1.3l-.9.6c-.3.2-.6.3-.9.5-.2.1-.3.2-.5.3-1.3.7-2.6 1.2-3.9 1.6-1.4.4-2.8.8-4.2 1-1.4.2-2.9.3-4.4.3s-3-.1-4.4-.3c-1.4-.2-2.8-.6-4.1-1-1.3-.4-2.5-1-3.7-1.7s-2.3-1.4-3.3-2.3c-.5-.4-1-.9-1.4-1.4-.5-.5-.9-1-1.3-1.5s-.8-1.1-1.2-1.7-.7-1.2-1.1-1.8c-.4-.8-.8-1.7-1.1-2.5-.3-.9-.6-1.7-.8-2.6s-.4-1.8-.5-2.7c-.1-.9-.2-1.8-.2-2.7 0-1.2.1-2.4.3-3.6s.5-2.3.8-3.4c.4-1.1.8-2.2 1.4-3.2.6-1 1.2-2.1 2-3 .6-.8 1.3-1.6 2.1-2.4.7-.7 1.5-1.4 2.3-2.1.8-.6 1.7-1.2 2.6-1.7s1.9-1 2.9-1.4c.7-.3 1.5-.6 2.3-.8l2.4-.6c.8-.2 1.6-.3 2.5-.4.8-.1 1.7-.1 2.6-.1 1.4 0 2.7.1 4 .3.4.1.8.2 1.2.2h.2c.3.1.6.1.9.2.3.1.5.1.8.2.2.1.4.1.6.2.1 0 .2.1.3.1.3.1.7.2 1 .4.5.2 1 .4 1.5.7.1 0 .1.1.2.1.1.1.3.1.4.2.6.3 1.1.6 1.6 1 .2.1.4.3.6.5.3.2.5.4.8.6.5.4.9.8 1.4 1.2.4.4.8.9 1.2 1.3.3.3.5.6.7 1 .1.2.3.3.4.5.3.5.7 1 1 1.6.2.3.3.6.5.9s.3.6.4.9c.3.6.5 1.2.6 1.8v.1c.1.5.3 1.1.3 1.6v1.7c0 .5 0 .9-.1 1.3s-.1.8-.2 1.2c-.1.4-.2.7-.4 1.1-.1.3-.3.6-.5.9-.1.2-.3.4-.5.6v.1c-.2.2-.4.4-.6.5s-.4.2-.7.3c-.2.1-.5.1-.8.1h-22-.1c-.1 0-.2.1-.3.1l-.1.1-.1.1h-.1l-.2.2-.1.1c0 .1-.1.1-.1.2v.1c0 .1 0 .2-.1.2v.5c0 .3 0 .5.1.8 0 .3.1.5.2.8.1.3.2.5.3.8.1.3.2.5.4.8.3.5.6 1 1.1 1.5.2.2.4.5.7.7.2.2.5.5.8.7s.5.4.8.6c.3.2.6.4.8.5.3.2.6.3.9.5.3.1.6.3.9.4l.9.3c.3.1.6.2.9.2.3.1.6.1.9.1h.9c.4 0 .7 0 1.1-.1.4 0 .8-.1 1.2-.2h.1l1.2-.3c.4-.1.9-.2 1.3-.4.5-.1.9-.3 1.3-.5s.8-.3 1.2-.5c.4-.2.7-.4 1.1-.6.3-.2.7-.4 1-.6s.5-.4.8-.5c.1-.1.2-.1.4-.2.1 0 .2-.1.2-.1h.1c.1 0 .2-.1.3-.1h.4c.1 0 .3 0 .4.1s.3.1.4.2c.2.1.3.2.5.4.1.1.3.3.4.5.2.2.3.4.4.6l.3.6c.1.2.1.4.2.6 0 .2.1.4.1.7 0 .5-.1 1-.2 1.5-.2.5-.4 1-.7 1.5-.3.5-.7 1-1.2 1.4-.5.5-1 1-1.7 1.4-.2.9-.7 1.2-1.1 1.5zm2 1.9c.1 0 .2-.1.3-.1.7-.3 1.4-.6 2.2-.9.7-.3 1.4-.7 2.1-1.1.5-.3 1-.7 1.5-1 .2.3.4.7.6 1l.9 1.2c.3.4.6.7 1 1h-8.6v-.1zm30.7 0zm.2-.1c.1 0 .1-.1.2-.1 0 0-.1 0-.2.1zm.7-.4c.1 0 .1 0 .1-.1 0 .1-.1.1-.1.1zm.9.5c.2-.1.4-.2.7-.3l.3.3h-1zm18.3-1.2c-.4.3-.7.6-1.1.9-.1.1-.2.2-.4.2l-.9.6c-.5.3-1.1.6-1.6.8-.6.2-1.1.4-1.7.6s-1.1.3-1.7.4-1.2.1-1.7.1c-.7 0-1.5-.1-2.1-.2-.7-.1-1.3-.3-1.9-.6-.6-.2-1.1-.6-1.6-.9-.5-.4-1-.8-1.4-1.3l-.6-.6c-.2-.2-.4-.3-.6-.4l-.6-.3c-.2-.1-.4-.1-.6-.1s-.4 0-.6.1c-.2 0-.4.1-.6.2h-.1l-.6.3h-.1c-.3.2-.5.3-.8.6-.7.5-1.5 1-2.2 1.4-.8.4-1.6.7-2.4 1s-1.7.5-2.5.6c-.9.1-1.8.2-2.7.2-.9 0-1.9 0-2.7-.2-.9-.1-1.7-.3-2.4-.5-.8-.2-1.5-.5-2.2-.8s-1.3-.7-1.9-1.1c-.4-.3-.7-.5-1.1-.8-.3-.3-.7-.6-1-1-.3-.3-.6-.7-.8-1.1-.3-.4-.5-.8-.7-1.2-.2-.4-.4-.9-.6-1.3s-.3-.9-.4-1.3-.2-.9-.2-1.3c-.1-.5-.1-.9-.1-1.4 0-.7.1-1.5.2-2.1.2-.7.4-1.4.7-2 .3-.7.7-1.3 1.1-1.9.5-.6 1-1.2 1.6-1.8.8-.8 1.7-1.4 2.6-2.1.2-.1.4-.2.6-.4 1.2-.7 2.5-1.3 4-1.7 1.4-.5 3-.8 4.7-1.1 1.2-.2 2.4-.3 3.7-.3h3c.2 0 .4 0 .5-.1.2 0 .3 0 .5-.1.3-.1.6-.1.8-.2.2-.1.4-.2.5-.3.2-.1.3-.3.4-.4l.3-.6c.1-.2.1-.5.2-.8 0-.3.1-.6.1-1 0-.8 0-1.6-.1-2.3 0-.7-.1-1.4-.2-2s-.2-1.1-.3-1.6c-.1-.5-.3-.9-.5-1.3s-.4-.8-.7-1.1l-.3-.3s0-.1-.1-.1c-.2-.1-.3-.3-.5-.4-.3-.2-.7-.4-1.1-.5s-.8-.2-1.2-.2c-.3 0-.5 0-.8.1-.2 0-.5.1-.7.2s-.5.2-.7.3c-.2.1-.4.3-.6.4s-.4.3-.6.5l-.7.7c-.2.3-.5.5-.7.9-.3.3-.5.7-.8 1-.3.4-.6.9-.9 1.2l-.3.3c-.2.2-.4.5-.6.7l-.3.3-.6.6c-.3.2-.5.4-.8.6l-.1.1-.1.1c-.7.5-1.3.8-2 1s-1.3.3-2 .3c-.3 0-.6 0-.9-.1-.3 0-.6-.1-.8-.2-.3-.1-.5-.2-.7-.4-.2-.1-.5-.3-.7-.5s-.4-.4-.5-.6c-.2-.2-.3-.4-.4-.7-.1-.2-.2-.5-.2-.8s-.1-.6-.1-.9 0-.6.1-1c.1-.3.2-.7.3-1 .1-.3.3-.7.5-1s.4-.7.7-1c.3-.3.6-.7.9-1s.7-.6 1.1-.9l1.2-.9c.4-.3.9-.6 1.4-.8 1.3-.7 2.7-1.3 4.1-1.9 1.4-.5 2.8-1 4.2-1.3 1.4-.4 2.8-.6 4.2-.8 1.4-.2 2.9-.3 4.3-.3 1.3 0 2.5.1 3.7.2.4.1.9.1 1.3.2h.1c.3.1.7.1 1 .2s.6.1.9.2h.1c.1 0 .2.1.2.1l.9.3c.3.1.5.2.8.3.4.2.8.3 1.2.5.1 0 .1.1.2.1.3.2.6.3.9.5.3.2.5.3.8.5s.6.4.8.6c.2.2.4.3.6.5.2.2.4.3.6.5l.5.5c.2.2.4.4.5.6.2.2.3.4.5.6.1.1.2.2.3.4 0 .1.1.1.1.2.1.2.2.4.4.6l.3.6c.2.4.3.9.5 1.4.1.3.1.5.2.8.1.3.1.5.1.8.1.4.1.8.1 1.2v2.9l-.1 6.7v3.3c0 .5 0 .9.1 1.3v.3c0 .2 0 .5.1.7v.4c0 .4.1.7.1 1v.2c0 .3.1.6.2.8.1.3.1.5.2.8.1.2.2.4.2.6.1.2.2.4.3.5.1.2.2.3.3.4l.3.3c.1.1.2.2.3.2.1 0 .1.1.2.1 0 0 .1 0 .2.1h.6c.1 0 .2 0 .2.1h.1c.1 0 .2 0 .3.1.1 0 .3.1.5.1.1 0 .2 0 .3.1.1 0 .1 0 .2.1l.1.1c.1.1.1.2.2.3v.7c0 .3 0 .7-.1 1s-.2.7-.3 1c-.1.3-.3.7-.5 1.1s-.4.7-.7 1.1c-.3.4-.6.7-.9 1.1 0 1.4-.4 1.7-.7 2zm-37.5-24.2c1.9-.1 3.8-.3 5.6-.4.7-.1 1.4-.2 2.1-.5s1.3-.6 2-1.1 1.3-1.1 2-1.7c.6-.7 1.3-1.5 1.9-2.3.2-.3.5-.6.7-.9s.4-.5.6-.8c.1-.2.3-.3.4-.4.1.1.2.3.3.5.2.3.3.7.4 1.2.1.4.2.9.3 1.5.1.6.1 1.2.2 1.8 0 .7.1 1.4.1 2.2 0 .4 0 .7-.1.9 0 .2-.1.4-.1.6 0 .1-.1.2-.1.3v.1h-1.9c-1.7.2-3.5.3-5.2.5.3 0 .6-.1 1-.1h.2c-.9.1-1.8.2-2.6.3-1.8.2-3.4.6-4.9 1.1s-2.9 1.1-4.2 1.8c-.3.2-.6.3-.8.5.1-.1.2-.2.3-.4.2-.3.4-.7.5-1 .2-.4.3-.8.4-1.2.1-.4.2-.8.2-1.3 0-.4.1-.8.1-1.2h.3.3c-.1 0-.1 0 0 0-.1 0 0 0 0 0zm2-.5s.1 0 .1-.1c.1.1 0 .1-.1.1.1 0 .1 0 0 0zm12.5 1.7zm-1.4.1h-1.3 1.3zm-1.7 0c-.3 0-.6 0-1 .1H180.7c.2-.1.3-.1.4-.1zm27.6 24.1c.1-.1.2-.1.3-.2.1 0 .1-.1.2-.1.5-.3.9-.5 1.3-.8l1.2-.9c.4-.3.7-.7 1.1-1 .3-.4.6-.7.9-1.1s.5-.8.8-1.2l.6-1.2c.1-.4.3-.8.3-1.2.1-.4.1-.8.1-1.1v-.2V155.7v-.5-.1-.1-.1-.1-.1h-.1-.1-.1-.5c-.1 0-.2 0-.3-.1H213.6h-.2-.1c-.1 0-.1 0-.1-.1l-.1-.1s-.1-.1-.1-.2c-.1-.1-.1-.2-.2-.3 0-.1-.1-.1-.1-.2s-.1-.1-.1-.2c-.1-.2-.1-.3-.2-.5s-.1-.4-.2-.7c-.1-.2-.1-.5-.1-.8v-.1c0-.2-.1-.5-.1-.8v-.3c0-.3-.1-.5-.1-.8v-.2c0-.4 0-.7-.1-1.1v-.3-1-.4-1.4l.1-6.4V137.3v-.3-.5-.3-.2-.2c0-.3-.1-.5-.1-.7v-.4-.2c0-.2-.1-.5-.1-.7v-.2-.1c0-.1 0-.2-.1-.3 0-.1-.1-.3-.1-.4 0-.1-.1-.2-.1-.3 0-.1 0-.2-.1-.2.1 0 .2 0 .3.1h6.3v21.7c0 1.2.1 2.3.3 3.3.2 1 .5 2 .9 3 .4.9.9 1.8 1.4 2.6.6.8 1.2 1.6 2 2.3.2.2.5.4.7.6h-14.5v-.9zm32.4 1.1c-1.3.4-2.6.8-4 1s-2.8.3-4.3.3c-1.2 0-2.3-.1-3.3-.2-1-.2-2-.4-3-.7-.9-.3-1.8-.7-2.6-1.2s-1.6-1.1-2.3-1.7c-.7-.6-1.3-1.3-1.8-2.1s-1-1.6-1.3-2.4c-.3-.9-.6-1.8-.8-2.7-.2-1-.3-2-.3-3v-20.9-.6c0-.2 0-.3-.1-.5 0-.1-.1-.3-.1-.4-.1-.1-.1-.2-.2-.3-.1-.1-.2-.1-.3-.2H210.1c-.2 0-.3 0-.4-.1-.1 0-.1 0-.2-.1s0 0 0-.1c0 0 0-.1-.1-.2 0-.1-.1-.3-.1-.5v-2.8c0-.2 0-.3.1-.5 0-.1.1-.3.1-.4.1-.1.1-.2.2-.3l.3-.3 20.7-13c.1-.1.2-.1.3-.1.1 0 .2-.1.4-.1.1 0 .3 0 .4-.1h4.9c.1 0 .2 0 .2.1.1 0 .1.1.1.1s0 .1.1.1c0 .1.1.2.1.3 0 .1 0 .2.1.4V120.6c0 .2.1.4.1.6.1.2.1.3.2.5.1.1.2.3.3.4.1.1.2.2.4.3.1.1.3.1.5.2.2 0 .4.1.6.1h9.6-.1H249.5c.1 0 .2 0 .3.1.1 0 .2.1.3.1.1 0 .1.1.1.1s0 .1.1.1v.1s0 .1.1.2c0 .1 0 .1.1.2V128.9c0 .3-.1.5-.1.8 0 .2-.1.4-.2.5s-.1.2-.2.3l-.3.3c-.1.1-.2.1-.4.2s-.3.1-.5.1H239.3c-.2 0-.4.1-.6.1-.2.1-.3.1-.5.2-.1.1-.3.2-.4.3-.1.1-.2.2-.3.4-.1.1-.1.3-.2.5s-.1.4-.1.6V150c0 .2 0 .3.1.5v.1c0 .2.1.4.1.6 0 .2.1.4.2.6.1.2.1.4.2.6.1.2.2.4.3.5.1.2.2.3.3.5.1.2.2.3.3.5.1.2.3.3.4.5l.4.4c.1.1.3.2.4.3.2.1.3.2.5.3.2.1.3.2.5.2.2.1.3.1.5.2.2 0 .3.1.5.1h1.1c.2 0 .3 0 .5-.1.2 0 .4-.1.6-.1.2-.1.4-.1.6-.2s.4-.1.6-.2l.6-.3.6-.3h.1c.2-.1.5-.2.7-.4.1-.1.2-.1.3-.1.1 0 .1-.1.2-.1h.7c.1 0 .2 0 .4.1.1 0 .2.1.3.2h.1c.1.1.2.2.4.3.1.1.2.3.4.4l.3.6c.1.2.2.4.2.6.1.2.1.4.1.6s.1.4.1.7c0 .2 0 .5-.1.7 0 .1-.1.3-.1.4v.1c0 .1-.1.2-.1.3 0 .1-.1.2-.1.2v.1c-.1.1-.1.3-.2.4 0 .1-.1.1-.1.2s-.1.2-.2.2c-.1.1-.1.2-.2.3-.2.2-.4.5-.6.7l-1.2 1.2c-1 .9-2.1 1.7-3.3 2.3-1 .4-2.2 1-3.5 1.4zm-1.6-33.9zm95-23.6s.1 0 0 0zm-1.2.6c.1 0 .1 0 0 0 .1 0 .1 0 .1-.1-.1 0-.2.1-.3.1h.2zm-.9.5c.1 0 .1-.1.2-.1-.1.1-.2.1-.2.1-.1.1 0 0 0 0zm-61.3 3.5c-.2-.1-.4-.3-.5-.5.1.2.3.3.5.5zm1.3.7c-.1 0-.1-.1-.2-.1l.6.3c-.2-.1-.3-.1-.4-.2zm30 51c-.5.3-1.1.5-1.7.8-.7.2-1.5.5-2.3.7-.9.2-1.8.3-2.8.5-1 .1-2.1.2-3.3.3-1.2.1-2.4.1-3.7.1-2.6 0-5-.1-7-.3-2-.2-3.7-.5-5-1-1.4-.4-2.4-1-3.1-1.6s-1-1.4-1-2.2v-.5c0-.2.1-.3.1-.4s.1-.2.1-.2v-.1c.1-.1.1-.2.2-.3l.3-.3c.1 0 .1-.1.2-.1h.1c.1-.1.2-.1.3-.2.1-.1.2-.1.4-.2 0 0 .1 0 .1-.1.1-.1.2-.1.3-.2.1 0 .1-.1.2-.1.1-.1.3-.2.4-.2s.1-.1.2-.1c.2-.1.4-.2.7-.3.2-.1.3-.2.4-.3.1-.1.3-.2.4-.3.2-.2.5-.4.7-.7.2-.2.3-.5.4-.7.1-.1.1-.3.2-.4 0-.1.1-.3.1-.4 0-.3.1-.7.1-1.2s.1-1.2.1-2.1c0-.8.1-1.8.1-2.9s0-2.4.1-3.8v-23.8-2.2c0-.7-.1-1.2-.1-1.7-.1-.5-.1-.9-.2-1.3s-.2-.7-.3-.9c-.1-.2-.3-.5-.5-.7s-.5-.4-.8-.6-.7-.4-1.1-.5c-.2-.1-.3-.1-.5-.2-.1 0-.3-.1-.4-.1s-.3-.1-.4-.1c-.4-.1-.7-.2-1-.4 0 0-.1 0-.1-.1-.1-.1-.3-.1-.4-.2-.3-.1-.5-.3-.7-.4l-.3-.3-.1-.1-.1-.1-.3-.3c-.1-.1-.1-.2-.2-.4 0 0 0-.1-.1-.1-.1-.3-.2-.7-.2-1.1 0-.3 0-.5.1-.8.1-.2.1-.5.3-.7.1-.2.3-.4.4-.6.2-.2.4-.3.6-.5.3-.2.6-.3.9-.4s.7-.2 1.1-.3c.4-.1.8-.1 1.3-.2.4 0 .9-.1 1.4-.1h3.3c.6 0 1.2 0 2 .1h11.6c.2 0 .6 0 1.1-.1.5 0 1.1-.1 1.9-.2s1.7-.1 2.7-.2 2.2-.2 3.5-.3c.4 0 .9-.1 1.3-.1s.8-.1 1.2-.1h2.3c1.2 0 2.4.1 3.5.2s2.3.3 3.3.6c1.1.2 2.1.6 3.1.9 1 .4 2 .8 2.9 1.3 1.6.9 3.1 1.8 4.3 2.9 1.2 1.1 2.2 2.3 3 3.6.8 1.3 1.4 2.8 1.8 4.4s.6 3.3.6 5.2c0 1.5-.1 2.9-.4 4.2-.3 1.3-.7 2.6-1.3 3.8-.6 1.2-1.3 2.3-2.1 3.4-.9 1-1.8 2-3 2.9-1.1.8-2.2 1.6-3.4 2.2-1.2.6-2.5 1.2-3.8 1.6s-2.7.7-4.1 1c-1.4.2-2.9.3-4.4.3h-1.3c-.4 0-.9 0-1.4-.1-.5 0-1-.1-1.5-.1s-1.1-.1-1.7-.1c-.3 0-.6 0-.9-.1h-1.5c-.3 0-.6 0-.8.1-.2.1-.4.2-.6.4-.2.2-.3.4-.4.7-.1.3-.1.6-.1.9l.3 7.7c0 .4 0 .8.1 1.1 0 .3.1.7.2 1s.2.6.3.8c.1.2.2.5.4.7.1.2.3.4.5.6l.3.3c.1.1.2.2.4.3.1.1.3.2.4.3.1.1.3.2.4.3.1.1.3.2.4.3l.6.3c.3.2.5.3.8.5 0 0 .1 0 .1.1.1.1.2.1.3.2.3.2.6.5.8.7l.2.2c.1.2.3.3.3.5 0 .1.1.2.1.2.1.2.1.3.1.5 0 .4-.1.8-.2 1.1-.2.4-.4.7-.7 1-.5-.6-.9-.3-1.4 0zm-2.1-8.6zm.6.5zm.7.5s.1 0 0 0c.1 0 .1 0 0 0zm1 .5l.6.3s.1 0 .1.1c-.3-.1-.5-.2-.7-.4zm.9.6c.1.1.2.1.3.2.1 0 .1.1.2.1-.2-.1-.4-.2-.5-.3zm.6.4l.1.1c.1.1.2.1.2.2l-.3-.3zm26.9-2.1c-.1.1-.2.1-.3.2 0 0-.1 0-.1.1 0 0-.1 0-.1.1 0 0-.1 0-.1.1h-.1-.1c-.1 0-.2.1-.3.1h-.1s-.1 0-.1.1c-.1 0-.1.1-.2.1s-.1.1-.2.1h-.1s-.1 0-.1.1-.1 0-.1.1c0 0-.1 0-.1.1h-.1-.1-.1v.5c0 .1-.1.2-.1.3 0 .1 0 .2-.1.3v.6c0 .2 0 .5.1.7 0 .2.1.5.2.7s.2.5.4.7c.1.2.3.5.5.7.1.1.2.3.3.4.1.1.2.2.4.3.1.1.3.2.4.3.1.1.3.2.4.3l.8.5h-26.6l.3-.3c.4-.4.7-.9.9-1.3.2-.5.3-1 .3-1.5 0-.4-.1-.7-.2-1.1s-.3-.7-.6-1c-.1-.2-.3-.3-.4-.5l-.5-.5-.3-.3-.7-.7-.1-.1-.1-.1-.1-.1-.1-.1-.1-.1s-.1 0-.1-.1l-.1-.1-.1-.1-.1-.1-.1-.1s-.1-.1-.2-.1-.1-.1-.2-.1h-.1-.1c-.1 0-.1-.1-.2-.1s-.1-.1-.2-.1-.1-.1-.2-.1c-.2-.1-.5-.2-.7-.4h-.1c-.2-.1-.4-.2-.6-.4 0-.1-.1-.2-.1-.3-.1-.2-.1-.4-.2-.7-.1-.2-.1-.5-.1-.8s-.1-.6-.1-.9l-.3-7.4v-.3c0-.2 0-.3.1-.5 0-.1.1-.2.1-.3.1-.1.1-.1.2-.1h1.6c.3 0 .6 0 1 .1.6.1 1.1.1 1.7.1.5 0 1.1.1 1.6.1s1 0 1.4.1h1.3c1.6 0 3.2-.1 4.7-.3 1.5-.2 2.9-.6 4.3-1s2.7-1 4-1.7 2.5-1.4 3.6-2.3c1.2-1 2.3-2 3.2-3.1.9-1.1 1.7-2.3 2.3-3.6.6-1.3 1.1-2.6 1.4-4.1.3-1.4.5-2.9.5-4.5v-1.6c0-.3-.1-.6-.1-.9l.1.1c.2.3.4.7.6 1.1s.3.8.4 1.3.2 1.1.3 1.9c.1.8.1 1.8.2 2.9 0 1.1.1 2.4.1 3.8v9.5c0 1.5-.1 2.9-.1 4.2-.1 1.3-.1 2.5-.2 3.7-.1 1.1-.2 2.1-.3 3.1 0 .2-.1.4-.1.6v.2c0 .1-.1.3-.1.4v.1c0 .2-.1.3-.1.5-.1.2-.1.3-.2.5-.1.3-.3.5-.5.7-1.5 1.3-1.6 1.4-1.7 1.4zm.6 8.3zm29.6-2c0 .2-.1.4-.2.6l-.3.6c-.1.2-.2.4-.4.5l-.5.5c-.2.2-.4.3-.6.4s-.4.2-.7.3c-.2.1-.5.2-.8.3-.5.2-1.1.3-1.9.4-.7.1-1.5.2-2.4.3-.9.1-1.9.1-3 .2-1.1 0-2.3.1-3.5.1-1.4 0-2.8 0-4-.1s-2.3-.1-3.3-.2-1.9-.2-2.7-.4c-.8-.2-1.5-.3-2-.6-.2-.1-.5-.2-.7-.3-.2-.1-.4-.2-.6-.4-.2-.1-.4-.3-.6-.4s-.3-.3-.5-.5-.3-.4-.4-.5c-.1-.2-.2-.4-.3-.5-.1-.2-.1-.4-.2-.5 0-.2-.1-.4-.1-.6v-.4c0-.1 0-.2.1-.3 0-.1.1-.2.1-.3 0-.1.1-.2.2-.2l.1-.1.1-.1s.1-.1.2-.1c0 0 .1 0 .1-.1 0 0 .1 0 .1-.1.1 0 .2-.1.2-.1.1-.1.2-.1.4-.2.1-.1.3-.1.4-.2.2-.1.3-.1.5-.2.4-.2.7-.4.9-.6.1-.1.3-.3.4-.5.1-.2.2-.3.3-.5l.3-.6c.1-.2.2-.5.2-.7.1-.2.1-.5.2-.7v-.2c0-.3.1-.5.1-.8.1-1 .2-2.1.3-3.3.1-1.2.2-2.5.2-3.9.1-1.4.1-2.9.1-4.5v-5.1-5.1c0-1.5-.1-2.9-.1-4.1v-.8-.5-.2-.7c0-.2 0-.4-.1-.6v-.1c0-.3-.1-.5-.1-.8v-.2c0-.2-.1-.4-.1-.6s-.1-.3-.1-.5c-.1-.6-.3-1.1-.5-1.6s-.4-1-.7-1.4c-.3-.4-.6-.8-1-1.2-.4-.4-.8-.7-1.3-1-.3-.2-.6-.3-.8-.5-.2-.2-.5-.3-.7-.5s-.4-.3-.5-.5l-.4-.4c-.1-.1-.2-.3-.3-.4-.1-.1-.1-.3-.2-.5 0-.2-.1-.3-.1-.5v-.6-.5c0-.1 0-.3.1-.4 0-.1.1-.3.1-.4.1-.1.1-.3.2-.4.2-.3.4-.5.6-.8l.4-.4.4-.4c.2-.1.4-.3.6-.4.1-.1.2-.1.4-.2.1 0 .1-.1.2-.1s.1-.1.2-.1c.2-.1.3-.2.5-.3l.6-.3c.1 0 .1-.1.2-.1.6-.2 1.2-.5 1.8-.7.7-.2 1.4-.5 2.1-.7.5-.2 1.1-.3 1.7-.5s1.2-.3 1.9-.5c.7-.1 1.4-.3 2.1-.4s1.5-.3 2.3-.4 1.6-.3 2.3-.4c.7-.1 1.4-.2 2-.3.6-.1 1.1-.1 1.6-.2.5 0 .9-.1 1.3-.1.3 0 .7 0 1 .1s.7.2 1 .5.5.6.7 1.1.3 1.2.3 2v.9c0 .4 0 .9-.1 1.4 0 .6-.1 1.2-.1 1.9-.1.7-.1 1.5-.2 2.4-.1 1.3-.2 2.7-.3 4-.1 1.3-.1 2.6-.2 3.8-.1 1.2-.1 2.5-.1 3.6 0 1.2-.1 2.3-.1 3.5v18.9c0 1.3 0 2.4.1 3.3 0 .9.1 1.7.1 2.3 0 .6.1 1 .1 1.3l.3.9c.1.3.3.5.5.8.2.2.5.5.8.7s.6.4 1 .6c.3.1.6.3.8.4l.6.3c.2.1.3.2.4.3l.2.2c.1.1.1.2.2.3.1.1.1.2.1.3 0 .1.1.2.1.4v.4c.4-.1.4.1.4.3zm136.1-13.5c-.3 0-.6 0-.9-.1v-.5l.9.6zm-19.8-27.9c.1 0 .1 0 0 0 .1 0 0 0 0 0zm-1.6.4zm-1.5.5c.1 0 .1 0 0 0 0-.1 0 0 0 0-.1 0-.1 0 0 0zm-14.6-.8c-.1 0-.1 0 0 0zm-.9.1s0 .1 0 0c0 .1 0 .1 0 0zm-1.3.4c-.1 0-.3.1-.5.1.2-.1.3-.1.5-.1zm-.9.2c.1 0 .1-.1 0 0-.2.1-.5.1-.8.2.3-.1.6-.2.8-.2zm-26.2-.7c.3 0 .6-.1.9-.1-.3 0-.6 0-.9.1zm-1.9.3c.2 0 .3 0 .5-.1-.2 0-.5.1-.7.1h.2zm-2.1.4h.2c-.3.1-.5.1-.8.2.2-.2.4-.2.6-.2zm-20.2 13.4c.1 0 .2.1.2.2.2.2.3.4.4.6.1.2.2.4.2.7v.4c0 .2 0 .4.1.8 0 .3 0 .8.1 1.3 0 .5.1 1.2.1 2 0 .6.1 1.2.1 1.8 0 .5 0 1 .1 1.5v4.1c0 .6-.1 1.2-.1 1.8 0 .5-.1 1-.2 1.5-.1.4-.1.8-.2 1.1-.1-.3-.2-.6-.3-1-.1-.5-.2-1.2-.3-1.9-.1-.7-.1-1.6-.2-2.5 0-.9-.1-2-.1-3.1l.1-6.7v-2.6zm-24.5-14.3c.1 0 .3 0 .4-.1h.2c-.5.1-1 .1-1.5.2.3 0 .6 0 .9-.1zm-3.2.7c.5-.1 1.1-.2 1.6-.4h.2c-.7.1-1.3.3-2 .4h.2zm-2.1.5c.1 0 .1 0 .2-.1l1.2-.3c-.5.1-1 .3-1.6.4.1.1.1 0 .2 0zm-1.7.6c.1 0 .1 0 0 0 .3-.1.6-.2.8-.3-.4.1-.9.3-1.3.5.2-.1.4-.2.5-.2zm-1.2.5s-.1 0 0 0h-.1.1zm-8.4 14.9c.1 0 .1 0 0 0zm.8.5s0-.1 0 0c0 0 .1 0 0 0 .1 0 .1 0 0 0zm.9.3s.1 0 0 0c.1 0 0 0 0 0zm-5.3 25.5c0-.1.1-.1.1-.2v-.1c.1.1.2.1.3.2.1 0 .1.1.2.1h-.6zm48.5-6.4c-.1.3-.2.7-.3 1s-.3.7-.5 1.1-.4.7-.7 1.1-.6.7-.9 1.1l-1 1c-.4.3-.7.6-1.1.9-.4.3-.8.6-1.3.8-.5.3-1.1.6-1.6.8-.6.2-1.1.4-1.7.6-.6.2-1.1.3-1.7.4-.6.1-1.2.1-1.7.1-.7 0-1.5-.1-2.1-.2-.7-.1-1.3-.3-1.9-.6-.6-.2-1.1-.6-1.6-.9-.4-.3-.7-.6-1-.9l-.4-.4c-.1-.2-.3-.3-.4-.5l-.1-.1-.1-.1-.3-.3-.2-.2s-.1 0-.1-.1h-.1c-.1-.1-.2-.1-.3-.1-.2-.1-.4-.1-.5-.1-.2 0-.4 0-.6.1-.2.1-.4.1-.7.2-.2.1-.5.2-.7.4-.3.2-.5.3-.8.6-.7.5-1.5 1-2.3 1.4s-1.6.7-2.4 1c-.8.3-1.7.5-2.6.6s-1.8.2-2.7.2c-1 0-1.9 0-2.7-.2-.9-.1-1.7-.3-2.4-.5-.8-.2-1.5-.5-2.2-.8s-1.3-.7-1.9-1.1c-.4-.3-.7-.5-1.1-.8-.3-.3-.7-.6-1-1-.3-.3-.6-.7-.8-1.1-.3-.4-.5-.8-.7-1.2-.2-.4-.4-.8-.5-1.2 0 0 0-.1-.1-.1 0-.1 0-.2-.1-.2l-.3-.9c0-.1 0-.1-.1-.2 0-.1 0-.2-.1-.3v-.1c-.1-.3-.1-.7-.2-1-.1-.4-.1-.9-.1-1.3 0-.3 0-.7.1-1v-.3c0-.1 0-.3.1-.4 0-.2 0-.3.1-.5 0-.2.1-.4.2-.6 0-.1.1-.2.1-.3.1-.4.3-.8.4-1.2.2-.3.3-.7.5-1 .1-.1.2-.3.3-.4.1-.2.2-.4.4-.5.1-.2.3-.3.4-.5.1-.1.2-.3.3-.4.3-.3.5-.6.8-.9s.7-.6 1-.9c.4-.4.9-.7 1.4-1h.1c.2-.1.5-.3.7-.4.1-.1.3-.1.4-.2.1-.1.2-.1.3-.2.4-.2.8-.4 1.3-.6.3-.1.6-.2.9-.4.4-.1.7-.3 1.1-.4.2-.1.5-.1.7-.2s.4-.1.6-.2c.2-.1.4-.1.7-.2.3-.1.6-.1 1-.2h.2l1.5-.3H377.3c.4 0 .7-.1 1.1-.1h.4c.3 0 .7-.1 1-.1.4 0 .7 0 1.1-.1H384.7c.3-.1.5-.1.8-.2l.6-.3.2-.2c.1-.1.1-.2.2-.2.1-.1.1-.2.2-.3 0-.1.1-.2.1-.3v-.2-.2-.2-.2-.5-.6c0-.8 0-1.6-.1-2.3 0-.7-.1-1.4-.2-2-.1-.6-.2-1.1-.3-1.6s-.3-.9-.5-1.3-.4-.8-.7-1.1c-.3-.3-.6-.6-.9-.8-.3-.2-.7-.4-1.1-.5-.4-.1-.8-.2-1.2-.2-.3 0-.5 0-.8.1-.2 0-.5.1-.7.2s-.5.2-.7.3c-.2.1-.4.3-.6.4s-.4.3-.6.5l-.7.7c-.2.3-.5.5-.7.9-.3.3-.5.7-.8 1-.6.9-1.3 1.7-1.9 2.4-.6.7-1.3 1.3-2 1.7-.7.5-1.3.8-2 1s-1.3.3-2 .3c-.3 0-.6 0-.9-.1-.3 0-.6-.1-.8-.2-.3-.1-.5-.2-.7-.4-.2-.1-.5-.3-.7-.5s-.4-.4-.5-.6c-.2-.2-.3-.4-.4-.7-.1-.2-.2-.5-.2-.8-.1-.3-.1-.6-.1-.9v-.6-.2-.2c0-.1 0-.2.1-.3v-.1c0-.1.1-.2.1-.3 0-.1 0-.2.1-.2.1-.2.1-.3.2-.5s.2-.3.3-.5c.2-.3.4-.7.7-1 .2-.3.5-.6.8-.9l.1-.1c.3-.3.7-.6 1.1-.9l1.2-.9c.4-.3.9-.5 1.3-.8.8-.4 1.6-.8 2.5-1.2.2-.1.5-.2.7-.3.3-.1.6-.2.8-.4.1-.1.3-.1.4-.1.2-.1.4-.2.7-.2.4-.2.9-.3 1.3-.4.2-.1.4-.1.6-.2l1.2-.3c.3-.1.7-.1 1-.2.3-.1.6-.1.9-.2.1 0 .3-.1.4-.1.1 0 .3 0 .4-.1.5-.1 1-.2 1.5-.2 1.4-.2 2.9-.3 4.3-.3 1.3 0 2.5.1 3.7.2 1.2.2 2.3.4 3.4.7 1.1.3 2.1.7 3.1 1.2s1.9 1 2.8 1.7c.5.3.9.7 1.3 1l1.1 1.1.9 1.2c.3.4.5.8.6 1.3.2.4.3.9.5 1.4.1.5.3 1.1.3 1.7.1.6.2 1.3.2 1.9s.1 1.4.1 2.2l-.1 6.8c0 1.2 0 2.3.1 3.3 0 1 .1 1.9.2 2.6.1.8.2 1.5.3 2 .1.6.3 1 .5 1.4.1.2.2.4.3.5.1.2.2.3.3.4l.3.3c.1.1.2.2.3.2s.1.1.2.1.2.1.4.1c.2.1.4.1.6.2.2.1.5.1.9.2.1 0 .2 0 .3.1.1 0 .2.1.3.2s.2.2.2.4.1.4.1.6c.3.6.3.9.2 1.2zm29.6 2.4c-.1.2-.1.3-.2.5 0 .2-.1.4-.1.5v1.2c0 .1 0 .2.1.3 0 .1 0 .2.1.3-.4.5-1 1-1.8 1.4s-1.7.7-2.8 1-2.4.5-3.9.6-3.1.2-5 .2c-1.3 0-2.5 0-3.7-.1s-2.3-.1-3.3-.2-2-.2-2.9-.4c-.9-.2-1.7-.3-2.5-.5-.2-.1-.5-.1-.7-.2l-.6-.3c-.2-.1-.4-.2-.5-.4-.2-.1-.3-.3-.5-.5-.1-.2-.3-.3-.4-.5-.1-.2-.2-.3-.3-.5s-.1-.4-.1-.6-.1-.4-.1-.6v-.4c0-.1 0-.3.1-.4 0-.1.1-.2.1-.3 0-.1.1-.2.2-.3 0-.1.1-.1.2-.2s.3-.2.4-.4l.3-.3c.1-.1.2-.2.4-.3.1-.1.3-.2.4-.3.2-.1.4-.3.6-.4.1-.1.3-.2.4-.3l.3-.3c.1-.1.2-.3.3-.4.1-.1.2-.3.3-.4.1-.2.2-.3.3-.5.1-.2.2-.3.2-.5.1-.4.3-.8.4-1.2.1-.4.2-.9.3-1.4s.1-1.1.2-1.7c0-.6.1-1.2.1-1.9v-2.2-.9-1.2c0-.5 0-1-.1-1.6 0-.6-.1-1.2-.1-1.9s-.1-1.3-.1-1.9c0-.5-.1-1-.1-1.4s0-.7-.1-1c0-.3 0-.5-.1-.6-.1-.4-.2-.7-.3-1s-.3-.6-.6-.9c-.2-.3-.5-.5-.9-.8-.3-.2-.7-.4-1.1-.6-.4-.2-.8-.4-1.1-.6s-.6-.4-.8-.7c-.2-.3-.4-.5-.5-.8s-.1-.6-.1-.9c0-.4.1-.8.2-1.1.1-.3.3-.5.5-.8.1-.1.1-.1.1-.2.2-.2.5-.5.8-.7.1 0 .1-.1.2-.1l.6-.3c.3-.1.5-.2.8-.4.8-.3 1.7-.6 2.6-.9.2-.1.3-.1.5-.2.5-.2 1.1-.3 1.6-.5.2-.1.4-.1.5-.2.1 0 .2-.1.3-.1.2 0 .3-.1.5-.1.6-.2 1.3-.4 1.9-.5.9-.2 1.9-.5 2.8-.7.4-.1.9-.2 1.3-.3.1 0 .2 0 .3-.1h.2c.3-.1.6-.1.9-.2.8-.2 1.6-.3 2.4-.4.7-.1 1.4-.2 2-.3.6-.1 1.2-.1 1.7-.1.2 0 .5 0 .7.1s.4.1.6.3c.2.2.3.4.4.7.1.3.2.7.2 1.1v27.8c0 .5.1.9.1 1.3.1.4.1.8.2 1.1l.3.9c.1.3.2.5.4.8s.3.5.5.8c.2.2.4.5.7.7s.5.5.9.7c.3.2.5.4.7.5.2.2.4.3.5.4l.3.3.2.2c.5-.1.4 0 .3.2zm59.4 2.6c-.1.4-.3.7-.6 1s-.6.6-1 .8c-.4.2-.9.4-1.4.6-.6.2-1.3.4-2.1.5s-1.7.3-2.8.4c-1 .1-2.2.2-3.5.2s-2.7.1-4.2.1c-1 0-2 0-2.8-.1-.9 0-1.7-.1-2.4-.2s-1.4-.2-1.9-.3c-.6-.1-1.1-.3-1.5-.5s-.7-.3-1-.6c-.3-.2-.5-.4-.7-.7-.2-.3-.3-.5-.4-.8-.1-.3-.1-.6-.1-1v-.4V162.3c0-.1 0-.1.1-.2 0 0 0-.1.1-.1 0 0 .1-.1.1-.2 0 0 0-.1.1-.1 0 0 0-.1.1-.1l.1-.1s.1-.1.1-.2l.1-.1c.1-.1.1-.2.2-.2 0 0 0-.1.1-.1 0-.1.1-.1.2-.2v-.1c.1-.1.1-.2.2-.2.1-.1.2-.3.4-.4l.2-.2.2-.2c.1-.1.1-.2.2-.3.1-.1.1-.2.2-.3.1-.2.2-.5.3-.8.1-.2.1-.3.1-.5v-.1c0-.2.1-.4.1-.6 0-.2.1-.3.1-.5v-.2-.2c0-.2.1-.5.1-.8 0-.3.1-.6.1-.9v-.2c0-.3.1-.7.1-1v-.1-.1-.6-.3-.6-.2-1-.8-.4-.6-.4-1.1c0-1.1 0-2.1-.1-3s-.2-1.8-.3-2.6c-.1-.8-.3-1.5-.5-2.2s-.4-1.2-.7-1.8c-.1-.2-.2-.4-.4-.6-.1-.1-.1-.2-.2-.2-.1-.1-.1-.2-.2-.3l-.2-.2-.1-.1-.2-.2c-.1-.1-.2-.1-.2-.2-.1-.1-.2-.1-.3-.2-.1-.1-.3-.1-.4-.2-.1 0-.1-.1-.2-.1s-.2-.1-.3-.1-.3-.1-.4-.1c-.2-.1-.5-.1-.7-.1h-.9c-.6 0-1.1 0-1.6.1s-.9.2-1.3.4-.7.4-1.1.7c-.3.3-.6.6-.8 1s-.4.8-.5 1.2c-.2.5-.3 1-.4 1.6-.1.6-.2 1.3-.2 2-.1.7-.1 1.6-.1 2.5v10.3c0 .4 0 .8.1 1.1 0 .3.1.6.1.9s.1.5.2.6c.1.2.2.4.3.7.1.3.3.5.5.9.2.3.4.7.7 1.1s.5.9.9 1.3c.1.1.1.2.2.3.1.1.1.2.1.4 0 .1.1.3.1.4v.4c0 .4-.1.7-.2 1-.1.3-.3.6-.6.9s-.6.5-1 .8c-.4.2-.9.4-1.4.6-.6.2-1.3.4-2.1.5-.8.2-1.6.3-2.6.4s-2 .2-3.1.2c-1.1.1-2.3.1-3.6.1-2 0-3.7-.1-5.2-.3-1.5-.2-2.7-.5-3.7-.9s-1.7-.9-2.2-1.4c-.2-.2-.3-.4-.4-.7v-.1c-.1-.3-.2-.5-.2-.8v-.4-.4c0-.1 0-.2.1-.4 0-.1 0-.1.1-.2v-.1c0-.1.1-.2.1-.2s.1-.1.1-.2l.2-.2.1-.1.1-.1.2-.2.1-.1.1-.1c.1-.1.2-.2.3-.2.1-.1.3-.2.4-.3.2-.2.4-.3.6-.5.2-.2.4-.4.5-.6s.3-.4.4-.6l.3-.6c.1-.2.1-.5.2-.8.1-.3.1-.7.2-1.2 0-.5.1-1 .1-1.6s.1-1.3.1-2c.1-.9.1-1.7.1-2.6s.1-1.8.1-2.7c0-.9 0-1.8.1-2.7v-2.8-1.5c0-.5-.1-.9-.1-1.2 0-.4-.1-.7-.2-.9-.1-.3-.1-.5-.2-.7-.1-.2-.2-.4-.4-.6l-.6-.6c-.2-.2-.5-.4-.9-.7-.3-.2-.7-.5-1.1-.7-.3-.2-.5-.4-.7-.5-.2-.2-.4-.4-.5-.6l-.3-.6c-.1-.2-.1-.4-.1-.7 0-.2 0-.5.1-.7s.1-.4.2-.6c.1-.1.1-.2.2-.3.1-.1.1-.2.2-.3.2-.2.4-.4.6-.5.1-.1.3-.2.4-.3.2-.1.3-.2.5-.3.2-.1.4-.2.7-.3l.6-.3s.1 0 .1-.1l.6-.3h.1c.3-.1.7-.3 1.1-.4.2-.1.5-.2.7-.3.1 0 .1 0 .2-.1.4-.1.8-.3 1.3-.5.7-.3 1.4-.5 2.1-.7.7-.2 1.4-.5 2.1-.7l2.1-.6c.7-.2 1.4-.4 2-.6.7-.2 1.3-.3 1.8-.5.6-.1 1.1-.2 1.5-.3.4-.1.8-.2 1.2-.2.3 0 .6-.1.9-.1h.5c.2 0 .3.1.5.1.2.1.3.1.4.2.1.1.3.2.4.3.1.1.2.3.3.4s.2.3.2.5c.1.2.1.3.1.5V127.1c0 .4.1.8.2 1.2.1.3.3.6.5.9.2.2.5.4.8.5s.7.2 1 .2h.4c.1 0 .2 0 .4-.1.1 0 .2-.1.4-.2.1-.1.2-.1.3-.2l.3-.3c.1-.1.2-.2.4-.3.2-.2.5-.5.7-.9.3-.4.6-.8.9-1.1v-.1c.3-.3.6-.7.9-1l.1-.1.1-.1c.1-.1.3-.2.4-.3.1-.1.2-.1.2-.2l1.8-1.2c.9-.4 1.9-.8 2.9-1s2.2-.3 3.4-.3c.9 0 1.8.1 2.6.2s1.7.3 2.5.5 1.5.5 2.3.9c.7.4 1.4.8 2 1.2.4.3.9.7 1.2 1 .4.4.7.7 1 1.1s.6.8.8 1.2c.2.4.5.9.6 1.3.2.5.3 1 .5 1.6.1.6.3 1.2.4 1.9.1.7.2 1.4.3 2.2.1.8.1 1.6.2 2.6l.6 15.9c0 .3 0 .6.1.9 0 .3.1.5.1.8.1.2.1.5.2.7.1.2.2.4.2.6.1.2.2.3.4.6.2.2.4.5.6.8.2.3.5.6.8 1 .3.3.7.7 1.1 1.2.1.1.2.2.2.3.1.1.1.2.2.4 0 .1.1.3.1.4v.5c.1.6.1 1-.1 1.3zm33.4-25.8c-.2-.1-.5-.2-.7-.4.3.2.5.3.7.4zm.8.3c-.2-.1-.3-.1-.5-.2.1.1.3.2.5.2zm.7.2c-.1 0-.3-.1-.4-.1.2 0 .3 0 .4.1.1 0 0 0 0 0zm-3.2-17.1s.1 0 0 0h-.2.2zm-.5.1c.1 0 .1-.1 0 0 .1-.1.1-.1 0 0 0 0-.2 0-.3.1.2-.1.3-.1.3-.1zm-.4.1c-.1 0-.3.1-.5.2.1-.1.3-.2.5-.2zm-1.8.6c.1 0 .1 0 0 0 .1 0 .1 0 0 0 .1 0 0 0 0 0zm-.4.1s.1 0 0 0zm-.4.1c.1 0 .1 0 0 0 .1 0 .1 0 0 0 .1 0 .1 0 0 0zm-.4.1zm-.2 0zm-12-1s.1 0 0 0zm-1.9.4s.1 0 0 0h.2-.2zm-1.7.5s.1 0 0 0h.2c-.1-.1-.2 0-.2 0zm20.2 43.3c-.9.4-1.8.8-2.7 1.1-.9.3-1.9.5-2.9.7-1 .1-2.1.2-3.2.2h-1c-.4 0-.9-.1-1.4-.1s-1.1-.1-1.8-.2l-2.1-.3c-1.1-.1-2-.2-2.6-.3-.7-.1-1.1-.1-1.5-.2-.3 0-.5 0-.7-.1h-1.3c-.1 0-.3 0-.4.1-.2 0-.4.1-.6.1-.2 0-.3 0-.5.1h-.7c-.3 0-.6 0-.9-.1-.3 0-.5-.1-.8-.2-.2-.1-.5-.2-.7-.3-.2-.1-.4-.2-.6-.4-.2-.2-.5-.5-.7-.8l-.1-.1-.1-.1-.1-.1c-.1-.2-.2-.3-.4-.5-.1-.1-.1-.2-.2-.3 0-.1-.1-.1-.1-.2-.2-.2-.3-.5-.5-.8-.1-.1-.2-.3-.2-.4 0-.1-.1-.1-.1-.2-.1-.3-.3-.5-.4-.8-.1-.3-.2-.5-.4-.8-.3-.6-.5-1.1-.7-1.7-.2-.5-.3-1.1-.5-1.5-.1-.5-.2-1-.3-1.4s-.1-.9-.1-1.3c0-.8.1-1.4.2-1.9.2-.5.4-.8.6-1.1.3-.2.5-.4.8-.5s.6-.1.9-.1h.5c.2 0 .3.1.5.1.2.1.3.1.5.2s.3.2.5.3c.2.1.4.3.7.6.3.3.6.6 1 .9.4.4.8.8 1.2 1.3.5.5 1 1 1.5 1.6.3.3.6.7.9.9l.8.8c.3.2.5.4.8.6.2.2.5.3.7.5.2.1.5.3.7.4s.5.2.7.3c.2.1.5.1.8.2.3 0 .5.1.8.1s.6 0 .8-.1c.3 0 .5-.1.7-.2s.5-.2.7-.3c.2-.1.4-.3.6-.4l.5-.5c.1-.2.3-.4.4-.6.1-.2.2-.4.2-.6 0-.2.1-.5.1-.7 0-.4-.1-.8-.2-1.2-.2-.4-.4-.8-.7-1.1-.3-.4-.7-.7-1.2-1s-1-.7-1.7-1c-.5-.3-1.1-.5-1.6-.8-.1 0-.1-.1-.2-.1-.5-.3-1-.5-1.4-.8 0 0-.1 0-.1-.1l-.1-.1c-.3-.2-.7-.4-1-.6-.6-.4-1.2-.7-1.7-1.1-.2-.2-.4-.3-.6-.5-.2-.2-.5-.4-.7-.6-.3-.2-.6-.5-.9-.7l-.1-.1c-.7-.6-1.3-1.2-1.8-1.8-.2-.3-.5-.6-.7-.9-.1-.1-.1-.2-.2-.3-.1-.2-.3-.4-.4-.6 0 0 0-.1-.1-.1-.1-.2-.2-.3-.3-.5-.1-.1-.1-.2-.2-.4-.1-.1-.1-.3-.2-.4-.1-.1-.1-.3-.2-.4-.1-.1-.1-.3-.2-.4 0-.1 0-.1-.1-.2-.1-.2-.1-.4-.2-.6 0-.1-.1-.3-.1-.4v-.2c-.1-.2-.1-.5-.2-.7v-.4c0-.2 0-.3-.1-.5-.1-.5-.1-.9-.1-1.4v-1.2c0-.3.1-.5.1-.7v-.5c0-.2.1-.4.1-.6 0-.1.1-.3.1-.4.1-.2.1-.4.2-.7 0-.1.1-.3.1-.4 0-.1 0-.2.1-.2 0-.1 0-.1.1-.2.1-.2.1-.3.2-.5.2-.5.4-1 .7-1.5.1-.1.1-.2.2-.3.1-.2.3-.4.4-.7.2-.3.5-.6.7-1 .4-.4.7-.8 1.1-1.2.4-.4.9-.8 1.3-1.1.1 0 .1-.1.2-.1.3-.2.7-.5 1-.7.1-.1.2-.1.3-.2.4-.2.9-.5 1.3-.7.1 0 .1 0 .2-.1h.1c1-.4 2-.7 3-.9 1.2-.2 2.4-.3 3.7-.3.4 0 .8 0 1.3.1.5 0 1 .1 1.6.2s1.3.2 2 .3c.7.1 1.5.3 2.3.4.2 0 .4.1.5.1.2 0 .3 0 .5.1H526.4c.2 0 .4-.1.6-.1.2-.1.6-.1.9-.3.4-.1.8-.3 1.3-.5.2-.1.3-.1.4-.2.1 0 .3-.1.4-.1.1 0 .2-.1.4-.1h.3c.3 0 .6 0 .9.2.3.1.6.3.9.5.3.2.6.5.9.8.3.3.6.7 1 1.1.3.3.5.7.8 1.1s.5.7.7 1.1l.6 1.2.6 1.2c.2.4.3.8.4 1.2.1.4.2.7.3 1.1.1.3.2.7.2 1s.1.6.1.9 0 .5-.1.7c0 .2-.1.5-.2.7l-.3.6c-.1.2-.3.4-.5.5-.2.2-.4.3-.6.5l-.6.3c-.2.1-.5.1-.7.2-.2 0-.5.1-.8.1h-.7c-.2 0-.4-.1-.6-.1-.2-.1-.4-.1-.6-.2l-.6-.3c-.2-.1-.4-.3-.7-.5s-.6-.4-.9-.7c-.3-.3-.7-.6-1.1-.9-.4-.4-.8-.7-1.3-1.2s-1-.9-1.5-1.3-.9-.7-1.4-.9c-.4-.2-.9-.4-1.2-.6-.1 0-.3-.1-.4-.1-.1 0-.2 0-.3-.1h-.4c-.3 0-.5 0-.7.1-.2 0-.5.1-.7.2l-.6.3c-.2.1-.4.3-.6.5-.2.2-.3.4-.5.6-.1.2-.3.4-.4.6-.1.2-.2.5-.2.7s-.1.5-.1.7c0 .4.1.9.3 1.3s.5.8.9 1.2c.4.4.9.8 1.4 1.2.6.4 1.3.7 2 1.1 1.3.6 2.4 1.1 3.5 1.7s2.1 1.2 3.1 1.8c1 .6 1.9 1.2 2.7 1.9.8.6 1.6 1.3 2.2 2 .5.5 1 1.1 1.4 1.7s.7 1.2 1 1.9c.3.7.5 1.4.6 2.1s.2 1.5.2 2.3c0 1-.1 2-.3 2.9s-.5 1.8-1 2.6c-.4.8-1 1.6-1.6 2.4-.7.7-1.4 1.5-2.3 2.1.1.4-.7.9-1.6 1.4z">
        </path>
        <path
            d="M134.6 137.7c.1.2.2.3.4.4.1.1.3.2.5.3.2.1.4.2.6.2.2.1.5.1.7.1H142.2c.6 0 1.1-.1 1.5-.2s.8-.4 1.1-.6c.1-.1.2-.2.2-.3l.2-.2c.1-.2.2-.3.3-.5v-.1c.1-.4.2-.8.2-1.3 0-.4 0-.9-.1-1.3l-.3-1.2c-.1-.4-.3-.7-.5-1s-.4-.6-.7-.9c-.3-.3-.5-.5-.9-.8-.3-.2-.6-.4-1-.5-.3-.1-.7-.3-1.1-.3-.4-.1-.8-.1-1.2-.1-.5 0-.9 0-1.3.1s-.8.2-1.2.4c-.4.2-.7.4-1 .7-.3.3-.6.6-.9 1-.2.3-.5.7-.6 1-.2.3-.3.7-.5 1-.1.3-.2.7-.3 1-.1.3-.1.7-.1 1s0 .5.1.8c0 .2.1.5.2.7l.3.6zm8.3-3c0-.3.1-.5.2-.8s.2-.5.4-.8c.1-.1.2-.3.3-.4.2.3.3.5.4.8s.2.6.2.9c.1.3.1.7.1 1.1s0 .7-.1.9c-.1.3-.2.5-.4.6h-.2c-.1 0-.1 0-.2-.1-.1 0-.1 0-.1-.1-.1 0-.1-.1-.2-.1-.1-.1-.1-.2-.2-.3-.1-.1-.1-.2-.1-.3 0-.1 0-.2-.1-.3v-.3c-.1-.3 0-.6 0-.8zM187.6 149.9c0-.3-.1-.6-.2-.8l-.3-.6c-.1-.2-.3-.4-.4-.5-.2-.1-.4-.3-.6-.4s-.4-.2-.7-.2c-.3-.1-.5-.1-.8-.1-.4 0-.8 0-1.1.1h-.1c-.2 0-.3.1-.5.1-.1.1-.3.1-.4.2s-.3.1-.4.2c-.2.1-.3.2-.5.3-.1.1-.2.1-.3.2l-.6.6c-.3.3-.5.6-.7.9s-.4.7-.5 1c-.1.4-.2.7-.3 1.1-.1.4-.1.8-.1 1.2 0 .4 0 .8.1 1.1 0 .4.1.7.2 1 .1.3.2.6.4.9.1.3.3.6.5.8.2.3.4.5.7.7.1.1.2.2.4.3.1.1.3.2.4.2.1.1.3.1.4.2.1 0 .3.1.4.1.1 0 .3.1.4.1h1c.2 0 .3 0 .5-.1l.9-.3c.5-.3 1-.7 1.3-1.3.4-.6.6-1.3.8-2.1 0-.1 0-.2.1-.3.1-.8.2-1.6.2-2.6v-1.2c-.2-.1-.2-.5-.2-.8zm-1.5 5.2c-.1-.1-.2-.3-.3-.4-.1-.2-.2-.4-.3-.7-.1-.2-.1-.5-.2-.8v-.1c0-.3-.1-.5-.1-.8s0-.6.1-.9c0-.3.1-.6.2-.9s.2-.5.4-.8l.1-.1c0 .1.1.3.1.4 0 .2.1.5.1.9v1.3c.2 1.2.1 2.1-.1 2.9zM298.2 133.2c.1.2.2.4.4.6.1.2.3.3.5.4s.4.2.7.3h.2c.2.1.4.1.6.1.1 0 .1 0 .2.1.3.1.6.1.9.1h1.8c.2 0 .5 0 .7-.1.2 0 .5-.1.7-.1.2-.1.5-.1.7-.2s.4-.2.7-.3l.6-.3c.2-.1.4-.2.6-.4.2-.1.4-.3.6-.4.3-.2.5-.4.7-.7.2-.2.4-.5.6-.8.2-.3.4-.6.5-.9.2-.3.3-.7.4-1 .1-.2.2-.5.2-.8 0-.1.1-.3.1-.4.1-.4.2-.7.2-1.1v-.1c0-.3.1-.6.1-.9v-.4-1.4c0-1-.1-2-.2-2.9-.2-.9-.4-1.7-.7-2.5-.3-.8-.7-1.4-1.2-2s-1-1.1-1.6-1.6c-.4-.3-.8-.6-1.2-.8-.4-.2-.9-.4-1.4-.6s-1-.3-1.5-.3c-.5-.1-1-.1-1.6-.1h-1.6c-.1 0-.2 0-.2.1h-.2c-.1 0-.2.1-.3.1h-.1s-.1 0-.1.1c-.1 0-.1 0-.2.1-.2.1-.3.2-.5.3 0 0-.1 0-.1.1-.3.2-.5.5-.6.8 0 .1-.1.2-.1.3 0 .2-.1.4-.1.6v15.2c0 .4 0 .7.1 1 .6.3.7.6.7.8zm2.6-18.2h.3c-.1 0-.3 0-.4.1 0-.1 0-.1.1-.1zm-.9.2s.1 0 0 0-.1.1-.2.1c.1 0 .1-.1.2-.1zm-.7.8v-.2c.2 0 .4-.1.6-.1h.7c.4 0 .9 0 1.3.1l1.2.3c.4.1.8.3 1.1.5.3.2.7.4 1 .6.5.4.9.8 1.3 1.3s.7 1.1.9 1.7c.3.6.4 1.3.6 2.1.1.8.2 1.6.2 2.4v1.5c0 .3 0 .5-.1.8 0 .1-.1.3-.1.4 0 .2-.1.4-.1.6 0 .1-.1.3-.1.4-.1.2-.1.4-.2.6-.1.3-.2.6-.4.8-.1.3-.3.5-.4.8-.2.2-.3.5-.5.7l-.6.6c-.1.1-.3.2-.5.3-.2.1-.3.2-.5.3-.2.1-.3.2-.5.2-.2.1-.3.1-.5.2s-.4.1-.5.2c-.2 0-.4.1-.5.1-.2 0-.4 0-.6.1H301.1c-.3-.1-.5-.1-.7-.2s-.4-.2-.6-.2l-.1-.1c0-.1-.1-.2-.1-.3 0-.1-.1-.3-.1-.5v-16h-.3zM387.2 151.3v-.4-.2-.3-.2-.7-.2c0-.1 0-.1-.1-.2v-.1c0-.1 0-.1-.1-.2v-.1s0-.1-.1-.1c0-.1-.1-.2-.1-.2-.1-.2-.2-.3-.4-.5l-.1-.1c-.1-.1-.2-.2-.3-.2l-.1-.1h-.1c-.1-.1-.3-.1-.4-.1h-.2c-.2 0-.5-.1-.7-.1-.4 0-.8 0-1.1.1-.4.1-.7.2-1 .3-.3.2-.6.3-1 .6-.3.2-.6.5-.9.8-.3.3-.5.6-.7.9s-.4.7-.5 1c-.1.4-.2.7-.3 1.1-.1.4-.1.8-.1 1.2 0 .4 0 .8.1 1.1 0 .4.1.7.2 1s.2.6.4.9c.1.3.3.6.5.8.2.3.4.5.7.7.2.2.5.4.8.5l.9.3c.1 0 .3.1.4.1h.5c.7 0 1.3-.1 1.9-.4.1-.1.3-.1.4-.2.2-.2.5-.4.7-.6.1-.1.2-.2.3-.4.1-.1.2-.3.2-.4.1-.2.1-.3.2-.5 0-.1.1-.2.1-.3 0-.1.1-.3.1-.4s.1-.2.1-.3v-.1c0-.2.1-.5.1-.7v-.2c0-.2.1-.4.1-.7v-.3-1-.6c-.4-.1-.4-.2-.4-.3zm-7.1.8v.2c0 .2 0 .4-.1.6v.3c0 .2-.1.3-.1.5V153.6c0-.3 0-.7.1-1 0-.2.1-.5.2-.7-.1 0-.1.1-.1.2zM403.6 117.2c.2.4.5.8.9 1.1.3.3.7.7 1.2.9.3.2.7.4 1.1.6.4.2.8.3 1.2.4s.9.2 1.4.2c.5.1 1 .1 1.6.1H413.7c2.6-.2 5.2-.4 7.7-.6H420.6c.6 0 1.3-.1 1.9-.2 1.2-.1 2.4-.3 3.6-.6 1.1-.3 2.2-.6 3.3-1 1-.4 2-.9 3-1.4.6-.4 1.2-.8 1.7-1.2.5-.4.9-.9 1.2-1.4s.6-1 .7-1.6c.2-.6.2-1.2.2-1.8 0-.5-.1-.9-.2-1.3s-.3-.8-.5-1.2c-.2-.4-.5-.7-.8-1.1-.3-.3-.7-.6-1.1-.9-.4-.3-.9-.5-1.3-.7-.5-.2-1-.4-1.5-.5-.6-.1-1.1-.2-1.8-.3-.6-.1-1.3-.1-2-.1-.8 0-1.7 0-2.6.1l-2.1.3c.1 0 .2-.1.4-.1-1.3.2-2.7.5-4 .7s-2.5.5-3.8.7c-.1 0-.2 0-.4.1-.1 0-.2.1-.4.1-.1 0-.2.1-.4.1-.1 0-.2.1-.4.1-.3.1-.5.1-.8.2-.2.1-.4.1-.6.2h-.1-.1c-.3.1-.6.2-.8.3-.2.1-.3.1-.5.2h-.1-.1c-.1 0-.1 0-.2.1-.1 0-.2.1-.3.1s-.2.1-.3.1-.2.1-.3.1-.2.1-.3.1-.1.1-.2.1-.1.1-.2.1-.1.1-.2.1c0 0-.1 0-.1.1-.1 0-.2.1-.3.1s-.1.1-.2.1-.2.1-.3.1-.2.1-.2.1-.1 0-.1.1c-.1 0-.1.1-.2.1s-.1.1-.2.1l-.1.1-.1.1-.1.1h-.1-.1l-.1.1-.1.1-.1.1s-.1 0-.1.1l-.1.1-.1.1-.1.1-.1.1-.1.1-.1.1-.1.1-.1.1-.1.1s0 .1-.1.1l-.1.1s0 .1-.1.1c0 0 0 .1-.1.1 0 0 0 .1-.1.1 0 0 0 .1-.1.1 0 0 0 .1-.1.1 0 0 0 .1-.1.1 0 0 0 .1-.1.1 0 0 0 .1-.1.1v.1s0 .1-.1.1c0 0 0 .1-.1.1v.1s0 .1-.1.1V114.1c0 .5.1 1 .2 1.5-.5.7-.4 1.2-.1 1.6zm16.3 2.7h-1.4c.7 0 1.3 0 1.9-.1-.1.1-.3.1-.5.1zm1-14.7c.1 0 .2 0 .3-.1-.2 0-.4.1-.6.1.1.1.2 0 .3 0zm-1.7.4c.2 0 .3 0 .4-.1-.2.1-.4.1-.6.2.1 0 .2 0 .2-.1zm-1.6.6c.1 0 .1 0 .2-.1.1 0 .2-.1.3-.1-.2.1-.4.1-.5.2-.1 0-.1 0 0 0zm-6.2 6.4c.1-.3.1-.5.2-.8 0-.1.1-.1.1-.2.1-.3.3-.5.4-.7.1-.2.3-.4.4-.5.2-.2.5-.4.7-.7.1-.1.3-.2.4-.3.2-.1.3-.2.5-.3.3-.2.7-.4 1-.6.4-.2.8-.4 1.2-.5l1.5-.6c.1 0 .1 0 .2-.1.3-.1.7-.2 1-.3.9-.3 1.8-.5 2.6-.7.9-.2 1.7-.3 2.5-.4s1.6-.1 2.4-.1c.6 0 1.2 0 1.8.1s1.1.1 1.6.3c.5.1 1 .3 1.4.4l1.2.6c.3.2.6.4.9.7.2.2.5.5.6.8.2.3.3.6.4.9.1.3.1.7.1 1 0 .5-.1 1-.2 1.5s-.3.9-.6 1.3-.6.8-1 1.2c-.4.4-.9.7-1.4 1-.9.5-1.8 1-2.8 1.3-1 .4-2 .7-3.1 1l-1.5.3-1.8.3H421.8c-1.1.1-2.3.2-3.5.2h-1.5c-.5 0-.9-.1-1.3-.2s-.8-.2-1.1-.4c-.4-.1-.7-.3-1-.5-.4-.2-.7-.5-1-.8s-.5-.6-.7-.9-.3-.7-.4-1.1c-.1-.4-.1-.8-.1-1.2.1-.4.1-.7.2-1z">
        </path>
    </g>
    <g>
        <path fill="#EFE6CB"
            d="M35.3 104.5c1 0 1.9 0 2.9.1.9.1 1.9.2 2.8.3.9.1 1.8.3 2.7.5s1.8.4 2.6.7c.4.1.8.3 1.1.4s.7.2.9.2c.3.1.5.1.8.1.2 0 .4.1.6.1h.4c.2 0 .4-.1.7-.1.3-.1.7-.2 1.1-.3.5-.1 1-.3 1.7-.6.1 0 .3-.1.4-.1.1 0 .3-.1.4-.1.1 0 .3 0 .4-.1h.4c.4 0 .7.1 1.1.2.4.1.7.3 1.1.5.4.2.7.5 1.1.9.4.3.7.7 1.1 1.2.6.8 1.1 1.6 1.6 2.4.4.8.8 1.6 1.1 2.5.3.8.5 1.7.7 2.6s.2 1.8.2 2.7c0 .6 0 1.2-.1 1.7s-.2 1.1-.3 1.6c-.2.5-.3 1-.6 1.4-.2.4-.5.8-.8 1.2-.3.4-.6.7-1 1-.3.3-.7.5-1.1.7-.4.2-.8.3-1.2.4s-.9.1-1.4.1c-.4 0-.8 0-1.2-.1l-1.2-.3c-.4-.1-.8-.3-1.2-.6-.4-.2-.8-.5-1.2-.8-.1-.1-.2-.2-.4-.3l-.7-.7c-.3-.3-.6-.7-1.1-1.2-.4-.5-.9-1.1-1.5-1.9-.9-1.1-1.8-2-2.7-2.8s-1.9-1.5-2.9-2-2-.9-3.1-1.2c-1.1-.3-2.2-.4-3.3-.4-1 0-2 .1-2.9.3-.9.2-1.8.5-2.6.9s-1.6.9-2.3 1.4c-.7.6-1.4 1.2-2 2-.6.7-1.1 1.5-1.6 2.4-.4.9-.8 1.8-1.1 2.8s-.5 2.1-.7 3.2-.2 2.3-.2 3.6c0 1.8.1 3.6.4 5.3.2 1.7.6 3.3 1.1 4.9s1.1 3.1 1.8 4.5 1.5 2.8 2.5 4.1c.4.5.7.9 1.1 1.4l1.2 1.2c.4.4.9.7 1.3 1.1.5.3.9.6 1.4.9s1 .5 1.5.8c.5.2 1 .4 1.5.5s1 .3 1.5.3c.5.1 1 .1 1.5.1.4 0 .9 0 1.2-.1.4-.1.8-.2 1.1-.3.4-.1.7-.3 1-.6.3-.2.6-.5.9-.8.3-.3.5-.6.7-.9s.4-.7.5-1.1l.3-1.2c.1-.4.1-.8.1-1.3 0-.4 0-.8-.1-1.2-.1-.4-.2-.7-.3-1s-.3-.6-.5-.8c-.2-.2-.4-.5-.7-.6-.1-.1-.2-.1-.3-.2s-.2-.1-.3-.2c-.1 0-.2-.1-.3-.1s-.2-.1-.3-.1h-2.7c-.3 0-.6 0-.8-.1-.3 0-.5-.1-.7-.2s-.5-.2-.7-.3c-.2-.1-.4-.3-.6-.5-.2-.2-.3-.4-.5-.6-.1-.2-.3-.4-.3-.6-.1-.2-.2-.5-.2-.7s-.1-.5-.1-.8c0-.5.1-1.1.3-1.5.2-.5.5-.9.8-1.3.4-.4.8-.7 1.4-1.1.6-.3 1.2-.6 2-.8.9-.3 1.8-.5 2.8-.7s2-.4 3-.5 2.1-.2 3.2-.3c1.1-.1 2.2-.1 3.4-.1 1.3 0 2.5 0 3.6.1 1.2.1 2.3.2 3.3.3 1.1.1 2.1.3 3 .5 1 .2 1.9.4 2.7.7.8.2 1.4.5 2 .8s1 .7 1.4 1.1.6.9.8 1.4.3 1.1.3 1.7c0 .2 0 .4-.1.7 0 .2-.1.4-.2.6l-.3.6c-.1.2-.3.4-.4.5l-.5.5c-.2.1-.4.3-.6.4-.2.1-.4.2-.7.3-.2.1-.5.1-.8.2-.3 0-.6.1-.8.2s-.5.1-.7.2-.4.2-.5.2c-.2.1-.3.2-.4.3-.1.1-.1.1-.2.3-.1.1-.2.3-.3.5s-.2.4-.3.8c-.1.3-.2.7-.3 1.1-.3 1.2-.7 2.3-1.2 3.3-.5 1.1-1 2.1-1.6 3.1s-1.3 1.9-2.1 2.8-1.6 1.7-2.5 2.5c-.6.5-1.3 1-2 1.5s-1.4.9-2.2 1.4l-2.4 1.2c-.8.4-1.7.7-2.6 1-.9.3-1.8.6-2.7.8-.9.2-1.9.4-2.8.6-.9.2-1.9.3-2.9.3-1 .1-1.9.1-2.9.1-1.6 0-3.2-.1-4.8-.3-1.6-.2-3.1-.5-4.6-.8-1.5-.4-2.9-.8-4.4-1.4-1.4-.6-2.8-1.2-4.2-2s-2.7-1.6-3.9-2.5-2.4-1.9-3.4-3c-1.1-1.1-2-2.2-2.9-3.4-.9-1.2-1.7-2.5-2.4-3.9-.6-1.1-1.1-2.3-1.6-3.5s-.8-2.4-1.1-3.6-.5-2.5-.7-3.8-.2-2.6-.2-3.9.1-2.6.3-3.9.5-2.6.8-3.9c.4-1.3.8-2.5 1.4-3.8.5-1.2 1.2-2.5 1.9-3.6.8-1.3 1.6-2.5 2.5-3.6s1.9-2.2 3-3.2 2.2-1.9 3.5-2.8c1.2-.9 2.5-1.6 3.9-2.3 1.2-.6 2.4-1.2 3.7-1.6 1.3-.5 2.6-.9 4-1.2 1.4-.3 2.8-.5 4.3-.7 2.2-.8 3.7-.9 5.2-.9zM91.8 122.7c.5 0 .9 0 1.2.1.3 0 .6.1.7.1.2.1.3.1.4.1.1 0 .1.1.1.1s.1.1.1.2c.1.1.1.3.2.6s.2.7.2 1.2c.1.5.2 1.2.3 2 .1.5.2 1 .3 1.3s.3.6.5.8c.2.2.4.3.6.4.2.1.4.1.6.1.2 0 .4 0 .6-.1l.6-.3c.2-.1.4-.3.5-.5.2-.2.3-.4.5-.7.6-.9 1.2-1.7 1.8-2.4.7-.7 1.3-1.2 2.1-1.7.7-.4 1.5-.8 2.3-1s1.7-.3 2.6-.3c.6 0 1.3.1 1.8.2.6.1 1.1.3 1.7.5.5.2 1 .5 1.5.8s.9.7 1.3 1.1c.2.2.4.4.6.7s.3.5.5.7c.2.3.3.5.5.8.1.3.3.6.4.9.1.3.2.6.3 1 .1.3.2.6.2.9.1.3.1.6.1.9v.9c0 .3 0 .7-.1 1 0 .3-.1.7-.2 1-.1.3-.2.7-.3 1s-.3.7-.4 1c-.2.3-.3.7-.5 1l-.6.9c-.2.3-.4.6-.6.8-.2.3-.5.5-.7.7-.5.4-.9.8-1.4 1.1-.5.3-1 .6-1.6.8-.6.2-1.1.4-1.7.5-.6.1-1.2.2-1.9.2h-1c-.3 0-.6-.1-.9-.1-.3-.1-.6-.1-.8-.2-.3-.1-.5-.2-.8-.3-.2-.1-.5-.3-.8-.5s-.6-.4-.9-.7c-.3-.3-.7-.6-1-.9-.4-.3-.8-.7-1.2-1.1-.2-.2-.4-.4-.6-.5-.2-.1-.4-.3-.6-.4-.2-.1-.4-.2-.5-.2-.2 0-.4-.1-.5-.1-.3 0-.5 0-.8.1-.2.1-.5.2-.7.4-.2.2-.4.4-.5.6s-.3.5-.3.8c-.1.3-.1.6-.2 1s-.1.8-.1 1.3-.1 1.1-.1 1.7V148.3c0 1 .1 1.8.1 2.6s.1 1.5.2 2.1c.1.6.1 1.1.2 1.6.1.3.1.5.2.7.1.2.2.4.2.6.1.2.2.3.3.5.1.1.2.3.3.4s.3.2.4.3l.6.3c.2.1.5.2.7.3l.9.3c.6.2 1.1.4 1.6.6s.8.5 1.1.8.5.6.7 1c.1.4.2.8.2 1.2 0 .3 0 .5-.1.8 0 .2-.1.5-.2.7-.1.2-.2.5-.4.7-.1.2-.3.4-.5.6l-.6.6c-.2.2-.5.3-.7.5-.3.1-.5.3-.8.4l-.9.3c-.7.1-1.5.3-2.4.4s-1.9.2-2.9.3c-1.1.1-2.2.1-3.4.2-1.2 0-2.5.1-3.9.1-1.3 0-2.5 0-3.7-.1s-2.2-.1-3.2-.3c-1-.1-1.9-.3-2.8-.4s-1.6-.4-2.3-.6c-.6-.2-1-.4-1.4-.7-.4-.2-.7-.5-1-.8s-.5-.7-.6-1c-.1-.4-.2-.8-.2-1.2 0-.3 0-.7.1-1s.2-.6.4-.9.5-.6.8-.9.7-.6 1.1-.9c.2-.2.5-.3.7-.5.2-.1.4-.3.5-.4.2-.1.3-.3.4-.4.1-.1.2-.3.3-.4s.2-.3.3-.4c.1-.2.2-.3.2-.5.1-.2.1-.4.2-.6 0-.2.1-.4.1-.6.1-.7.2-1.5.3-2.5s.2-2.1.2-3.4c.1-1.3.1-2.7.1-4.3v-5.1-1c0-.3-.1-.6-.1-.9s-.1-.5-.2-.7c-.1-.2-.1-.4-.2-.6-.1-.2-.2-.4-.3-.5-.1-.2-.3-.3-.5-.5-.2-.1-.4-.3-.6-.4s-.5-.2-.7-.3c-.5-.2-.9-.4-1.2-.6-.4-.2-.6-.5-.9-.7-.2-.3-.4-.5-.5-.8s-.2-.6-.2-.9 0-.6.1-.9.2-.6.4-.8c.2-.3.4-.5.6-.8.2-.2.5-.5.9-.7s.8-.5 1.2-.7c.5-.3 1-.5 1.6-.8.6-.2 1.3-.5 2-.8s1.5-.5 2.4-.8l3.3-.9c1.1-.3 2.1-.5 3-.6 1-.2 1.9-.3 2.8-.4 1.3-.4 2.1-.4 2.9-.5zM159.4 132.8l.9 1.8c.3.6.5 1.2.6 1.8.2.6.3 1.2.4 1.8.1.6.1 1.2.1 1.7s0 .9-.1 1.3-.1.8-.2 1.2c-.1.4-.2.7-.4 1.1-.1.3-.3.6-.5.9s-.4.5-.5.7c-.2.2-.4.4-.6.5s-.4.2-.7.3c-.2.1-.5.1-.8.1h-21.2c-.3 0-.6 0-.9.1s-.5.2-.6.4c-.2.2-.3.4-.4.6s-.1.5-.1.8c0 .5.1 1.1.2 1.6s.4 1 .6 1.5c.3.5.6 1 1.1 1.5.4.5.9 1 1.5 1.4.6.5 1.1.9 1.7 1.2l1.8.9c.6.2 1.2.4 1.8.5.6.1 1.3.2 1.9.2.4 0 .8 0 1.2-.1.4 0 .8-.1 1.2-.2.4-.1.8-.2 1.3-.3.4-.1.9-.2 1.3-.4.5-.1.9-.3 1.3-.5s.8-.3 1.2-.5c.4-.2.7-.4 1.1-.6.3-.2.7-.4 1-.6s.5-.4.8-.5l.6-.3c.2-.1.3-.1.4-.1h.3c.1 0 .3 0 .4.1s.3.1.4.2c.2.1.3.2.5.4l.5.5c.2.2.3.4.4.6l.3.6c.1.2.1.4.2.6 0 .2.1.4.1.7 0 .5-.1 1-.2 1.5-.2.5-.4 1-.7 1.5-.3.5-.7 1-1.2 1.4-.5.5-1 1-1.7 1.4-1.2.9-2.4 1.6-3.6 2.3-1.3.7-2.6 1.2-3.9 1.6-1.4.4-2.8.8-4.2 1-1.4.2-2.9.3-4.4.3s-3-.1-4.4-.3c-1.4-.2-2.8-.6-4.1-1-1.3-.4-2.5-1-3.7-1.7s-2.3-1.4-3.3-2.3c-.5-.4-1-.9-1.4-1.4-.5-.5-.9-1-1.3-1.5s-.8-1.1-1.2-1.7-.7-1.2-1.1-1.8c-.4-.8-.8-1.7-1.1-2.5-.3-.9-.6-1.7-.8-2.6s-.4-1.8-.5-2.7c-.1-.9-.2-1.8-.2-2.7 0-1.2.1-2.4.3-3.6s.5-2.3.8-3.4c.4-1.1.8-2.2 1.4-3.2.6-1 1.2-2.1 2-3 .6-.8 1.3-1.6 2.1-2.4.7-.7 1.5-1.4 2.3-2.1.8-.6 1.7-1.2 2.6-1.7s1.9-1 2.9-1.4c.7-.3 1.5-.6 2.3-.8l2.4-.6c.8-.2 1.6-.3 2.5-.4.8-.1 1.7-.1 2.6-.1 1.4 0 2.7.1 4 .3 1.3.2 2.5.5 3.7.9s2.3.9 3.4 1.5 2.1 1.3 3.1 2.1c.5.4 1 .8 1.4 1.2l1.3 1.3c.4.5.8 1 1.1 1.5.1.6.4 1.1.7 1.6zm-17.2 6c.6 0 1.1-.1 1.5-.2s.8-.4 1.1-.6c.3-.3.5-.6.7-1s.2-.9.2-1.4c0-.4 0-.9-.1-1.3l-.3-1.2c-.1-.4-.3-.7-.5-1s-.4-.6-.7-.9c-.3-.3-.5-.5-.9-.8-.3-.2-.6-.4-1-.5-.3-.1-.7-.3-1.1-.3-.4-.1-.8-.1-1.2-.1-.5 0-.9 0-1.3.1s-.8.2-1.2.4c-.4.2-.7.4-1 .7-.3.3-.6.6-.9 1-.2.3-.5.7-.6 1-.2.3-.3.7-.5 1-.1.3-.2.7-.3 1-.1.3-.1.7-.1 1s0 .5.1.8c0 .2.1.5.2.7s.2.4.3.5c.1.2.2.3.4.4.1.1.3.2.5.3.2.1.4.2.6.2.2.1.5.1.7.1h.9l4.5.1M209.8 156.4c.1 0 .2 0 .3.1.1 0 .2.1.3.2.1.1.2.2.2.4s.1.4.1.6c0 .3 0 .7-.1 1s-.2.7-.3 1c-.1.3-.3.7-.5 1.1s-.4.7-.7 1.1c-.3.4-.6.7-.9 1.1l-1 1c-.4.3-.7.6-1.1.9s-.8.6-1.3.8c-.5.3-1.1.6-1.6.8-.6.2-1.1.4-1.7.6s-1.1.3-1.7.4-1.2.1-1.7.1c-.7 0-1.5-.1-2.1-.2-.7-.1-1.3-.3-1.9-.6-.6-.2-1.1-.6-1.6-.9-.5-.4-1-.8-1.4-1.3l-.6-.6c-.2-.2-.4-.3-.6-.4l-.6-.3c-.2-.1-.4-.1-.6-.1s-.4 0-.6.1-.4.1-.7.2c-.2.1-.5.2-.7.4-.3.2-.5.3-.8.6-.7.5-1.5 1-2.2 1.4-.8.4-1.6.7-2.4 1s-1.7.5-2.5.6c-.9.1-1.8.2-2.7.2-.9 0-1.9 0-2.7-.2-.9-.1-1.7-.3-2.4-.5-.8-.2-1.5-.5-2.2-.8s-1.3-.7-1.9-1.1c-.4-.3-.7-.5-1.1-.8-.3-.3-.7-.6-1-1-.3-.3-.6-.7-.8-1.1-.3-.4-.5-.8-.7-1.2-.2-.4-.4-.9-.6-1.3s-.3-.9-.4-1.3-.2-.9-.2-1.3c-.1-.5-.1-.9-.1-1.4 0-.7.1-1.5.2-2.1.2-.7.4-1.4.7-2 .3-.7.7-1.3 1.1-1.9.5-.6 1-1.2 1.6-1.8 1-.9 2-1.7 3.2-2.4 1.2-.7 2.5-1.3 4-1.7 1.4-.5 3-.8 4.7-1.1 1.7-.2 3.5-.4 5.4-.4h1.3c.4 0 .7-.1 1-.1.3-.1.6-.1.8-.2.2-.1.4-.2.5-.3.2-.1.3-.3.4-.4l.3-.6c.1-.2.1-.5.2-.8 0-.3.1-.6.1-1 0-.8 0-1.6-.1-2.3 0-.7-.1-1.4-.2-2s-.2-1.1-.3-1.6c-.1-.5-.3-.9-.5-1.3s-.4-.8-.7-1.1c-.3-.3-.6-.6-.9-.8-.3-.2-.7-.4-1.1-.5s-.8-.2-1.2-.2c-.3 0-.5 0-.8.1-.2 0-.5.1-.7.2s-.5.2-.7.3c-.2.1-.4.3-.6.4s-.4.3-.6.5l-.7.7c-.2.3-.5.5-.7.9-.3.3-.5.7-.8 1-.6.9-1.3 1.7-1.9 2.4-.6.7-1.3 1.3-2 1.7-.7.5-1.3.8-2 1s-1.3.3-2 .3c-.3 0-.6 0-.9-.1-.3 0-.6-.1-.8-.2-.3-.1-.5-.2-.7-.4-.2-.1-.5-.3-.7-.5s-.4-.4-.5-.6c-.2-.2-.3-.4-.4-.7-.1-.2-.2-.5-.2-.8s-.1-.6-.1-.9 0-.6.1-1c.1-.3.2-.7.3-1 .1-.3.3-.7.5-1s.4-.7.7-1c.3-.3.6-.7.9-1s.7-.6 1.1-.9l1.2-.9c.4-.3.9-.6 1.4-.8 1.3-.7 2.7-1.3 4.1-1.9 1.4-.5 2.8-1 4.2-1.3 1.4-.4 2.8-.6 4.2-.8 1.4-.2 2.9-.3 4.3-.3 1.3 0 2.5.1 3.7.2 1.2.2 2.3.4 3.4.7 1.1.3 2.1.7 3.1 1.2s1.9 1 2.8 1.7c.5.3.9.7 1.3 1l1.1 1.1.9 1.2c.3.4.5.8.6 1.3.2.4.3.9.5 1.4.1.5.3 1.1.3 1.7.1.6.2 1.3.2 1.9s.1 1.4.1 2.2l-.1 6.7c0 1.2 0 2.3.1 3.3 0 1 .1 1.9.2 2.6.1.8.2 1.5.3 2 .1.6.3 1 .5 1.4.1.2.2.4.3.5.1.2.2.3.3.4l.3.3c.1.1.2.2.3.2.1 0 .1.1.2.1s.2.1.4.1c.2.1.4.1.6.2 0 .4.3.4.7.5zm-26.4 2.6c.7 0 1.3-.1 1.9-.4.5-.3 1-.7 1.3-1.3.4-.6.6-1.3.8-2.1.2-.8.3-1.8.3-2.9v-1.2c0-.4-.1-.7-.1-1s-.1-.6-.2-.8l-.3-.6c-.1-.2-.3-.4-.4-.5-.2-.1-.4-.3-.6-.4s-.4-.2-.7-.2c-.3-.1-.5-.1-.8-.1-.4 0-.8 0-1.1.1-.4.1-.7.2-1 .3-.3.2-.6.3-.9.6-.3.2-.6.5-.9.8s-.5.6-.7.9-.4.7-.5 1c-.1.4-.2.7-.3 1.1-.1.4-.1.8-.1 1.2 0 .4 0 .8.1 1.1 0 .4.1.7.2 1s.2.6.4.9c.1.3.3.6.5.8.2.3.4.5.7.7.2.2.5.4.8.5l.9.3c.1.1.4.2.7.2M236 111.6h.7c.1 0 .2 0 .2.1.1 0 .1.1.1.1s0 .1.1.1c0 .1.1.2.1.3 0 .1.1.3.1.5V120.4c0 .2.1.4.1.6.1.2.1.3.2.5.1.1.2.3.3.4.1.1.2.2.4.3.1.1.3.1.5.2.2 0 .4.1.6.1H249.4c.2 0 .4.1.5.1s.2.1.3.1c.1 0 .1.1.1.1s.1.1.1.2.1.2.1.4.1.4.1.6v4.7c0 .3-.1.5-.1.8 0 .2-.1.4-.2.5s-.1.2-.2.3l-.3.3c-.1.1-.2.1-.4.2s-.3.1-.5.1H239.4c-.2 0-.4.1-.6.1-.2.1-.3.1-.5.2-.1.1-.3.2-.4.3-.1.1-.2.2-.3.4-.1.1-.1.3-.2.5s-.1.4-.1.6v16c0 .5 0 1 .1 1.4s.2.9.3 1.3c.1.4.3.8.5 1.1.2.4.4.7.6 1 .3.3.5.6.8.9.3.2.6.5.9.6.3.2.7.3 1 .4.4.1.7.1 1.1.1.3 0 .7 0 1-.1l1.2-.3c.4-.1.9-.3 1.3-.5.5-.2.9-.5 1.5-.8.1-.1.2-.1.3-.1.1 0 .2-.1.3-.1.1 0 .2 0 .3-.1h.3c.1 0 .2 0 .4.1.1 0 .2.1.4.2.1.1.2.2.4.3.1.1.2.3.4.4l.3.6c.1.2.2.4.2.6.1.2.1.4.1.6s.1.4.1.7c0 .4-.1.8-.2 1.2-.1.4-.3.8-.5 1.2-.2.4-.5.8-.9 1.2l-1.2 1.2c-1 .9-2.1 1.7-3.3 2.3-1.2.7-2.4 1.2-3.6 1.7-1.3.4-2.6.8-4 1s-2.8.3-4.3.3c-1.2 0-2.3-.1-3.3-.2-1-.2-2-.4-3-.7-.9-.3-1.8-.7-2.6-1.2s-1.6-1.1-2.3-1.7c-.7-.6-1.3-1.3-1.8-2.1s-1-1.6-1.3-2.4c-.3-.9-.6-1.8-.8-2.7-.2-1-.3-2-.3-3v-20.9-.6c0-.2 0-.3-.1-.5 0-.1-.1-.3-.1-.4-.1-.1-.1-.2-.2-.3-.1-.1-.2-.1-.3-.2-.1-.1-.2-.1-.4-.1-.1 0-.3-.1-.5-.1H210.2c-.2 0-.3 0-.4-.1-.1 0-.1 0-.2-.1s0 0 0-.1c0 0 0-.1-.1-.2 0-.1-.1-.3-.1-.5v-2.8c0-.2 0-.3.1-.5 0-.1.1-.3.1-.4.1-.1.1-.2.2-.3l.3-.3 20.7-13c.1-.1.2-.1.3-.1.1 0 .2-.1.4-.1.1 0 .3 0 .4-.1h4.1v-.1zM320.6 108.2c1.6.9 3.1 1.8 4.3 2.9 1.2 1.1 2.2 2.3 3 3.6.8 1.3 1.4 2.8 1.8 4.4s.6 3.3.6 5.2c0 1.5-.1 2.9-.4 4.2-.3 1.3-.7 2.6-1.3 3.8-.6 1.2-1.3 2.3-2.1 3.4-.9 1-1.8 2-3 2.9-1.1.8-2.2 1.6-3.4 2.2-1.2.6-2.5 1.2-3.8 1.6s-2.7.7-4.1 1c-1.4.2-2.9.3-4.4.3h-1.3c-.4 0-.9 0-1.4-.1-.5 0-1-.1-1.5-.1s-1.1-.1-1.7-.1c-.3 0-.6 0-.9-.1h-1.5c-.3 0-.6 0-.8.1-.2.1-.4.2-.6.4-.2.2-.3.4-.4.7-.1.3-.1.6-.1.9l.3 7.7c0 .4 0 .8.1 1.1 0 .3.1.7.2 1s.2.6.3.8c.1.2.2.5.4.7.1.2.3.4.5.6s.4.4.7.6c.3.2.5.4.9.6.3.2.7.4 1.1.6s.8.5 1.1.7c.3.2.6.5.8.7.2.2.4.5.5.7s.2.5.2.7c0 .4-.1.8-.2 1.1-.2.4-.4.7-.7 1-.3.3-.7.6-1.2.9s-1.1.5-1.7.8c-.7.2-1.5.5-2.3.7-.9.2-1.8.3-2.8.5-1 .1-2.1.2-3.3.3-1.2.1-2.4.1-3.7.1-2.6 0-5-.1-7-.3-2-.2-3.7-.5-5-1-1.4-.4-2.4-1-3.1-1.6s-1-1.4-1-2.2v-.5c0-.2.1-.3.1-.4s.1-.3.2-.4.1-.2.2-.3l.3-.3c.2-.1.3-.2.6-.4s.6-.3.9-.6c.4-.2.8-.5 1.4-.7.3-.2.6-.3.8-.6.3-.2.5-.4.7-.7.2-.2.3-.5.5-.8l.3-.9c0-.3.1-.7.1-1.2s.1-1.2.1-2.1c0-.8.1-1.8.1-2.9s0-2.4.1-3.8v-23.8-2.2c0-.7-.1-1.2-.1-1.7-.1-.5-.1-.9-.2-1.3s-.2-.7-.3-.9c-.1-.2-.3-.5-.5-.7s-.5-.4-.8-.6-.7-.4-1.1-.5c-.4-.2-.9-.3-1.4-.5-.6-.2-1.1-.4-1.6-.6s-.8-.5-1.1-.8c-.3-.3-.5-.6-.7-.9-.1-.3-.2-.7-.2-1.1 0-.3 0-.5.1-.8.1-.2.1-.5.3-.7.1-.2.3-.4.4-.6.2-.2.4-.3.6-.5.3-.2.6-.3.9-.4s.7-.2 1.1-.3c.4-.1.8-.1 1.3-.2.4 0 .9-.1 1.4-.1h3.3c.6 0 1.2 0 2 .1h11.6c.2 0 .6 0 1.1-.1.5 0 1.1-.1 1.9-.2s1.7-.1 2.7-.2 2.2-.2 3.5-.3c.4 0 .9-.1 1.3-.1s.8-.1 1.2-.1h2.3c1.2 0 2.4.1 3.5.2s2.3.3 3.3.6c1.1.2 2.1.6 3.1.9.7.1 1.6.5 2.6 1zM308.1 133c.5-.4 1-.9 1.4-1.5s.7-1.2 1-1.9c.3-.7.5-1.5.6-2.4s.2-1.8.2-2.8-.1-2-.2-2.9c-.2-.9-.4-1.7-.7-2.5-.3-.8-.7-1.4-1.2-2s-1-1.1-1.6-1.6c-.4-.3-.8-.6-1.2-.8-.4-.2-.9-.4-1.4-.6s-1-.3-1.5-.3c-.5-.1-1-.1-1.6-.1-.8 0-1.5.1-2 .2s-.9.3-1.2.6c-.3.2-.5.5-.6.8s-.2.6-.2.8v15.4c0 .4 0 .7.1 1 0 .3.1.6.2.8.1.2.2.4.4.6.1.2.3.3.5.4s.5.2.8.3c.3.1.6.2.9.2.3.1.6.1.9.1h1c.5 0 1 0 1.5-.1s1-.2 1.4-.3c.5-.1.9-.3 1.3-.6.4-.2.8-.5 1.2-.8">
        </path>
        <path fill="#EFE6CB"
            d="M354.1 105.7c.3 0 .7 0 1 .1s.7.2 1 .5.5.6.7 1.1.3 1.2.3 2v.9c0 .4 0 .9-.1 1.4 0 .6-.1 1.2-.1 1.9-.1.7-.1 1.5-.2 2.4-.1 1.3-.2 2.7-.3 4-.1 1.3-.1 2.6-.2 3.8-.1 1.2-.1 2.5-.1 3.6 0 1.2-.1 2.3-.1 3.5v18.9c0 1.3 0 2.4.1 3.3 0 .9.1 1.7.1 2.3 0 .6.1 1 .1 1.3l.3.9c.1.3.3.5.5.8.2.2.5.5.8.7s.6.4 1 .6c.3.1.6.3.8.4l.6.3c.2.1.3.2.4.3l.2.2c.1.1.1.2.2.3.1.1.1.2.1.3 0 .1.1.2.1.4v.4c0 .2 0 .4-.1.6 0 .2-.1.4-.2.6l-.3.6c-.1.2-.2.4-.4.5l-.5.5c-.2.2-.4.3-.6.4s-.4.2-.7.3c-.2.1-.5.2-.8.3-.5.2-1.1.3-1.9.4-.7.1-1.5.2-2.4.3-.9.1-1.9.1-3 .2-1.1 0-2.3.1-3.5.1-1.4 0-2.8 0-4-.1s-2.3-.1-3.3-.2-1.9-.2-2.7-.4c-.8-.2-1.5-.3-2-.6-.2-.1-.5-.2-.7-.3-.2-.1-.4-.2-.6-.4-.2-.1-.4-.3-.6-.4l-.5-.5c-.2-.2-.3-.4-.4-.5-.1-.2-.2-.4-.3-.5-.1-.2-.1-.4-.2-.5 0-.2-.1-.4-.1-.6v-.4c0-.1 0-.2.1-.3 0-.1.1-.2.1-.3 0-.1.1-.2.2-.2l.2-.2c.1-.1.2-.2.4-.3.2-.1.4-.2.7-.3.3-.1.6-.3.9-.4.4-.2.7-.4.9-.6.3-.3.5-.6.7-1s.4-.9.5-1.4.3-1.1.3-1.7c.1-1 .2-2.1.3-3.3.1-1.2.2-2.5.2-3.9.1-1.4.1-2.9.1-4.5v-5.1-5.1c0-1.5-.1-2.9-.1-4.1-.1-1.2-.1-2.2-.2-3.1s-.2-1.6-.3-2.1c-.1-.6-.3-1.1-.5-1.6s-.4-1-.7-1.4c-.3-.4-.6-.8-1-1.2-.4-.4-.8-.7-1.3-1-.3-.2-.6-.3-.8-.5-.2-.2-.5-.3-.7-.5s-.4-.3-.5-.5l-.4-.4c-.1-.1-.2-.3-.3-.4-.1-.1-.1-.3-.2-.5 0-.2-.1-.3-.1-.5v-.6c0-.3 0-.6.1-.9l.3-.9c.2-.3.4-.5.6-.8s.5-.5.8-.8.7-.5 1.2-.8c.4-.3.9-.5 1.5-.7s1.2-.5 1.8-.7c.7-.2 1.4-.5 2.1-.7.5-.2 1.1-.3 1.7-.5s1.2-.3 1.9-.5c.7-.1 1.4-.3 2.1-.4s1.5-.3 2.3-.4 1.6-.3 2.3-.4c.7-.1 1.4-.2 2-.3.6-.1 1.1-.1 1.6-.2h1.8zM409.3 156.4c.1 0 .2 0 .3.1.1 0 .2.1.3.2s.2.2.2.4.1.4.1.6c0 .3 0 .7-.1 1s-.2.7-.3 1-.3.7-.5 1.1-.4.7-.7 1.1-.6.7-.9 1.1l-1 1c-.4.3-.7.6-1.1.9-.4.3-.8.6-1.3.8-.5.3-1.1.6-1.6.8-.6.2-1.1.4-1.7.6-.6.2-1.1.3-1.7.4-.6.1-1.2.1-1.7.1-.7 0-1.5-.1-2.1-.2-.7-.1-1.3-.3-1.9-.6-.6-.2-1.1-.6-1.6-.9-.5-.4-1-.8-1.4-1.3l-.6-.6c-.2-.2-.4-.3-.6-.4l-.6-.3c-.2-.1-.4-.1-.6-.1-.2 0-.4 0-.6.1-.2.1-.4.1-.7.2-.2.1-.5.2-.7.4-.3.2-.5.3-.8.6-.7.5-1.5 1-2.3 1.4s-1.6.7-2.4 1c-.8.3-1.7.5-2.6.6s-1.8.2-2.7.2c-1 0-1.9 0-2.7-.2-.9-.1-1.7-.3-2.4-.5-.8-.2-1.5-.5-2.2-.8s-1.3-.7-1.9-1.1c-.4-.3-.7-.5-1.1-.8-.3-.3-.7-.6-1-1-.3-.3-.6-.7-.8-1.1-.3-.4-.5-.8-.7-1.2-.2-.4-.4-.9-.6-1.3s-.3-.9-.4-1.3-.2-.9-.2-1.3c-.1-.5-.1-.9-.1-1.4 0-.7.1-1.5.2-2.2.2-.7.4-1.4.7-2 .3-.7.7-1.3 1.1-1.9.5-.6 1-1.2 1.6-1.8 1-.9 2-1.7 3.2-2.4 1.2-.7 2.5-1.3 4-1.7 1.4-.5 3-.8 4.7-1.1 1.7-.2 3.5-.4 5.4-.4h1.3c.4 0 .7-.1 1-.1.3-.1.6-.1.8-.2l.6-.3c.2-.1.3-.3.4-.4l.3-.6c.1-.2.1-.5.2-.8 0-.3.1-.6.1-1 0-.8 0-1.6-.1-2.3 0-.7-.1-1.4-.2-2-.1-.6-.2-1.1-.3-1.6s-.3-.9-.5-1.3-.4-.8-.7-1.1c-.3-.3-.6-.6-.9-.8-.3-.2-.7-.4-1.1-.5-.4-.1-.8-.2-1.2-.2-.3 0-.5 0-.8.1-.2 0-.5.1-.7.2s-.5.2-.7.3c-.2.1-.4.3-.6.4s-.4.3-.6.5l-.7.7c-.2.3-.5.5-.7.9-.3.3-.5.7-.8 1-.6.9-1.3 1.7-1.9 2.4-.6.7-1.3 1.3-2 1.7-.7.5-1.3.8-2 1s-1.3.3-2 .3c-.3 0-.6 0-.9-.1-.3 0-.6-.1-.8-.2-.3-.1-.5-.2-.7-.4-.2-.1-.5-.3-.7-.5s-.4-.4-.5-.6c-.2-.2-.3-.4-.4-.7-.1-.2-.2-.5-.2-.8-.1-.3-.1-.6-.1-.9s0-.6.1-1c.1-.3.2-.7.3-1 .1-.3.3-.7.5-1s.4-.7.7-1c.3-.3.6-.7.9-1s.7-.6 1.1-.9l1.2-.9c.4-.3.9-.6 1.4-.8 1.3-.7 2.7-1.3 4.1-1.9 1.4-.5 2.8-1 4.2-1.3 1.4-.4 2.8-.6 4.3-.8 1.4-.2 2.9-.3 4.3-.3 1.3 0 2.5.1 3.7.2 1.2.2 2.3.4 3.4.7 1.1.3 2.1.7 3.1 1.2s1.9 1 2.8 1.7c.5.3.9.7 1.3 1l1.1 1.1.9 1.2c.3.4.5.8.6 1.3.2.4.3.9.5 1.4.1.5.3 1.1.3 1.7.1.6.2 1.3.2 1.9s.1 1.4.1 2.2l-.1 6.8c0 1.2 0 2.3.1 3.3 0 1 .1 1.9.2 2.6.1.8.2 1.5.3 2 .1.6.3 1 .5 1.4.1.2.2.4.3.5.1.2.2.3.3.4l.3.3c.1.1.2.2.3.2s.1.1.2.1.2.1.4.1c.2.1.4.1.6.2.1.4.4.4.7.5zM383 159c.7 0 1.3-.1 1.9-.4.5-.3 1-.7 1.3-1.3.4-.6.6-1.3.8-2.1.2-.8.3-1.8.3-2.9v-1.2c0-.4-.1-.7-.1-1-.1-.3-.1-.6-.2-.8l-.3-.6c-.1-.2-.3-.4-.4-.5-.2-.1-.3-.3-.6-.4-.2-.1-.4-.2-.7-.2-.3-.1-.5-.1-.8-.1-.4 0-.8 0-1.1.1-.4.1-.7.2-1 .3-.3.2-.6.3-1 .6-.3.2-.6.5-.9.8-.3.3-.5.6-.7.9s-.4.7-.5 1c-.1.4-.2.7-.3 1.1-.1.4-.1.8-.1 1.2 0 .4 0 .8.1 1.1 0 .4.1.7.2 1s.2.6.4.9c.1.3.3.6.5.8.2.3.4.5.7.7.2.2.5.4.8.5l.9.3c.1.1.4.2.8.2M440 160.5c-.1.1-.2.3-.2.5-.1.2-.1.3-.2.5 0 .2-.1.4-.1.5v1.2c0 .1 0 .2.1.3 0 .1 0 .2.1.3-.4.5-1 1-1.8 1.4s-1.7.7-2.8 1-2.4.5-3.9.6-3.1.2-5 .2c-1.3 0-2.5 0-3.7-.1s-2.3-.1-3.3-.2-2-.2-2.9-.4c-.9-.2-1.7-.3-2.5-.5-.2-.1-.5-.1-.7-.2l-.6-.3c-.2-.1-.4-.2-.5-.4-.2-.1-.3-.3-.5-.5-.1-.2-.3-.3-.4-.5-.1-.2-.2-.3-.3-.5s-.1-.4-.1-.6-.1-.4-.1-.6v-.5c0-.1 0-.3.1-.4 0-.1.1-.2.1-.3 0-.1.1-.2.2-.3 0-.1.1-.2.2-.3.1-.1.3-.2.4-.4.2-.2.4-.4.7-.6s.6-.5 1-.8c.3-.2.5-.4.7-.7.2-.3.4-.5.6-.9.2-.3.4-.7.5-1 .1-.4.3-.8.4-1.2.1-.4.2-.9.3-1.4s.1-1.1.2-1.7c0-.6.1-1.2.1-1.9v-2.2-.9-1.2c0-.5 0-1-.1-1.6 0-.6-.1-1.2-.1-1.9s-.1-1.3-.1-1.9c0-.5-.1-1-.1-1.4s0-.7-.1-1c0-.3 0-.5-.1-.6-.1-.4-.2-.7-.3-1s-.3-.6-.6-.9c-.2-.3-.5-.5-.9-.8-.3-.2-.7-.4-1.1-.6-.4-.2-.8-.4-1.1-.6s-.6-.4-.8-.7c-.2-.3-.4-.5-.5-.8s-.1-.6-.1-.9c0-.4.1-.8.2-1.1.1-.4.3-.7.6-1s.6-.6 1-.8c.4-.3.9-.5 1.4-.7.8-.3 1.7-.6 2.6-.9l2.7-.9c.9-.3 1.8-.5 2.7-.8s1.9-.5 2.8-.7c1-.2 1.8-.4 2.7-.6.8-.2 1.6-.3 2.4-.4.7-.1 1.4-.2 2-.3.6-.1 1.2-.1 1.7-.1.2 0 .5 0 .7.1s.4.1.6.3c.2.2.3.4.4.7.1.3.2.7.2 1.1v27.8c0 .5.1.9.1 1.3.1.4.1.8.2 1.1l.3.9c.1.3.2.5.4.8s.3.5.5.8c.2.2.4.5.7.7s.5.5.9.7c.3.2.5.4.7.5.2.2.4.3.5.4l.3.3c.4.4.5.5.6.5zM413.6 117.5c-.4-.2-.7-.5-1-.8s-.5-.6-.7-.9-.3-.7-.4-1.1c-.1-.4-.1-.8-.1-1.2 0-.6.1-1.1.3-1.6s.5-1 1-1.5c.4-.5 1-.9 1.6-1.3s1.4-.8 2.3-1.1c.9-.4 1.8-.7 2.7-1s1.8-.5 2.6-.7c.9-.2 1.7-.3 2.5-.4s1.6-.1 2.4-.1c.6 0 1.2 0 1.8.1s1.1.1 1.6.3c.5.1 1 .3 1.4.4l1.2.6c.3.2.6.4.9.7.2.2.5.5.6.8.2.3.3.6.4.9.1.3.1.7.1 1 0 .5-.1 1-.2 1.5s-.3.9-.6 1.3-.6.8-1 1.2c-.4.4-.9.7-1.4 1-.9.5-1.8 1-2.8 1.4s-2 .7-3.1 1-2.2.5-3.4.6-2.4.2-3.7.2c-.5 0-1 0-1.5-.1-.5 0-.9-.1-1.3-.2s-.8-.2-1.1-.4c-.5-.3-.8-.4-1.1-.6zM480.2 122.7c.9 0 1.8.1 2.6.2s1.7.3 2.5.5 1.5.5 2.3.9c.7.4 1.4.8 2 1.2.4.3.9.7 1.2 1 .4.4.7.7 1 1.1s.6.8.8 1.2c.2.4.5.9.6 1.3.2.5.3 1 .5 1.6.1.6.3 1.2.4 1.9.1.7.2 1.4.3 2.2.1.8.1 1.6.2 2.6l.6 15.9c0 .3 0 .6.1.9 0 .3.1.5.1.8.1.2.1.5.2.7.1.2.2.4.2.6.1.2.2.3.4.6.2.2.4.5.6.8.2.3.5.6.8 1 .3.3.7.7 1.1 1.2.1.1.2.2.2.3.1.1.1.2.2.4 0 .1.1.3.1.4v.5c0 .4-.1.8-.2 1.2-.1.4-.3.7-.6 1s-.6.6-1 .8c-.4.2-.9.4-1.4.6-.6.2-1.3.4-2.1.5s-1.7.3-2.8.4c-1 .1-2.2.2-3.5.2s-2.7.1-4.2.1c-1 0-2 0-2.8-.1-.9 0-1.7-.1-2.4-.2s-1.4-.2-1.9-.3c-.6-.1-1.1-.3-1.5-.5s-.7-.3-1-.6c-.3-.2-.5-.4-.7-.7-.2-.3-.3-.5-.4-.8-.1-.3-.1-.6-.1-1v-.4-.3c0-.1 0-.1.1-.2 0 0 0-.1.1-.1 0 0 .1-.1.1-.2.1-.1.2-.2.3-.4.1-.2.3-.3.5-.6.2-.2.5-.5.8-.9.2-.2.4-.5.7-1 .2-.5.4-1.2.6-2.2.2-1 .4-2.2.5-3.8.1-1.6.2-3.6.2-6.1 0-1.1 0-2.1-.1-3s-.2-1.8-.3-2.6c-.1-.8-.3-1.5-.5-2.2s-.4-1.2-.7-1.8c-.2-.5-.5-.9-.8-1.2-.3-.3-.7-.6-1.1-.9-.4-.2-.9-.4-1.4-.5s-1-.2-1.6-.2-1.1 0-1.6.1-.9.2-1.3.4-.7.4-1.1.7c-.3.3-.6.6-.8 1s-.4.8-.5 1.2c-.2.5-.3 1-.4 1.6-.1.6-.2 1.3-.2 2-.1.7-.1 1.6-.1 2.5v10.3c0 .4 0 .8.1 1.1 0 .3.1.6.1.9s.1.5.2.6c.1.2.2.4.3.7.1.3.3.5.5.9.2.3.4.7.7 1.1s.5.9.9 1.3c.1.1.1.2.2.3.1.1.1.2.1.4 0 .1.1.3.1.4v.4c0 .4-.1.7-.2 1-.1.3-.3.6-.6.9s-.6.5-1 .8c-.4.2-.9.4-1.4.6-.6.2-1.3.4-2.1.5-.8.2-1.6.3-2.6.4s-2 .2-3.1.2c-1.1.1-2.3.1-3.6.1-2 0-3.7-.1-5.2-.3-1.5-.2-2.7-.5-3.7-.9s-1.7-.9-2.2-1.4c-.5-.6-.8-1.2-.8-2v-.4c0-.1 0-.2.1-.4 0-.1.1-.2.1-.3 0-.1.1-.2.1-.2s.1-.1.1-.2l.3-.3c.1-.1.3-.3.5-.4.2-.2.4-.3.7-.6.2-.2.4-.3.6-.5.2-.2.4-.4.5-.6s.3-.4.4-.6l.3-.6c.1-.2.1-.5.2-.8.1-.3.1-.7.2-1.2 0-.5.1-1 .1-1.6s.1-1.3.1-2c.1-.9.1-1.7.1-2.6s.1-1.8.1-2.7c0-.9 0-1.8.1-2.7v-2.8-1.5c0-.5-.1-.9-.1-1.2 0-.4-.1-.7-.2-.9-.1-.3-.1-.5-.2-.7-.1-.2-.2-.4-.4-.6l-.6-.6c-.2-.2-.5-.4-.9-.7-.3-.2-.7-.5-1.1-.7-.3-.2-.5-.4-.7-.5-.2-.2-.4-.4-.5-.6l-.3-.6c-.1-.2-.1-.4-.1-.7 0-.2 0-.5.1-.7s.1-.4.2-.6c.1-.2.2-.4.4-.6s.4-.4.6-.5c.3-.2.6-.4 1-.6s.9-.4 1.4-.7c.5-.2 1.1-.5 1.8-.8s1.4-.5 2.2-.8c.7-.3 1.4-.5 2.1-.7.7-.2 1.4-.5 2.1-.7l2.1-.6c.7-.2 1.4-.4 2-.6.7-.2 1.3-.3 1.8-.5.6-.1 1.1-.2 1.5-.3.4-.1.8-.2 1.2-.2.3 0 .6-.1.9-.1h.5c.2 0 .3.1.5.1.2.1.3.1.4.2.1.1.3.2.4.3.1.1.2.3.3.4s.2.3.2.5c.1.2.1.3.1.5V126.8c0 .4.1.8.2 1.2.1.3.3.6.5.9.2.2.5.4.8.5s.7.2 1 .2c.2 0 .5 0 .7-.1s.5-.2.7-.4c.2-.2.5-.4.7-.6s.5-.5.7-.9c.6-.9 1.3-1.7 2.1-2.3.8-.7 1.6-1.2 2.5-1.7.9-.4 1.9-.8 2.9-1 1.1.2 2.2.1 3.4.1zM531.4 122.4c.3 0 .6 0 .9.2.3.1.6.3.9.5.3.2.6.5.9.8.3.3.6.7 1 1.1.3.3.5.7.8 1.1s.5.7.7 1.1l.6 1.2.6 1.2c.2.4.3.8.4 1.2.1.4.2.7.3 1.1.1.3.2.7.2 1s.1.6.1.9 0 .5-.1.7c0 .2-.1.5-.2.7l-.3.6c-.1.2-.3.4-.5.5-.2.2-.4.3-.6.5l-.6.3c-.2.1-.5.1-.7.2-.2 0-.5.1-.8.1h-.7c-.2 0-.4-.1-.6-.1-.2-.1-.4-.1-.6-.2l-.6-.3c-.2-.1-.4-.3-.7-.5s-.6-.4-.9-.7c-.3-.3-.7-.6-1.1-.9-.4-.4-.8-.7-1.3-1.2s-1-.9-1.5-1.3-.9-.7-1.4-.9c-.4-.2-.9-.4-1.2-.6-.4-.1-.8-.2-1.1-.2s-.5 0-.7.1c-.2 0-.5.1-.7.2l-.6.3c-.2.1-.4.3-.6.5-.2.2-.3.4-.5.6-.1.2-.3.4-.4.6-.1.2-.2.5-.2.7s-.1.5-.1.7c0 .4.1.9.3 1.3s.5.8.9 1.2c.4.4.9.8 1.4 1.2.6.4 1.3.7 2 1.1 1.3.6 2.4 1.1 3.5 1.7s2.1 1.2 3.1 1.8c1 .6 1.9 1.2 2.7 1.9.8.6 1.6 1.3 2.2 2 .5.5 1 1.1 1.4 1.7s.7 1.2 1 1.9c.3.7.5 1.4.6 2.1s.2 1.5.2 2.3c0 1-.1 2-.3 2.9s-.5 1.8-1 2.6c-.4.8-1 1.6-1.6 2.4-.7.7-1.4 1.5-2.3 2.1-.8.6-1.6 1.1-2.4 1.5-.9.4-1.8.8-2.7 1.1-.9.3-1.9.5-2.9.7-1 .1-2.1.2-3.2.2h-1c-.4 0-.9-.1-1.4-.1s-1.1-.1-1.8-.2l-2.1-.3c-1.1-.1-2-.2-2.6-.3-.7-.1-1.1-.1-1.5-.2-.3 0-.5 0-.7-.1H510c-.1 0-.3 0-.4.1-.2 0-.4.1-.6.1-.2 0-.3 0-.5.1h-.7c-.3 0-.6 0-.9-.1-.3 0-.5-.1-.8-.2-.2-.1-.5-.2-.7-.3-.2-.1-.4-.2-.6-.4l-.9-.9c-.3-.3-.6-.7-.8-1.1-.3-.4-.5-.9-.8-1.4s-.5-1-.8-1.6-.5-1.1-.7-1.7c-.2-.5-.3-1.1-.5-1.5-.1-.5-.2-1-.3-1.4s-.1-.9-.1-1.3c0-.8.1-1.4.2-1.9.2-.5.4-.8.6-1.1.3-.2.5-.4.8-.5s.6-.1.9-.1h.5c.2 0 .3.1.5.1.2.1.3.1.5.2s.3.2.5.3c.2.1.4.3.7.6.3.3.6.6 1 .9.4.4.8.8 1.2 1.3.5.5 1 1 1.5 1.6.3.3.6.7.9.9l.8.8c.3.2.5.4.8.6.2.2.5.3.7.5.2.1.5.3.7.4s.5.2.7.3c.2.1.5.1.8.2.3 0 .5.1.8.1s.6 0 .8-.1c.3 0 .5-.1.7-.2s.5-.2.7-.3c.2-.1.4-.3.6-.4l.5-.5c.1-.2.3-.4.4-.6.1-.2.2-.4.2-.7 0-.2.1-.5.1-.8 0-.4-.1-.8-.2-1.2-.2-.4-.4-.8-.7-1.1-.3-.4-.7-.7-1.2-1s-1-.7-1.7-1c-1.2-.6-2.3-1.2-3.3-1.8-1-.6-2-1.2-2.8-1.8-.9-.6-1.6-1.2-2.3-1.8-.7-.6-1.3-1.2-1.8-1.8-.5-.6-1-1.2-1.3-1.9-.4-.7-.7-1.3-1-2s-.5-1.4-.6-2.2c-.1-.7-.2-1.5-.2-2.3 0-.9.1-1.7.2-2.5s.3-1.6.6-2.3c.3-.7.6-1.5 1-2.1.4-.7.9-1.3 1.4-1.9.7-.9 1.6-1.7 2.5-2.3.9-.7 1.9-1.2 2.9-1.7 1-.4 2.1-.8 3.3-1s2.4-.3 3.7-.3c.4 0 .8 0 1.3.1.5 0 1 .1 1.6.2s1.3.2 2 .3c.7.1 1.5.3 2.3.4.2 0 .4.1.5.1.2 0 .3 0 .5.1H526.9c.2 0 .4-.1.6-.1.2-.1.6-.1.9-.3.4-.1.8-.3 1.3-.5.2-.1.3-.1.4-.2.1 0 .3-.1.4-.1.1 0 .2-.1.4-.1.3-.2.4-.2.5-.2z">
        </path>
    </g>
</svg>