<svg xmlns="http://www.w3.org/2000/svg" class="h-full w-auto svg-toggle" viewBox="0 0 851.79 148.89">
    <path fill="none"
        d="M368.78 93.11c1.06 1.72 2.45 3.14 4.17 4.23 1.72 1.1 3.88 1.65 6.47 1.65 2.35 0 4.43-.47 6.23-1.41 1.8-.94 3.29-2.19 4.47-3.76 1.18-1.57 2.06-3.35 2.65-5.35.59-2 .88-4.09.88-6.29 0-2.51-.24-4.88-.71-7.11-.47-2.23-1.26-4.21-2.35-5.94-1.1-1.72-2.55-3.09-4.35-4.11-1.8-1.02-4.08-1.53-6.82-1.53-2.35 0-4.37.47-6.05 1.41-1.69.94-3.1 2.22-4.23 3.82-1.14 1.61-1.96 3.45-2.47 5.52-.51 2.08-.77 4.25-.77 6.52s.21 4.37.65 6.52c.43 2.16 1.18 4.1 2.23 5.82Zm-158.05 3.27c1.21 1.84 2.74 3.33 4.58 4.47 1.84 1.14 4.06 1.7 6.64 1.7 2.74 0 5.03-.55 6.88-1.65 1.84-1.1 3.31-2.57 4.41-4.41 1.1-1.84 1.88-3.94 2.35-6.29.47-2.35.71-4.78.71-7.29s-.24-4.92-.71-7.23c-.47-2.31-1.27-4.35-2.41-6.11-1.14-1.76-2.61-3.19-4.41-4.29-1.8-1.1-4.08-1.65-6.82-1.65s-5.05.55-6.93 1.65c-1.88 1.1-3.39 2.55-4.53 4.35-1.14 1.8-1.96 3.86-2.47 6.17-.51 2.31-.76 4.72-.76 7.23 0 2.35.27 4.7.82 7.05.55 2.35 1.43 4.45 2.65 6.29Z">
    </path>
    <path
        d="M99.82 52.72h16.69v60.77H99.82zM50.67 81.63c0-6.19 1.84-10.64 3.88-13.34 2.04-2.7 5.33-4.06 9.87-4.06 4 0 6.78 1.23 8.35 3.7 1.57 2.47 2.35 6.21 2.35 11.23v34.32h16.69V76.1c0-3.76-.33-7.19-1-10.28-.67-3.09-1.82-5.72-3.47-7.88-1.65-2.15-3.9-3.84-6.76-5.05s-6.52-1.82-10.99-1.82c-3.14 0-6.35.8-9.64 2.41-3.29 1.61-5.99 4.17-8.11 7.7h-.35V32.64H34.8v80.85h15.87V81.64Zm274.29-30.01h16.69v60.77h-16.69z">
    </path>
    <circle cx="108.16" cy="37.4" r="7.84" transform="rotate(-13.28 108.1786 37.4071)"></circle>
    <circle cx="333.35" cy="125.38" r="7.84" transform="rotate(-13.28 333.406 125.3997)"></circle>
    <path
        d="M474.82 113.33V75.95c0-3.76-.33-7.19-1-10.28-.67-3.09-1.82-5.72-3.47-7.88-1.65-2.15-3.9-3.84-6.76-5.05s-6.52-1.82-10.99-1.82c-3.14 0-6.35.8-9.64 2.41-3.29 1.61-5.99 4.17-8.11 7.7h-.35V32.49h-16.69v80.85h15.87V81.49c0-6.19 1.84-10.64 3.88-13.34 2.04-2.7 5.33-4.06 9.87-4.06 4 0 6.78 1.23 8.35 3.7 1.57 2.47 2.35 6.21 2.35 11.23v34.32h16.69Zm-331.38-31.7c0-6.19 1.02-10.64 3.06-13.34 2.04-2.7 5.33-4.06 9.87-4.06 4 0 6.78 1.23 8.35 3.7 1.57 2.47 2.35 6.21 2.35 11.23v34.32h16.69V76.1c0-3.76-.33-7.19-1-10.28-.67-3.09-1.82-5.72-3.47-7.88-1.65-2.15-3.9-3.84-6.76-5.05s-6.52-1.82-10.99-1.82c-3.53 0-6.98.8-10.34 2.41-3.37 1.61-6.11 4.17-8.23 7.7h-.35v-8.46h-15.87v60.77h16.69V81.64Zm373.12-17.9V52.56h-12.23V34.34h-16.69v18.22h-10.11v11.17h10.11v35.85c0 3.06.51 5.52 1.53 7.41 1.02 1.88 2.41 3.33 4.17 4.35 1.76 1.02 3.8 1.7 6.11 2.06 2.31.35 4.76.53 7.35.53 1.65 0 3.33-.04 5.05-.12 1.72-.08 3.29-.24 4.7-.47v-12.93c-.79.16-1.61.28-2.47.35-.86.08-1.76.12-2.7.12-2.82 0-4.7-.47-5.64-1.41-.94-.94-1.41-2.82-1.41-5.64V63.74h12.23Zm-153.13 45.43c3.29 1.61 7.21 2.41 11.76 2.41 3.68 0 7.19-.76 10.52-2.29 3.33-1.53 5.89-3.9 7.7-7.11h.24v7.99c.08 4.31-.96 7.88-3.12 10.7-2.16 2.82-5.58 4.23-10.28 4.23-2.98 0-5.6-.61-7.88-1.82-2.27-1.22-3.8-3.39-4.58-6.52h-16.57c.24 3.45 1.19 6.41 2.88 8.87 1.68 2.47 3.8 4.49 6.35 6.05 2.55 1.57 5.37 2.72 8.46 3.47 3.09.74 6.13 1.12 9.11 1.12 6.97 0 12.54-.94 16.69-2.82 4.15-1.88 7.33-4.17 9.52-6.88 2.19-2.7 3.62-5.62 4.29-8.76.67-3.14 1-5.92 1-8.35V52.56h-15.87v8.11h-.24c-2.04-3.53-4.57-6.03-7.58-7.52-3.02-1.49-6.52-2.23-10.52-2.23-4.23 0-7.98.82-11.23 2.47-3.25 1.65-5.98 3.86-8.17 6.64-2.19 2.78-3.86 5.99-4.99 9.64-1.14 3.64-1.7 7.43-1.7 11.34 0 4.15.49 8.09 1.47 11.81.98 3.72 2.53 6.98 4.64 9.76 2.12 2.78 4.82 4.98 8.11 6.58Zm3.23-34.91c.51-2.08 1.33-3.92 2.47-5.52 1.14-1.61 2.55-2.88 4.23-3.82 1.68-.94 3.7-1.41 6.05-1.41 2.74 0 5.01.51 6.82 1.53 1.8 1.02 3.25 2.39 4.35 4.11 1.1 1.72 1.88 3.7 2.35 5.94.47 2.23.71 4.6.71 7.11 0 2.19-.29 4.29-.88 6.29-.59 2-1.47 3.78-2.65 5.35-1.18 1.57-2.66 2.82-4.47 3.76-1.8.94-3.88 1.41-6.23 1.41-2.59 0-4.74-.55-6.47-1.65-1.72-1.1-3.11-2.51-4.17-4.23-1.06-1.72-1.8-3.66-2.23-5.82-.43-2.15-.65-4.33-.65-6.52s.25-4.45.77-6.52Zm-57.9 36.14c2.59-1.65 4.68-3.82 6.29-6.52 1.61-2.7 2.41-6.05 2.41-10.05 0-2.82-.55-5.19-1.65-7.11-1.1-1.92-2.55-3.53-4.35-4.82-1.8-1.29-3.86-2.33-6.17-3.12-2.31-.78-4.68-1.45-7.11-2-2.35-.55-4.66-1.06-6.93-1.53-2.27-.47-4.29-1-6.05-1.59-1.76-.59-3.19-1.35-4.29-2.29s-1.65-2.15-1.65-3.64c0-1.25.31-2.25.94-3 .63-.74 1.39-1.31 2.29-1.7.9-.39 1.9-.65 3-.76 1.1-.12 2.12-.18 3.06-.18 2.98 0 5.56.57 7.76 1.7 2.19 1.14 3.41 3.31 3.64 6.52h15.87c-.31-3.76-1.28-6.88-2.88-9.34-1.61-2.47-3.62-4.45-6.05-5.94-2.43-1.49-5.19-2.55-8.29-3.17-3.1-.63-6.29-.94-9.58-.94s-6.51.29-9.64.88c-3.14.59-5.96 1.61-8.46 3.06-2.51 1.45-4.53 3.43-6.05 5.94-1.53 2.51-2.29 5.72-2.29 9.64 0 2.66.55 4.92 1.65 6.76 1.1 1.84 2.55 3.37 4.35 4.58 1.8 1.22 3.86 2.19 6.17 2.94s4.68 1.39 7.11 1.94c5.95 1.25 10.6 2.51 13.93 3.76s5 3.14 5 5.64c0 1.49-.35 2.72-1.06 3.7-.71.98-1.59 1.76-2.64 2.35-1.06.59-2.23 1.02-3.53 1.29-1.29.28-2.53.41-3.7.41-1.65 0-3.23-.19-4.76-.59-1.53-.39-2.88-1-4.06-1.82-1.18-.82-2.14-1.88-2.88-3.17-.75-1.29-1.12-2.84-1.12-4.64h-15.87c.16 4.08 1.08 7.46 2.76 10.17 1.68 2.7 3.84 4.88 6.47 6.52 2.62 1.65 5.62 2.82 8.99 3.53s6.82 1.06 10.34 1.06 6.84-.33 10.17-1c3.33-.67 6.29-1.82 8.87-3.47Zm-111.43-5.19c2.23 3.02 5.07 5.41 8.52 7.17 3.45 1.76 7.44 2.64 11.99 2.64 4 0 7.58-.73 10.76-2.17 3.17-1.45 5.74-3.82 7.7-7.11h.23v7.76h15.87V29.56h-16.69v30.56h-.24c-1.88-2.98-4.45-5.23-7.7-6.76-3.25-1.53-6.68-2.29-10.29-2.29-4.47 0-8.39.88-11.75 2.64-3.37 1.76-6.17 4.1-8.4 6.99-2.23 2.9-3.92 6.25-5.05 10.05-1.14 3.8-1.7 7.74-1.7 11.81s.57 8.31 1.7 12.22c1.14 3.92 2.82 7.39 5.05 10.4Zm10.7-29.39c.51-2.31 1.33-4.37 2.47-6.17 1.13-1.8 2.64-3.25 4.53-4.35 1.88-1.1 4.19-1.65 6.93-1.65s5.01.55 6.82 1.65c1.8 1.1 3.27 2.53 4.41 4.29 1.14 1.76 1.94 3.8 2.41 6.11.47 2.31.71 4.72.71 7.23s-.24 4.94-.71 7.29c-.47 2.35-1.25 4.45-2.35 6.29-1.1 1.84-2.57 3.31-4.41 4.41-1.84 1.1-4.13 1.65-6.88 1.65-2.59 0-4.8-.57-6.64-1.7-1.84-1.14-3.37-2.62-4.58-4.47-1.22-1.84-2.1-3.94-2.65-6.29-.55-2.35-.82-4.7-.82-7.05 0-2.51.25-4.92.76-7.23Zm545.18-7.55c.68 1.21 2.51.5 3.97-1.43 1.46-1.93 1.25-3.16-.62-3.38-1.09-.1-3.85 3.9-3.35 4.81Z">
    </path>
    <path
        d="M742.43 59.92c1.57-3.02 1.86-3.34 3.71-3.74 3.69-.64 30.33-1.72 30.97-1.29 1.12.72 3.89.13 3.99-.96.22-2.03-18.22-1.32-18.22-1.32-9.14.27-16.58.46-16.58.31 0-.16.98-2.22 2.27-4.61 2.43-4.46 2.51-6.17.35-5.76-.77.19-1.93 1.79-4.24 5.63l-3.16 5.42-3.1.15c-4.95.23-19.62 1.84-24.39 2.69-4.62.84-5.67 1.5-4.53 2.69.66.75 1.12.73 4.82.09 5.08-.86 24.7-2.7 25.02-2.41.16.15-.96 2.68-2.53 5.7s-4.56 8.75-6.55 12.72c-.31.63-.69 1.37-1.11 2.19-.61.52-1.82 1.51-1.82 1.51-1.2.83-2.69 2.14-4.63 3.78-6.85 6.06-11.08 8.59-14.63 9.06-1.85.24-2.32.11-2.98-.64-.99-1.35-.51-4.17 1.33-7.98 1.28-2.54 1.4-3.17.76-3.76-.97-.88-1.58-.7-3.22.77l-1.49 1.31-.85-1.51c-1.02-1.81-2.76-2.66-4.93-2.56-1.7.08-3.69.79-5.8 2.13-1.75 1.11-3.34 2.5-4.72 4-9.36 7.84-15.77 11.38-20.93 11.62-3.87.18-5.94-.96-6.21-3.43-.2-.92-.1-2.17.18-2.8.42-.95.75-.5 3.84-.8 1.85-.24 3.69-.64 5.32-2.27 2.97-2.78 3-5.57.31-6.69-.63-.28-1.26-.41-1.88-.38-1.67.08-3.54 1.24-4 1.43l-2.64 1.11c-2.29.88-4.21 1.07-6.38 1.17-3.72.17-4.53-.72-5.86-2.52-2-3.01-2.77-2.82-8.29 1.94-4.47 3.93-4.63 3.94-3.47 2.02 1-1.91.99-2.06.19-2.65-1.45-1.17-2.49-.2-5.64 5.54-3.72 6.69-5.23 10.95-4.26 11.84.32.29.96.58 1.42.56.47-.02 2.83-2.46 5.33-5.53 5-5.97 10.62-11.98 11.39-12.01.31-.02 1.11.57 1.92 1.31 1.94 1.77 4.33 2.9 8.8 2.38.7-.07 1.42-.18 2.15-.33-1.24 1.78-2.09 3.73-2.21 5.61-.28 3.89 2.63 6.55 7.94 7.23 5.25.59 11.01-1.5 18.37-6.76-.65 2.26-.39 4.12 1.1 4.92 2.87 1.57 7.89-.52 14.76-6.27l3.59-2.96.12 2.63c.11 2.32.29 2.78 2.05 4.09 3.21 2.33 7.06 1.69 13.69-2.5 2.52-1.63 6.04-4.44 8.94-7.1-1.66 3.24-3.43 6.71-4.94 9.71-8.53 16.69-13.97 29.82-12.81 31.47.67 1.05 3 1.1 3.73.14.3-.32.39-1.57.34-2.65-.14-2.94 3.49-11.65 25.57-53.95 1.57-3.02 3.71-7 4.71-8.75Zm-79.76 23.63c.07-.03.21-.2.27-.23 0 0 2.4-1.92 3.95-2.1.16-.02.35.04.35.04.64.44-.52 2.2-2.03 3.04q-1.97 1.02-2.92.6c-.43-.26-.41-.55.38-1.35Zm33.54 3.5c-1.94 1.64-5.26 3.66-6.91 4.82-3.92 2.51-4.84 2.71-4.47.67.88-4.54 9.05-12.21 12.46-12.22.31-.01.63.13.79.27.32.14.83 1.05 1.18 1.96.54 1.53.39 1.69-3.05 4.49Zm-80.68 7.02c-8.04 7.36-17.63 14.63-24.39 19.29-8.72 5.99-16.44 10.08-23.32 12.41-5.66 1.82-12.73 3.23-19.17 1.52-5.19-1.46-8.47-5.35-10.15-11.47-2.07-7.82-1.08-16.4 3.21-27.61 6.78-17.69 15.93-31.15 29.64-43.12 10.88-9.51 22.4-15.48 30.45-15.85 2.48-.12 3.26 0 4.86 1.02 1.76 1.16 1.77 1.32 1.92 4.57.32 6.81-5.92 19.52-13.74 28.11-1.92 2.11-2.02 3.35-.16 3.26 1.24-.06 4.2-3.14 8.13-8.6 6.85-9.48 10.96-21.15 9.19-25.88-1.78-4.88-8.08-6.92-15.44-5.02-17.47 4.69-37.62 21.77-49.56 41.88-5.04 8.46-9.79 19.7-12.02 28.49-1.05 4.08-1.45 5.29-1.17 11.33v.21c.26 5.57.51 7.58 1.38 9.71 2.6 5.93 6.5 9.63 12.31 11.22 7.08 2 13.53.61 20.42-1.26 14.39-4.08 28.7-13.44 49.84-32.58 5.66-5.07 7.88-7.35 7.55-7.8-.85-1.51-2.65-.34-9.8 6.2Z">
    </path>
    <path
        d="M841.37 75.32s-12.78 11.94-22.53 12.69c-3.86.3-5.94-.96-6.21-3.43-.2-.92-.1-2.17.18-2.8.42-.95.75-.5 3.84-.8 1.85-.24 3.7-.64 5.33-2.27 2.97-2.78 3-5.57.31-6.69-.63-.28-1.26-.41-1.88-.38-1.29.06-2.57.38-3.94 1.17-1.31.71-2.6 1.32-3.67 1.88l-1.84.9c-5.58 3.52-9.42 4.22-13.13 4.55-5.4.56-6.88-1.08-4.57-4.91 1.3-2.08.95-2.99-.91-2.9-.93.04-1.96 1.18-4.88 5.19-3.65 4.98-9.26 10.98-10.19 11.03-.93.04-.82-4.31.2-9.01 1.01-5.01.79-6.4-1.06-6.16-.73.1-1.36 1.03-1.86 2.57-1.01.56-3.64 2.49-3.64 2.49-9.76 6.97-18.4 11.26-21.81 11.41-3.72.17-3.53-2.47.48-9.64 2.15-3.83 2.42-4.61 1.78-5.2-.49-.44-.97-.73-1.43-.71-1.08.05-2.26 1.5-4.27 4.85-1.88 3.04-3.39 7.29-3.29 9.31.06 1.24.56 1.99 1.84 2.86 1.44 1.02 2.23 1.29 4.4 1.19 3.25-.15 5.69-1.04 12.04-4.59 4.12-2.31 9.22-5.56 13.15-8.48-.22 1.55-.37 3.32-.42 5.25-.05 2.33-.15 3.58.05 4.34.37 1.23 1.69 2.87 3.69 2.62 1.54-.23 5.13-3.03 8.68-6.92l3.53-4.05 1.6 1.01c3.04 1.88 8 1.8 13.95-.34 1.7-.59 3.59-1.41 5.54-2.45-.88 1.49-1.46 3.07-1.56 4.59-.28 3.89 2.63 6.55 7.94 7.23 6.86.77 14.6-3.01 25.64-12.52 3.43-2.95 4.89-4.88 4.87-5.35.11-.94-.57-2.15-5.94 2.45Zm-24.8.69s2.45-1.95 3.95-1.89c.15 0 .31-.01.31-.01.64.44-.52 2.19-2.03 3.04q-1.97 1.02-2.92.6c-.48-.29-.35-.76.7-1.74Z">
    </path>
</svg>