<svg xmlns="http://www.w3.org/2000/svg" viewBox="0 0 500 78.651" fill="#4A772A">
    <defs>
        <clipPath>
            <path d="M0 0h500v78.651H0z"></path>
        </clipPath>
    </defs>
    <path
        d="M122.094 16.502h27.493l-5.033 25.758h.2l19.466-25.758h29.653l-24.541 28.247 15.313 31.74h-30.436l-10.937-26.92h-.2l-5.363 26.924h-27.494Z">
    </path>
    <g clip-path="url(#a)">
        <path
            d="M202.689 15.174h42.82c15.547 0 23.875 3.989 21.675 15.532-1.437 7.044-5.97 12.389-17.287 14.6l.008.169c6.848.51 10.194 3.141 10.641 7.81.575 5.26-1.377 13.917.11 23.168H232.58c-.842-4.582-.143-12.306-.121-17.568.041-3.055-1.524-4.241-6.139-4.241h-3.311l-4.37 21.803h-28.082Zm25.409 25.547c5.515 0 9.944-1.614 10.807-6.195.868-4.5-2.592-5.432-8.207-5.432h-2.608l-2.4 11.627Zm132.416-25.547h34.4l8.063 39.673h.2l7.281-39.673h23.269l-12.133 61.273h-34.4l-7.873-39.926h-.2l-7.47 39.928h-23.27Zm84.426 0h55.059l-3.075 15.956h-27.58l-1.36 6.534h25.474l-3.176 15.957h-25.476l-1.343 6.872h28.482l-3.176 15.954h-55.962ZM60.876 0l-7.608 56.525H42.402L34.793 0l13.041 12.569Zm-42.03 63.412 6.522-6.345c-6.157-4.534-10.146-10.866-9.6-18.3 1.092-9.783 11.054-17.026 19.564-19.743L23.373 7.065C12.505 10.684 1.279 21.384.187 33.333-1.444 46.2 7.8 57.613 18.846 63.412m57.975 0c11.046-5.8 20.291-17.212 18.659-30.079-1.091-11.949-12.318-22.649-23.185-26.268L60.336 19.024c8.51 2.717 18.472 9.963 19.565 19.743.545 7.434-3.444 13.766-9.6 18.3Zm.474 1.267H18.337L6.207 76.457h83.219Zm237.715-51.71c25.43 0 35.425 13.4 31.543 32.841s-19.216 32.841-44.646 32.841-35.425-13.4-31.542-32.841 19.215-32.841 44.645-32.841m-9.868 49.434c4.492 0 8.261-2.16 11.18-16.593 2.733-14.087.152-16.593-4.546-16.593s-8.447 2.506-11.18 16.593c-2.921 14.433.051 16.593 4.546 16.593">
        </path>
    </g>
</svg>