<svg xmlns="http://www.w3.org/2000/svg" viewBox="0 0 270 59.5" class="svg-toggle">
    <path
        d="M2 2.1h11v40.3H2zM54.6 2.1H41.5L15.5 30l26 28.2h13.1L28.6 30zM139.6 34.4c-2.2-10.7-12.7-17.6-23.4-15.4-2.2.5-4.3 1.3-6.2 2.4V2.1h-9.3v40.2h10.2c-.5-1.2-.8-2.5-.8-3.9 0-5.6 4.5-10.1 10.1-10.1s10.1 4.5 10.1 10.1-4.5 10.1-10.1 10.1c-1.3 0-2.5-.2-3.6-.7v10.1c2.5.5 5 .5 7.6-.1 10.7-2.2 17.7-12.7 15.4-23.4M185.4 34.4c-1.9-9.4-10.2-15.8-19.4-15.8s-17.5 6.4-19.4 15.8c-.5 2.7-.5 5.4 0 7.9h10.2c-.5-1.2-.8-2.5-.8-3.9 0-5.6 4.5-10.1 10.1-10.1s10.1 4.5 10.1 10.1-4.5 10.1-10.1 10.1c-1.3 0-2.5-.2-3.6-.7v10.1c2.5.5 5 .5 7.6-.1 10.7-2.2 17.6-12.7 15.4-23.4M90.1 39.1v-21h-9.4v21c0 5.2-4.2 9.4-9.4 9.4-1.5 0-3-.4-4.3-1v9.9c1.4.3 2.8.5 4.3.5 10.4 0 18.9-8.4 18.9-18.8z">
    </path>
    <path
        d="M62.3 42.1c-.3-1-.5-2-.5-3.1V18h-9.4v21c0 1 .1 2.1.3 3.1h9.7zM214.1 18.1h-9.8v-16h-10.4v56.1h10.4V28.5h9.8zM256.4 34.4c-1.9-9.4-10.2-15.8-19.4-15.8s-17.5 6.4-19.4 15.8c-.5 2.7-.5 5.4 0 7.9h10.2c-.5-1.2-.8-2.5-.8-3.9 0-5.6 4.5-10.1 10.1-10.1s10.1 4.5 10.1 10.1-4.5 10.1-10.1 10.1c-1.3 0-2.5-.2-3.6-.7v10.1c2.5.5 5.1.1 7.6-.6 1.8-.5 4.5-1.7 6.3-3.9v4.9h9.5V40.1c.2-1.8.1-3.7-.3-5.6M263.7 58.1c2.5 0 4.6-1.9 4.6-4.5s-2.1-4.5-4.6-4.5c-2.5 0-4.6 1.9-4.6 4.5s2.1 4.6 4.6 4.6m-3.7-4.5c0-2.1 1.6-3.8 3.7-3.8s3.7 1.6 3.7 3.8c0 2.2-1.6 3.8-3.7 3.8s-3.7-1.6-3.7-3.8m2.7.4h.9l1.4 2.3h.9l-1.5-2.3c.8-.1 1.4-.5 1.4-1.4 0-1-.6-1.5-1.8-1.5h-2v5.2h.8v-2.3zm0-.7v-1.6h1.1c.6 0 1.1.1 1.1.8 0 .8-.6.9-1.3.9h-.9z">
    </path>
</svg>