<svg xmlns="http://www.w3.org/2000/svg" viewBox="0 0 855 103">
    <path fill="#FFF"
        d="M319 5c40.3088 0 40.3088 0 52.8125 11.6953 7.6402 8.2132 9.5666 17.744 9.4648 28.629-.7978 10.5748-5.9516 18.8356-13.5898 25.9257C353.6539 82.6698 336.61 79 319 79V5Zm10 10v54c20.0942.6608 20.0942.6608 36-9 5.8577-7.5625 6.8685-14.53 6-24-2.6179-9.0608-7.5969-14.0543-15.5625-18.7656C346.9305 12.9264 339.2394 15 329 15ZM496 5h11c5.376 10.5728 10.4998 21.2375 15.4272 32.0264a3815.9094 3815.9094 0 0 0 3.2173 7.0205C527.775 48.6925 529.891 53.3446 532 58l1.1504 2.5358a2663.6334 2663.6334 0 0 1 3.3809 7.5033l1.0567 2.3326C540 75.7697 540 75.7697 540 78h-12l-1.496-3.211-1.9415-4.164-.9863-2.1172c-1.754-3.7703-1.754-3.7703-3.5762-7.5078h-37l-7 16c-1 1-1 1-3.7227 1.0977l-3.3398-.0352-3.3477-.0273L463 78c5.5897-13.4249 11.5439-26.6673 17.625-39.875l1.0932-2.3748C486.4468 25.4852 491.2113 15.237 496 5Zm5 13a6458.3755 6458.3755 0 0 0-5.4993 12.1704 2604.734 2604.734 0 0 1-1.871 4.1377 2537.0562 2537.0562 0 0 0-2.6883 5.9575l-1.6345 3.6182c-1.436 3.2035-1.436 3.2035-2.3069 7.1162h29c-3.1064-8.0767-6.2171-15.9697-9.8125-23.8125l-1.2324-2.7129A2304.4682 2304.4682 0 0 0 502 18h-1ZM652.004 6.9297C654 8 654 8 657 10c-.6112 3.5652-1.6202 6.6627-3 10l-2.5273-1.0586C641.6693 14.9774 633.2896 12.206 623 16c-3.3084 2.2332-3.8784 3.6067-5.0625 7.4375-.2968 3.642-.2968 3.642 2.0938 6.125 3.3405 2.7427 6.4383 3.8999 10.5312 5 1.4272.4188 2.8543.8381 4.2813 1.2578 1.385.3946 2.7704.7879 4.1562 1.1797 14.3744 4.1116 14.3744 4.1116 19 10 2.5775 5.5846 2.347 11.0948 1 17-3.6155 6.9727-8.724 10.3656-16 13-13.3289 2.7151-26.8878.751-38.3047-6.793L603 69l3-9c3.4132 0 4.7775.778 7.75 2.375 8.8894 4.528 17.9594 6.4835 27.75 3.5625 2.879-1.2525 4.245-2.5188 5.6875-5.3125 1.0806-3.4824 1.0806-3.4824.0625-6.3125-4.8589-4.9939-11.294-6.362-17.8608-8.0667C619.9699 43.7981 611.7648 41.4085 606 33c-2.0214-5.1454-1.4759-10.5961.25-15.6875C614.7252 1.2701 636.632.289 652.004 6.9297ZM785 10l-4 10-2.2734-1.0586c-10.8984-4.8452-18.8218-6.2221-30.1016-2.0664-2.2143 1.533-2.853 2.5285-3.625 5.125-.1603 3.5458-.1603 3.5458 1 7 5.9465 5.1356 13.6223 6.3287 21.0586 8.2676 7.2152 1.9731 13.875 4.1714 18.8789 9.9824 2.518 6.5174 2.5992 12.2153.0664 18.746-3.1626 6.313-9.3051 9.4203-15.7539 11.5938-12.0216 2.1915-25.4855.7857-36-5.6523C732 70 732 70 731 67c.922-2.3652 1.917-4.704 3-7 4.251.866 7.7478 2.8434 11.5625 4.8438 4.64 2.201 8.6742 2.3447 13.8125 2.4062l3.8984.0781C768.1777 66.8963 771.5151 65.485 775 62c.6696-4.1035.6696-4.1035 0-8-5.1168-4.5736-11.4949-5.7794-18-7.5-10.068-2.663-16.6588-4.9846-23-13.5-1.7992-5.3975-1.5216-10.3527.1875-15.75C737.7003 10.9513 742.3855 7.5556 749 5c12.1374-3.085 25.1747-1.144 36 5ZM568.8125 3.5625l2.658.0142C579.5895 3.7614 586.2043 5.4695 593 10l-3 10-2-.8125L585 18l-1.7969-.7656C575.2221 13.978 567.2231 12.787 559 16c-3.4223 2.5144-4.7575 3.8362-5.625 8 .8585 4.1207 2.3041 5.4401 5.625 8 4.8196 1.9922 9.5953 3.475 14.6484 4.7366 17.101 4.3026 17.101 4.3026 21.547 11.0876 2.1316 5.764 1.7236 13.0219-.7579 18.6133-3.681 6.1391-8.5453 8.5153-15.3125 10.375-12.5924 2.7273-25.2267.9087-36.5508-5.4336-1.986-1.7396-2.3477-2.764-2.5742-5.3789.7273-2.5022 1.8645-4.6381 3-7 1.9678.9752 3.925 1.9597 5.8594 3 9.126 4.827 17.8046 6.2263 28.0156 4.25 3.36-1.344 5.061-2.2778 7.125-5.25.6667-3 .6667-3 0-6-2.6063-3.0983-4.8789-4.64-8.6875-5.9375l-2.9063-1.0078a174.6741 174.6741 0 0 0-7.625-2.1719c-8.9783-2.3757-16.6898-4.4184-21.953-12.7344-2.077-5.388-1.711-12.6921.2968-18.0859 5.8332-9.5276 15.1787-11.6225 25.6875-11.5ZM57 10c-.5071 3.7189-1.116 6.7345-3 10-3.29-1.0692-6.4099-2.187-9.5625-3.625-6.6278-2.4982-14.9748-2.657-21.625-.125-2.7794 1.5338-2.7794 1.5338-4.3125 3.5-.7952 3.5782-.6115 5.7302.5 9.25 6.0518 5.49 14.0722 6.8307 21.7793 8.584C47.2457 39.1792 53.0961 41.3227 58 46c2.8069 5.8017 3.0959 12.1087 1.3477 18.3164C57.1102 69.3772 53.9997 72.6345 49 75c-13.209 4.5624-27.0136 4.1317-39.75-2.0625C6 71 6 71 4 69c.3266-3.7556 1.117-6.736 3-10 1.9678.9752 3.925 1.9597 5.8594 3 9.1602 4.845 17.7612 6.1318 28.0156 4.3125C44.6104 64.7436 46.0913 63.5789 48 60c.6563-3.5771.6563-3.5771-1-7-4.9317-4.2324-11.6259-5.471-17.7598-7.0767C12.4477 41.5146 12.4477 41.5146 7 34c-1.8804-5.6413-1.7805-11.7818.1875-17.375 4.3612-6.3162 9.6959-10.3245 17.1484-12.2188C35.2762 2.738 47.7487 3.3009 57 10ZM256 5h49c0 10 0 10-2.7031 13.461a93.4694 93.4694 0 0 1-3.5469 2.914c-1.1721.9867-2.344 1.9736-3.5156 2.961-.5563.452-1.1125.9042-1.6856 1.37C291.5758 27.3545 289.777 29.144 288 31l2.0117.7344C298.3992 34.9179 302.9594 37.9189 307 46c2.5406 6.775.7635 13.6162-2 20-3.5018 6.0231-10.5064 9.8355-17 12-10.7857.9272-19.9615.7646-29-6-3.7723-3.7215-6.6591-7.546-7-13 3.6197-1.3163 6.0957-2 10-2 1.393 1.959 2.7225 3.964 4 6 3.6698 3.5432 8.1193 4.949 13.207 5.039 6.3571-.4548 11.0821-2.3281 15.668-6.914 2.2465-4.2433 2.4018-7.1216 1.125-11.75-2.7204-4.5908-5.648-6.3207-10.8008-7.9414-2.974-.5864-5.9263-.7845-8.9492-.9961l-3.5469-.254L270 40c-.615-4.0446-.9863-7.5363 1.374-11.039 1.9162-1.9478 3.901-3.7135 6.001-5.461l2.1172-1.875c4.9641-4.3532 4.9641-4.3532 7.5078-5.625l-31-1V5ZM216.4375 21.5625l2.2747.0208c5.5714.162 9.7761.9739 14.2878 4.4167l3.25 2.3125C241.148 33.0993 243.608 38.272 245 45v9l-44 1c3.453 8.2784 3.453 8.2784 10.2305 12.75 5.4658 1.323 9.4787 1.5323 14.7695-.75 3.1397-2.163 4.8782-3.8173 7-7 2.3828-.293 2.3828-.293 5.125-.1875l2.7578.082L243 60c-1.5805 7.0244-6.3406 12.6673-12.375 16.5-7.475 3.2767-19.0548 2.948-26.6875.0625-6.5617-3.6313-11.5449-9.4003-13.9375-16.5-2.0149-8.4652-1.8787-17.146 2-25.0625 6.515-9.1418 13.1427-13.5954 24.4375-13.4375Zm-13.25 15.3125C200.6373 40.0728 200.6373 40.0728 200 45h33c-2.0419-6.1257-3.3869-9.2377-8.6875-12.8125-7.978-2.86-15.2959-1.756-21.125 4.6875ZM106 22h11l17 40 17-40h11c-.5735 4.3041-1.6163 7.8504-3.379 11.8125l-1.5202 3.4558-.8194 1.8382c-1.47 3.2981-2.918 6.6059-4.3673 9.913-.3103.7066-.6205 1.4131-.94 2.1411-2.4948 5.6993-4.9214 11.4257-7.3257 17.1636l-1.0958 2.6148a5694.8446 5694.8446 0 0 0-4.3043 10.3044 4644.7147 4644.7147 0 0 1-3.01 7.2058l-.9043 2.1835C133.0745 93.6373 131.8139 96.2792 130 99c-2.6016.293-2.6016.293-5.625.1875l-3.039-.082L119 99l.7502-1.8484c1.1175-2.7745 2.215-5.5565 3.3123-8.3391l1.1816-2.9082 1.1036-2.8223 1.0315-2.5866c1.1143-4.4788-.5769-8.2909-2.3287-12.4217l-1.2131-2.8816-1.31-3.075-2.7247-6.4726a15170.802 15170.802 0 0 0-4.3127-10.185c-1.3878-3.279-2.7692-6.5605-4.1502-9.8423l-1.3161-3.0872-1.2036-2.8625-1.0676-2.5181C106 25 106 25 106 22ZM662 5c4.2595-.9081 7.7634-1.1157 12 0 3.3707 3.4212 5.4631 7.4326 7.6987 11.6357 2.5726 4.6742 5.4727 9.1549 8.3013 13.6768a8527.3065 8527.3065 0 0 1 4.836 7.8684C695.8724 39.944 695.8724 39.944 697 41l1.7656-3.0508c1.7303-2.9803 3.4863-5.944 5.254-8.9023 2.0484-3.4328 4.0073-6.9015 5.9296-10.4063a3994.4772 3994.4772 0 0 1 2.9883-5.2031l1.335-2.5422C715.695 8.4863 716.8172 6.7579 719 5c3.7693-.6916 7.216-.5118 11 0-1.4934 4.0604-3.4403 7.649-5.6328 11.375l-1.0774 1.8357a1770.1878 1770.1878 0 0 1-2.2644 3.8425 2132.467 2132.467 0 0 0-3.377 5.7398l-1.1103 1.8855a1087.212 1087.212 0 0 0-2.2144 3.7813c-1.7837 3.0373-3.6114 6.0013-5.6274 8.8905-5.3972 7.9507-6.8597 13.905-6.6963 23.4622l-.0352 3.58c-.0232 2.8691.001 5.7385.0352 8.6075h-11l.2031-5.0195c.2598-15.614-1.974-25.033-11.3354-37.4156-3.6295-4.9844-6.805-10.2664-10.0552-15.5024l-1.9985-3.145-1.857-2.9448-1.657-2.617C663.1063 9.1927 662.4504 7.414 662 5ZM791 5h60v10h-24v63h-12V15h-24V5ZM75 5h10v17h15v9H85c.074 4.7881.1568 9.5743.2625 14.3616.0332 1.6285.0612 3.257.084 4.8857.0335 2.3413.0858 4.6814.1418 7.0222l.0193 2.2068c.1135 3.9818.1135 3.9818 1.8557 7.4749 2.3963 1.5355 4.5068 1.5706 7.3242 1.7363l3.0117.1992L100 69v9c-2.3965.0814-4.7903.1407-7.1875.1875l-2.041.0762C84.9527 78.3488 81.997 76.775 77.75 73c-3.4366-3.9275-2.8806-8.239-2.8477-13.168l.0043-2.4085c.0056-2.537.0182-5.074.0309-7.611.005-1.7207.0096-3.4414.0137-5.1621.011-4.2168.0283-8.4336.0488-12.6504H64v-9h11V5ZM170 5h9v73h-9V5ZM420 5h5v73h-5V5Z" />
</svg>