<svg xmlns="http://www.w3.org/2000/svg" viewBox="0 0 200 48">
    <path fill="#FFF"
        d="M39 0h36v4H44v6l31 1v4l-31 1v5l31 1v4H39V0ZM123 0c4.484-.099 8.9674-.1715 13.4521-.2197 1.5249-.0201 3.0497-.0474 4.5743-.082 2.1945-.0487 4.388-.0713 6.583-.089l3.999-.0634C155 0 155 0 157.4307 1.8409 159 4 159 4 159.5 6.9374c-.6403 3.922-1.5978 5.3406-4.5 8.0625-2.9117.749-5.7541.7901-8.75.8125l-2.4023.0762c-1.9487.0587-3.8983.0879-5.8477.1113a3921.2954 3921.2954 0 0 0 8.25 3.4375l2.3555.9863 2.2851.9473 2.0948.8728c1.9865.7456 3.9477 1.284 6.0146 1.7561v2c-8.534.8474-14.786-1.4728-22.5-4.9375l-3.2813-1.42C126.1058 16.5529 126.1058 16.5529 123 15v-4l30-1c1.0808-3.6362 1.0808-3.6362 1-6h-31V0ZM99.5-.6875l3.707-.084c9.9712.0273 9.9712.0273 13.1172 3.166 2.2447 4.8296 2.2317 8.7305 1.9883 13.9805l-.0684 2.8086A344.6484 344.6484 0 0 1 118 26h-4V15H85v11h-4c-.1458-3.3954-.2342-6.79-.3125-10.1875l-.127-2.9082c-.075-4.3382.0455-7.1677 2.1153-11.0371C88.0647-1.1597 93.429-.7611 99.5-.6875ZM87 4c-2.3698 2.9538-2.3698 2.9538-2 7h29c-.4915-4.8613-.4915-4.8613-3-7-3.9816-.456-7.9954-.324-12-.3125l-3.3906-.0488-3.2344-.002-2.9766-.009L87 4ZM0 0c4.5023-.0989 9.004-.1715 13.507-.2197a485.0652 485.0652 0 0 0 4.5948-.082c2.202-.0486 4.4029-.0713 6.6052-.089l2.0742-.0625c3.1632-.0015 4.7916.0532 7.1473 2.2589C35.5159 5.0566 35.4453 7.4378 35 11c-1.6201 2.1943-1.6201 2.1943-4 4-3.0244.4541-3.0244.4541-6.5156.3906l-3.789-.039L16.75 15.25c-1.3174-.018-2.6348-.036-3.9922-.0547A901.5569 901.5569 0 0 1 3 15v11H0V11l29-1 1-5L0 4V0ZM165 0h4v22h31v4h-35V0ZM148 40h52v3h-52v-3ZM0 40h52v3H0v-3ZM69.0625 31.5c3.2025.5451 4.692 1.1681 6.9375 3.5v3l-2.125-1.0625C70.4973 35.8361 68.4192 36.2048 65 37v8l7-1-3-2v-2h8c-.3455 2.5569-.7509 4.575-2.0625 6.8125C71.7803 48.7475 68.5357 48.626 65 48c-2.5-1.5625-2.5-1.5625-4-4-.5625-3.4375-.5625-3.4375 0-7 2.4793-3.4273 3.8548-4.813 8.0625-5.5ZM91.4375 32.125C95.3312 33.0814 96.7686 33.6975 99 37c.6307 3.7053.2432 5.5136-1.4375 8.875-3.2772 2.7176-5.3043 2.6496-9.4414 2.5938C85.5216 47.8942 84.6167 47.0864 83 45c-1.0945-3.596-1.3197-5.2967.25-8.75 2.5878-3.3271 3.9221-4.2801 8.1875-4.125Zm-5.375 5.0625c-1.3168 2.7553-1.3168 2.7553-.5625 5.5625 1.3229 2.4325 1.3229 2.4325 3.875 3.25 2.6602.1914 2.6602.1914 4.9375-1.125 1.898-1.7753 1.898-1.7753 2.125-4.375-.268-2.502-.268-2.502-1.625-4.3125-3.5498-2.3258-5.9372-2.1757-8.75 1ZM125 32c8.7692 0 8.7692 0 12 3 1.3184.6958 2.648 1.3722 4 2-3.6744 2.4496-5.6684 2.0774-10 2l-3 1v8h-3V32ZM106 32h3v14h9v2h-12V32Z" />
</svg>