<svg xmlns="http://www.w3.org/2000/svg" xml:space="preserve" overflow="visible" viewBox="0 0 305.278 88.811"
    fill="#ffffff">
    <path
        d="M173.335 17.678v23.577c0 3.122.899 5.595 2.698 7.416 1.799 1.823 4.185 2.733 7.155 2.733 2.085 0 3.962-.455 5.631-1.367 1.668-.91 3.05-2.198 4.145-3.864V17.678h7.82v39.737h-7.82v-3.982c-1.565 1.562-3.351 2.745-5.357 3.552-2.008.807-4.211 1.21-6.608 1.21-4.536 0-8.251-1.457-11.145-4.372-2.893-2.914-4.34-6.662-4.34-11.242V17.678h7.821zM225.34 23.611c-2.971 0-5.566.989-7.781 2.966-2.217 1.979-3.611 4.528-4.184 7.651h23.617c-.574-3.018-1.942-5.543-4.105-7.573-2.164-2.029-4.68-3.044-7.547-3.044m16.502 29.276c-2.295 1.769-4.692 3.083-7.195 3.942s-5.24 1.287-8.211 1.287c-2.921 0-5.658-.534-8.212-1.6-2.554-1.065-4.77-2.51-6.647-4.332-1.877-1.822-3.351-3.994-4.419-6.519-1.069-2.524-1.603-5.243-1.603-8.158 0-2.862.521-5.543 1.564-8.042 1.042-2.498 2.45-4.657 4.223-6.48 1.771-1.821 3.883-3.265 6.335-4.332 2.45-1.067 5.056-1.601 7.82-1.601 2.711 0 5.252.534 7.625 1.601 2.372 1.067 4.406 2.525 6.1 4.371 1.694 1.848 3.037 4.048 4.027 6.597.99 2.551 1.487 5.283 1.487 8.197v2.264h-31.439c.521 3.279 2.034 5.999 4.536 8.158 2.503 2.16 5.475 3.24 8.915 3.24 1.929 0 3.78-.312 5.553-.937 1.772-.624 3.285-1.483 4.536-2.576l5.005 4.92zM247.245 52.262l4.223-5.152c2.085 1.614 4.21 2.849 6.374 3.708 2.162.859 4.365 1.288 6.608 1.288 2.815 0 5.109-.546 6.882-1.639 1.772-1.093 2.659-2.523 2.659-4.294 0-1.405-.522-2.523-1.564-3.356-1.044-.832-2.659-1.406-4.849-1.718l-7.195-1.016c-3.911-.571-6.87-1.781-8.876-3.63-2.008-1.847-3.011-4.306-3.011-7.377 0-3.591 1.433-6.492 4.301-8.704 2.867-2.212 6.621-3.319 11.262-3.319 2.918 0 5.695.418 8.329 1.25 2.633.833 5.201 2.108 7.703 3.825l-3.989 5.152c-2.19-1.456-4.314-2.51-6.374-3.161-2.061-.65-4.132-.976-6.217-.976-2.398 0-4.328.495-5.787 1.483-1.461.989-2.191 2.291-2.191 3.903 0 1.459.509 2.564 1.526 3.318 1.016.755 2.697 1.315 5.044 1.679l7.195 1.014c3.911.575 6.895 1.796 8.955 3.67 2.058 1.873 3.089 4.346 3.089 7.417 0 1.77-.43 3.422-1.29 4.957-.86 1.536-2.033 2.849-3.519 3.943-1.485 1.092-3.246 1.965-5.279 2.615-2.033.65-4.223.976-6.569.976-3.441 0-6.661-.494-9.659-1.483-2.998-.989-5.591-2.447-7.781-4.373M285.805 47.578V7.529l7.743-7.042v17.19h11.731v6.558h-11.731v21.547c0 2.03.456 3.461 1.369 4.294.911.833 2.41 1.249 4.497 1.249 1.095 0 2.073-.064 2.933-.195.86-.13 1.785-.377 2.776-.742v6.558c-1.043.365-2.255.65-3.636.858-1.383.208-2.647.312-3.793.312-3.859 0-6.804-.898-8.837-2.693-2.035-1.794-3.052-4.41-3.052-7.845M131.308 50.721c-11.735 0-21.248-9.716-21.248-21.707 0-11.987 9.513-21.708 21.248-21.708 11.73 0 21.242 9.721 21.242 21.708 0 11.991-9.513 21.707-21.242 21.707m29.891 4.476c-3.129-2.385-5.881-4.962-8.185-7.675 4.246-4.979 6.817-11.445 6.817-18.507 0-15.756-12.774-28.525-28.524-28.525-15.756 0-28.53 12.769-28.53 28.525s12.775 28.53 28.53 28.53c6.061 0 11.68-1.893 16.298-5.121 2.456 2.982 5.41 5.788 8.78 8.354l.389.295 4.869-5.536-.444-.34zM115.674 68.598h-5.13v5.835h5.13c1.002 0 1.805-.267 2.404-.801.6-.533.9-1.243.9-2.129 0-.887-.3-1.592-.9-2.117-.599-.525-1.402-.788-2.404-.788m-7.719 14.969V66.334h7.99c1.677 0 3.037.48 4.082 1.441 1.043.96 1.566 2.203 1.566 3.73 0 1.51-.527 2.741-1.578 3.692-1.053.952-2.409 1.428-4.07 1.428h-5.401v6.943h-2.589zM124.7 79.924c0 .607.259 1.099.777 1.477.518.378 1.196.566 2.034.566.658 0 1.266-.099 1.825-.295.559-.197 1.06-.492 1.505-.886V78.62c-.477-.262-.978-.456-1.505-.578-.526-.123-1.102-.185-1.726-.185-.888 0-1.596.189-2.121.566-.526.377-.789.878-.789 1.501m2.244 3.865c-1.364 0-2.475-.353-3.329-1.059-.856-.705-1.283-1.625-1.283-2.757 0-1.182.452-2.114 1.357-2.795.904-.681 2.146-1.022 3.724-1.022.608 0 1.2.062 1.776.185.575.123 1.126.291 1.652.504v-1.329c0-.886-.263-1.55-.789-1.993-.527-.444-1.283-.665-2.269-.665-.576 0-1.175.086-1.8.258-.625.173-1.323.44-2.096.801l-.913-1.847c.938-.443 1.825-.767 2.664-.972.838-.205 1.669-.308 2.491-.308 1.627 0 2.889.39 3.786 1.169.896.78 1.344 1.884 1.344 3.311v8.296h-2.417v-1.083c-.559.443-1.159.772-1.8.986-.642.214-1.341.32-2.098.32M138.595 84.749l.493-1.133-5.006-12.58h2.713l3.674 9.577 4.044-9.577h2.664l-6.067 14.033c-.576 1.329-1.233 2.285-1.973 2.868-.74.583-1.686.874-2.837.874-.263 0-.505-.013-.727-.037-.222-.024-.415-.061-.58-.111v-2.166c.164.033.333.057.506.074.172.016.373.025.604.025.558 0 1.048-.152 1.467-.456.421-.304.762-.767 1.025-1.391M148.608 83.567V71.036h2.467v1.182c.46-.459.986-.813 1.578-1.059.593-.247 1.241-.37 1.949-.37.839 0 1.595.185 2.269.554.674.37 1.209.882 1.603 1.539.51-.69 1.123-1.21 1.837-1.564.715-.352 1.517-.529 2.404-.529 1.382 0 2.512.456 3.391 1.367.88.911 1.32 2.088 1.32 3.532v7.878h-2.466v-7.46c0-.984-.259-1.76-.777-2.326-.518-.566-1.221-.849-2.109-.849-.608 0-1.159.139-1.652.418-.493.28-.921.698-1.282 1.256.033.164.057.341.074.529.016.189.025.373.025.554v7.878h-2.442v-7.46c0-.984-.259-1.76-.777-2.326-.518-.566-1.22-.849-2.109-.849-.592 0-1.126.127-1.603.381-.477.255-.888.637-1.233 1.145v9.109h-2.467zM175.218 72.907c-.938 0-1.755.312-2.454.935-.7.624-1.139 1.428-1.32 2.413h7.448c-.181-.952-.612-1.747-1.295-2.388-.681-.64-1.475-.96-2.379-.96m5.204 9.232c-.724.558-1.479.972-2.269 1.243-.789.271-1.652.407-2.59.407-.921 0-1.784-.169-2.589-.505-.805-.336-1.505-.792-2.097-1.366-.592-.575-1.056-1.26-1.393-2.056-.337-.796-.505-1.654-.505-2.573 0-.903.164-1.748.493-2.535.329-.789.773-1.469 1.332-2.044.558-.575 1.225-1.03 1.997-1.366.773-.337 1.595-.505 2.467-.505.855 0 1.656.168 2.404.505.748.336 1.389.796 1.924 1.379.534.582.958 1.276 1.27 2.08.312.804.468 1.666.468 2.585v.714h-9.914c.164 1.034.641 1.891 1.43 2.572.79.682 1.727 1.022 2.812 1.022.608 0 1.192-.099 1.751-.295.559-.197 1.036-.468 1.43-.812l1.579 1.55zM182.987 83.567V71.036h2.467v1.256c.493-.492 1.056-.866 1.689-1.12.633-.255 1.328-.383 2.084-.383 1.431 0 2.606.456 3.527 1.367.921.911 1.381 2.088 1.381 3.532v7.878h-2.466v-7.46c0-.984-.284-1.76-.851-2.326-.567-.566-1.32-.849-2.257-.849-.658 0-1.254.139-1.788.418-.534.28-.974.681-1.319 1.207v9.011h-2.467zM197.611 80.465v-7.361h-2.664v-2.068h2.664v-3.201l2.442-.59v3.791h3.699v2.068h-3.699v6.795c0 .64.144 1.091.431 1.353.288.263.761.395 1.418.395.346 0 .654-.021.925-.062.272-.041.563-.119.876-.234v2.068c-.33.115-.712.205-1.147.271-.436.065-.835.098-1.196.098-1.217 0-2.146-.283-2.787-.849-.641-.566-.962-1.391-.962-2.474M210.46 80.712l1.578-1.822c.937.903 1.895 1.58 2.873 2.031.978.452 2.002.677 3.07.677 1.233 0 2.24-.27 3.021-.812s1.172-1.231 1.172-2.068c0-.755-.272-1.342-.814-1.76-.542-.419-1.439-.734-2.688-.948l-2.886-.468c-1.578-.262-2.758-.767-3.539-1.514-.781-.746-1.171-1.735-1.171-2.966 0-1.493.583-2.691 1.751-3.594 1.167-.903 2.705-1.354 4.611-1.354 1.233 0 2.458.201 3.675.603 1.216.403 2.31.981 3.28 1.736l-1.43 1.969c-.937-.705-1.875-1.235-2.812-1.587-.937-.353-1.882-.53-2.836-.53-1.119 0-2.022.238-2.713.714-.69.476-1.035 1.092-1.035 1.847 0 .706.238 1.243.715 1.613.476.369 1.266.644 2.367.825l2.787.443c1.808.295 3.144.833 4.008 1.613.863.779 1.295 1.834 1.295 3.163 0 .788-.165 1.51-.493 2.166-.33.657-.793 1.215-1.393 1.674-.601.459-1.328.817-2.183 1.071-.855.254-1.792.381-2.811.381-1.381 0-2.713-.271-3.996-.813-1.282-.542-2.416-1.306-3.403-2.29M229.918 84.749l.493-1.133-5.006-12.58h2.713l3.674 9.577 4.044-9.577h2.664l-6.067 14.033c-.576 1.329-1.233 2.285-1.973 2.868-.74.583-1.686.874-2.837.874-.263 0-.505-.013-.727-.037-.222-.024-.415-.061-.58-.111v-2.166c.164.033.333.057.506.074.172.016.373.025.604.025.558 0 1.048-.152 1.467-.456.421-.304.762-.767 1.025-1.391M238.629 81.943l1.332-1.625c.658.509 1.328.898 2.01 1.169.682.271 1.376.406 2.084.406.888 0 1.611-.172 2.171-.517.558-.344.838-.796.838-1.354 0-.443-.165-.796-.493-1.059-.329-.262-.838-.443-1.529-.541l-2.269-.32c-1.233-.18-2.166-.562-2.799-1.145-.634-.582-.95-1.358-.95-2.326 0-1.132.452-2.047 1.357-2.745.904-.697 2.087-1.046 3.551-1.046.921 0 1.796.131 2.627.393.829.262 1.64.665 2.429 1.206l-1.258 1.625c-.691-.459-1.36-.791-2.01-.996-.65-.205-1.304-.308-1.961-.308-.756 0-1.365.156-1.825.468-.461.312-.69.723-.69 1.231 0 .459.16.808.48 1.046.321.238.851.414 1.591.529l2.269.32c1.233.181 2.174.566 2.824 1.157.649.59.974 1.37.974 2.339 0 .558-.135 1.079-.407 1.563-.271.484-.641.899-1.109 1.244-.469.344-1.024.619-1.665.825-.641.205-1.332.308-2.072.308-1.085 0-2.1-.157-3.046-.468-.946-.312-1.763-.772-2.454-1.379M252.465 80.465v-7.361h-2.664v-2.068h2.664v-3.201l2.442-.59v3.791h3.699v2.068h-3.699v6.795c0 .64.144 1.091.431 1.353.288.263.761.395 1.419.395.345 0 .654-.021.924-.062.272-.041.563-.119.876-.234v2.068c-.33.115-.712.205-1.147.271-.437.065-.835.098-1.197.098-1.217 0-2.145-.283-2.787-.849-.641-.566-.961-1.391-.961-2.474M265.511 72.907c-.938 0-1.756.312-2.454.935-.7.624-1.139 1.428-1.32 2.413h7.448c-.181-.952-.612-1.747-1.295-2.388-.682-.64-1.475-.96-2.379-.96m5.203 9.232c-.724.558-1.479.972-2.269 1.243-.79.271-1.652.407-2.59.407-.921 0-1.784-.169-2.589-.505-.806-.336-1.505-.792-2.097-1.366-.592-.575-1.056-1.26-1.393-2.056-.337-.796-.505-1.654-.505-2.573 0-.903.164-1.748.493-2.535.328-.789.773-1.469 1.332-2.044.558-.575 1.225-1.03 1.997-1.366.773-.337 1.595-.505 2.467-.505.855 0 1.656.168 2.404.505.748.336 1.389.796 1.924 1.379.534.582.957 1.276 1.27 2.08.312.804.469 1.666.469 2.585v.714h-9.914c.164 1.034.641 1.891 1.43 2.572.79.682 1.726 1.022 2.812 1.022.608 0 1.192-.099 1.751-.295.559-.197 1.036-.468 1.43-.812l1.578 1.55zM273.279 83.567V71.036h2.467v1.182c.46-.459.986-.813 1.578-1.059.593-.247 1.241-.37 1.949-.37.839 0 1.595.185 2.268.554.674.37 1.209.882 1.603 1.539.51-.69 1.122-1.21 1.837-1.564.715-.352 1.517-.529 2.404-.529 1.381 0 2.511.456 3.391 1.367.88.911 1.32 2.088 1.32 3.532v7.878h-2.466v-7.46c0-.984-.259-1.76-.777-2.326-.518-.566-1.221-.849-2.109-.849-.608 0-1.159.139-1.652.418-.493.28-.921.698-1.283 1.256.033.164.058.341.074.529.016.189.025.373.025.554v7.878h-2.441v-7.46c0-.984-.259-1.76-.777-2.326-.518-.566-1.22-.849-2.109-.849-.592 0-1.126.127-1.603.381-.477.255-.888.637-1.233 1.145v9.109h-2.466zM293.749 81.943l1.332-1.625c.658.509 1.328.898 2.01 1.169.682.271 1.376.406 2.084.406.888 0 1.612-.172 2.171-.517.558-.344.838-.796.838-1.354 0-.443-.164-.796-.493-1.059-.329-.262-.838-.443-1.529-.541l-2.269-.32c-1.233-.18-2.166-.562-2.799-1.145-.634-.582-.95-1.358-.95-2.326 0-1.132.452-2.047 1.357-2.745.904-.697 2.088-1.046 3.551-1.046.92 0 1.795.131 2.627.393.829.262 1.64.665 2.429 1.206l-1.258 1.625c-.691-.459-1.36-.791-2.01-.996-.649-.205-1.304-.308-1.961-.308-.756 0-1.365.156-1.825.468-.46.312-.69.723-.69 1.231 0 .459.16.808.48 1.046.321.238.851.414 1.591.529l2.269.32c1.233.181 2.175.566 2.824 1.157.649.59.974 1.37.974 2.339 0 .558-.135 1.079-.407 1.563-.271.484-.641.899-1.109 1.244-.469.344-1.024.619-1.665.825-.641.205-1.332.308-2.072.308-1.085 0-2.1-.157-3.046-.468-.946-.312-1.763-.772-2.454-1.379" />
    <path fill="#234090"
        d="M76.878 88.473c-.435 0-.87-.166-1.201-.498l-7.651-7.652c-3.097-3.097-7.708-4.004-11.747-2.311-9.967 4.178-21.4 4.179-31.369 0-9.995-4.189-17.76-12.02-21.865-22.05s-4.058-21.057.132-31.052c4.189-9.995 12.02-17.76 22.05-21.865 10.029-4.105 21.056-4.06 31.052.131 9.995 4.189 17.76 12.02 21.865 22.05 4.105 10.029 4.059 21.057-.131 31.052-1.693 4.039-.786 8.65 2.311 11.747l7.651 7.651c.663.664.663 1.739 0 2.402s-1.739.663-2.402 0l-7.651-7.651c-4.077-4.077-5.271-10.146-3.042-15.463 3.838-9.158 3.881-19.262.12-28.452S64.123 10.149 54.965 6.31c-9.157-3.838-19.262-3.881-28.452-.12-9.19 3.761-16.365 10.876-20.204 20.034-3.838 9.158-3.881 19.262-.12 28.453 3.761 9.19 10.876 16.365 20.034 20.204 9.134 3.828 19.61 3.827 28.742 0 5.316-2.23 11.386-1.035 15.463 3.042l7.651 7.652c.663.664.663 1.739 0 2.402-.331.33-.766.496-1.201.496z" />
    <path d="M40.594 1.721v77.748" />
    <path d="M1.721 40.595h77.747" />
    <path d="M40.594 40.595" />
    <path fill="#1a80be"
        d="M81.826 83.525c-.435 0-.87-.166-1.201-.498l-7.651-7.651c-5.114-5.115-12.73-6.612-19.4-3.817-8.25 3.458-17.71 3.458-25.958 0-8.271-3.466-14.697-9.947-18.094-18.247s-3.36-17.426.108-25.697c3.467-8.271 9.947-14.697 18.247-18.094 8.299-3.397 17.425-3.36 25.697.108 8.271 3.467 14.697 9.947 18.094 18.247 3.397 8.3 3.359 17.426-.108 25.697-2.796 6.67-1.297 14.286 3.817 19.4l7.651 7.651c.663.664.663 1.739 0 2.402-.332.333-.767.499-1.202.499zm-41.23-73.124c-3.871 0-7.742.754-11.433 2.265-7.46 3.053-13.285 8.829-16.401 16.263s-3.15 15.637-.097 23.097c3.053 7.46 8.829 13.285 16.263 16.401 7.414 3.107 15.917 3.107 23.332 0 5.243-2.197 10.976-2.168 16.021-.145-2.023-5.044-2.053-10.778.145-16.021 3.116-7.434 3.15-15.637.097-23.097S59.694 15.879 52.26 12.763c-3.756-1.574-7.71-2.362-11.664-2.362z" />
    <path fill="#0f9dd3"
        d="M76.878 88.473c-.435 0-.87-.166-1.201-.498l-7.651-7.652c-4.729-4.729-7.509-10.807-8.126-17.149-3.041.069-6.101.704-9.031 1.932-6.53 2.738-14.02 2.737-20.548 0-6.547-2.744-11.634-7.874-14.323-14.444-2.689-6.57-2.659-13.794.086-20.341 2.744-6.547 7.874-11.634 14.444-14.323 6.569-2.689 13.793-2.66 20.341.086 13.516 5.665 19.903 21.27 14.237 34.786-1.228 2.929-1.862 5.99-1.932 9.031 6.343.617 12.42 3.396 17.149 8.126l7.651 7.651c.663.664.663 1.739 0 2.402s-1.739.663-2.402 0l-7.651-7.651c-4.035-4.035-9.187-6.457-14.585-7.092.635 5.398 3.056 10.55 7.092 14.585l7.651 7.652c.663.664.663 1.739 0 2.402-.331.331-.766.497-1.201.497zM40.596 17.402c-2.973 0-5.947.58-8.782 1.74-5.73 2.346-10.205 6.782-12.598 12.493-2.394 5.71-2.42 12.011-.075 17.741 2.346 5.73 6.782 10.205 12.493 12.598 5.694 2.386 12.227 2.387 17.921 0 3.316-1.39 6.78-2.111 10.222-2.196.084-3.442.806-6.905 2.196-10.222 4.941-11.789-.63-25.399-12.418-30.34-2.885-1.209-5.922-1.814-8.959-1.814z" />
</svg>