<svg xmlns="http://www.w3.org/2000/svg" fill="none" viewBox="0 0 152 111">
    <path fill="#ED1C24"
        d="M109.373 22.2472C96.8621 9.1259 79.9093.9548 59.7234.9548c-27.2378 0-41.0786 12.3209-40.557 23.826-.5262-1.5958-.8952-3.8727-.8952-5.942 0-2.7408.5499-5.3526 1.5449-7.7304C7.8706 19.098 0 32.7444 0 48.2365 0 72.8571 19.8785 92.816 44.3998 92.816a44.709 44.709 0 0 0 5.1-.2909l.0872-.0107c.4912.4943.9928.9727 1.512 1.4409 4.6849 4.0003 10.2804 7.1747 16.4094 8.8537 1.9082.508 3.8758.884 5.8906 1.116 1.2351.131 2.4855.198 3.7486.198 2.7605 0 5.3758-.162 7.8471-.474 18.3363-3.01 32.2883-18.0071 32.3783-36.083a43.3711 43.3711 0 0 0-.162-2.017c-.443 8.849-9.103 16.4139-15.666 16.4139-4.1642 0-7.5342-3.4173-7.5342-7.5649 0-3.4587 1.8822-5.6638 1.8822-5.6638 5.138-6.0769 13.461-8.7863 21.552-10.5133 18.57-3.9634 32.629-20.1004 33.512-39.7165v.0004-.0007c-4.811 7.213-13.002 11.9617-22.297 11.9617-7.571 0-14.41-3.1505-19.286-8.217 0 0 12.509 13.1198-.001-.0016Z" />
    <path fill="#fff"
        d="M25.6671 97.0555h.3487a.6432.6432 0 0 1-.6973.5566c-.4457.0056-.8111-.3519-.8167-.7968 0-.0205 0-.0409.0018-.0633-.0373-.4356.2872-.8191.7235-.8563a.7228.7228 0 0 1 .0895-.0019c.3393-.0149.6377.2234.6973.5567h-.3263a.3543.3543 0 0 0-.3729-.2793c-.3263 0-.4661.2793-.4885.5566 0 .2793.1865.6032.4885.6032a.3137.3137 0 0 0 .3487-.2718v-.0074l.0037.0037Zm1.0703-.2793c0 .821-.6675 1.4875-1.4898 1.4875s-1.4898-.6665-1.4898-1.4875c0-.8209.6675-1.4874 1.4898-1.4874.8167.013 1.4749.6721 1.4898 1.4874Zm-.3021 0c0-.6534-.5314-1.1839-1.1858-1.1839-.6545 0-1.1859.5305-1.1859 1.1839 0 .6535.5314 1.184 1.1859 1.184.6544-.0018 1.184-.5324 1.1858-1.184ZM76.7627 60.1005a16.7272 16.7272 0 0 0-2.4612-7.7741c-.6899 1.1133-1.8926 1.8076-3.2034 1.8505-2.7968.134-5.6962-2.1204-7.3482-2.9954-1.652-.8749-3.6751-1.9528-8.0568-1.2119 1.2474-1.3124 4.2811-1.8169 6.7758-1.5823-1.4487-1.4446-4.887-3.7679-8.3923-3.5985-4.7528.2364-7.0779 5.4173-6.0002 13.7312.606 4.6782.1678 8.649-1.1467 11.5773-1.4823 3.2987-6.0673 4.7452-8.4614 4.8457-2.3605.1005-4.1114-1.2454-5.0567-3.5333a2.117 2.117 0 0 0 1.887.8414c.9397-.0055 1.6948-.7707 1.6892-1.7071a2.119 2.119 0 0 0-.0037-.1098c-.0671-1.2789-1.0796-2.0198-2.2915-1.9528-1.2139.067-2.6291.8749-2.5619 2.6249.1342 2.3567 1.0106 3.6003 2.7651 5.2162 1.7527 1.6158 2.8658 2.8594 3.0336 6.0241.1679 3.1629-.7085 5.2162-2.1237 7.4371-1.3201 2.0887-6.8187 8.7812-10.4229 14.5073 5.0921-2.459 12.6194-5.3184 18.1795-4.086 2.9162.646 4.846 2.45 6.043 4.082.3506-2.492 1.3854-10.1602 1.4693-14.4046 2.0566.8749 7.2811 4.0731 9.7069 3.7362a5.2587 5.2587 0 0 0 2.4948-1.2119c2.0566-2.0198 2.023-6.1582 7.2475-11.2068 3.8429-3.7028 3.0337-7.1691 3.3712-10.9034.2368-2.8278 3.0001-7.6401 2.8658-10.1979l.0019.0019Z" />
    <path fill="#000"
        d="M51.6518 89.6476c0 7.923-1.5196 15.4124-1.5196 15.4124l-1.3425-1.771c1.1374-7.4814 1.7434-12.9638 1.6819-14.2129-.1343-2.893-2.3941-5.0133-5.5285-4.8458-2.4948.1341-5.2245 2.3903-7.516 4.9128-3.5744 3.9131-6.595 8.5261-10.7418 14.5369l-2.8415 1.378c.6656-.957 5.6179-8.5076 10.3128-14.1855 2.5209-3.0474 5.0847-5.8882 7.9766-6.9754-.7383-.6627-1.5531-1.6531-1.8757-2.3959 1.7378 1.4521 2.478 1.8207 3.0765 2.0515 5.7373-1.1188 8.3178 2.6546 8.3178 6.093v.0019ZM63.042 58.6526a1.1583 1.1583 0 0 1-1.2474.875 1.9674 1.9674 0 0 1-1.5849-.8415l-.0056-.0071c-.5293-.6707-4.5869-5.8136-7.1748-5.6801a8.2314 8.2314 0 0 0-3.4719 1.2119c.5389-.8749 1.9224-1.8504 3.8093-1.9528 1.887-.1005 3.9772.9755 4.8871 1.7499.6907.5576 1.7995 1.6783 2.7504 2.6394.2555.2583.4998.5052.7214.7264 1.0441 1.0779 1.0796 1.1114 1.3145 1.2789h.0019ZM77.6376 68.0071l-.0037.0019s.0037 0 .0037-.0019Z" />
    <path fill="#000" fill-rule="evenodd"
        d="M73.0538 68.7879c-.1786 1.2165-1.0468 1.8795-2.2237 1.9483a2.3318 2.3318 0 0 1-1.7527-.6739c.041 1.3534.2461 2.6975.606 4.0043.2389.8343.376 1.398.4476 1.6924l.0001.0007c.0295.121.0478.1964.0576.2262.1007.27 0 .404-.4382.605-.4717.2011-2.1909 1.009-2.7297 1.279-.5389.2699-1.4842.9754-1.5513 1.2454l-.0015-.0082c-.0676-.3726-.1943-1.0713.5739-1.5407.4035-.245 1.0256-.5087 1.6008-.7525.5303-.2248 1.0208-.4327 1.2632-.5934.2703-.2011.4046-.337.371-.471-.0114-.0457-.1206-.4348-.2769-.9921-.3027-1.079-.7822-2.7881-1.0712-3.8536a13.5361 13.5361 0 0 1-.5053-3.0624c.028-1.923.7198-3.7753 1.956-5.2497 1.7862-1.9863 5.0697-2.6081 7.365-2.7254.0727.7223-.0224 1.238-.1772 1.884l-.8166-.1676c-2.7316-.5715-5.3252 2.2209-6.3377 4.3748 1.652.0335 2.5619-1.1114 3.1679-2.2209a5.0443 5.0443 0 0 0 .3711 1.9528c.2368-.2346.7421-1.48.977-2.1874.2592.875.4027 1.8858.4046 2.6919.4717-.3146 1.4655-1.1337 1.762-1.4837-.151.5101-.3878 1.0965-.6172 1.6512a3.8095 3.8095 0 0 0 1.887-1.0424c-.5053 1.2119-.8092 1.6493-1.2474 2.0533a2.1963 2.1963 0 0 0 1.5121.6404c-.7775.4617-2.1778 1.1132-3.8559.9122a5.2003 5.2003 0 0 1-.7204-.137Zm-2.7626-1.1475a.5223.5223 0 0 1 .5389.5045.4776.4776 0 0 1-.4121.5342l-.0047.0005c-.0187.0017-.036.0033-.0549.0033a.5537.5537 0 0 1-.5725-.5045.5222.5222 0 0 1 .5053-.538Z"
        clip-rule="evenodd" />
    <path fill="#000"
        d="M65.6036 76.6246c.5724-.1676.5724-.3705.5053-.5715h.0018a.652.652 0 0 0-.5388-.471 3.696 3.696 0 0 0-1.1132.605 3.7005 3.7005 0 0 1-1.7526.471c.7094.6793 2.1007.2256 2.7424.0163.0582-.0189.1103-.0359.1551-.0498ZM66.8494 83.1196l-.0032.0018a1.2389 1.2389 0 0 1-.4667-.7371c-.0314-.101-.0609-.2019-.089-.2978-.0935-.32-.171-.5849-.2485-.6107-.135-.0396-.4707.0327-.7895.1014-.236.0508-.4628.0996-.5921.0996-.2801.0309-.4462-.1943-.6281-.4412-.0155-.0209-.0311-.0421-.0469-.0632a1.5162 1.5162 0 0 0-1.3481-.6739c-.3847.0136-.5958.0886-.8519.1795-.3731.1325-.8415.2988-2.081.3585a1.3775 1.3775 0 0 1-1.4152-.8415c.0335-.1694-.0671-.4375-.3039-.3369-.5408.268-.7421.5045-.7086 1.0425.0311.3739.583.3443 1.1987.3112.0494-.0026.0994-.0053.1494-.0078.4914-.0258 1.1817.5954 1.7021 1.0637.1923.1731.3614.3253.4888.4163.4278.3039.9662.2495 1.3394.2117a9.4318 9.4318 0 0 1 .1093-.0107c.1044 0 .1901-.0107.2653-.0202.1921-.0241.3161-.0397.5104.1543.1323.1226.2354.2479.3309.364.2451.2979.4402.535.95.5109a6.0602 6.0602 0 0 0 2.5252-.7726l.005.0038-.0018-.0056ZM58.8971 83.0541l-.002-.0015.0018-.0019.0002.0034ZM58.8971 83.0541c.9452.7071 3.5718 1.5475 5.4593 1.8489-.1343.605-.2704.9755-.8093 1.2454-.5388.3035-1.0105.4375-1.4152.1676a1.8052 1.8052 0 0 0-1.0106-.4375l-.0445-.0034c-.4317-.0327-.9751-.0738-1.2364-.3671a5.5113 5.5113 0 0 0-.1061-.1239c-.3146-.3605-.7767-.89-.8372-2.33ZM55.6994 57.2429l-.0058-.0033.0037-.0037a.6195.6195 0 0 1 .0021.007Z" />
    <path fill="#000" fill-rule="evenodd"
        d="M56.941 59.3935c-.303-1.0392-.6392-1.812-1.2416-2.1506.3336 1.1059.3333 1.4744.1993 2.1468-.8114-.492-1.2282-1.3424-1.5254-1.9488-.1098-.2241-.2033-.4149-.2944-.542a9.4178 9.4178 0 0 0 0 2.4238 8.4396 8.4396 0 0 1-1.5849-2.3903c.097.7931.1082 1.5954.0336 2.3903-.1007-.201-1.2474-2.1203-1.2474-2.1203a6.4638 6.4638 0 0 1-.1678 2.0198l-2.258-2.0534c.371.6051.7421 2.4574.8428 3.3658a21.6932 21.6932 0 0 1-.1358-.0458c-.3228-.1093-1.0039-.34-1.3466-.4252 0 0 .0336.4375.0336.6739 0 .203.0336.7074.0336.7074.6731.2346 2.3251 1.951 2.8975 3.1964a2.9803 2.9803 0 0 0 2.8994 1.6829c.0056 0 .0116-.0005.0177-.0009.0061-.0005.0121-.001.0177-.001 1.3295-.1005 2.3251-1.2603 2.2226-2.5876-.0802-1.305-1.0927-2.3586-2.3941-2.4908.0671-.1694.4046-.3034.7421-.3034 1.6051-.0921 2.6739 1.3959 3.5413 2.6037.0798.111.1578.2197.2344.3246.8195 1.0807 1.4487 1.0788 1.7605 1.0779l.0258-.0001c.302 0 .6395-.067.6059-.3704 0-.5399-.3039-.6069-.7421-.6739-.1003-.0154-.1935-.0166-.2878-.0178-.3177-.0041-.6472-.0083-1.297-.5538-.7719-.6898-1.1229-2.1123-1.3859-3.1778-.0705-.2858-.1347-.546-.199-.7594Zm-3.3916 4.142c-.2648.0019-.483-.2103-.4848-.4747l.0037-.0018a.5743.5743 0 0 1 .4717-.5716c.2872-.0093.5277.2178.5389.5045v.0187a.4979.4979 0 0 1-.4736.5212c-.0187.0037-.0373.0037-.0559.0037Z"
        clip-rule="evenodd" />
</svg>