<svg id="Layer_6" data-name="Layer 6" xmlns="http://www.w3.org/2000/svg" viewBox="0 0 1135.34 178.66"><defs><style>.cls-1{fill:#0082c6;}</style></defs><path class="cls-1" d="M372.74,88.87a32,32,0,0,0,1.8,10.83,25.79,25.79,0,0,0,5.13,8.72,24.4,24.4,0,0,0,18.41,8A27.42,27.42,0,0,0,409,114.25a27.9,27.9,0,0,0,8.77-5.83,26.34,26.34,0,0,0,5.83-8.72,28.52,28.52,0,0,0,0-21.53,28.15,28.15,0,0,0-5.83-8.94,27.48,27.48,0,0,0-8.77-6.1,26.63,26.63,0,0,0-10.92-2.24,23.78,23.78,0,0,0-10.38,2.24,24.16,24.16,0,0,0-8,6.1,27.63,27.63,0,0,0-5.13,8.94,31.8,31.8,0,0,0-1.8,10.7M459.12,138a7.84,7.84,0,0,1-.53,2.85,6.87,6.87,0,0,1-4,3.38,12.33,12.33,0,0,1-2.29.26H435a7.8,7.8,0,0,1-3-.48,4.64,4.64,0,0,1-1.84-1.36,7.84,7.84,0,0,1-1.18-2.15c-.33-.85-.66-1.77-1-2.76l-1.14-4a51.78,51.78,0,0,1-5.39,4.65,41.63,41.63,0,0,1-14.47,7,33.88,33.88,0,0,1-8.64,1.1,57.53,57.53,0,0,1-15.3-2,56.75,56.75,0,0,1-13.68-5.75,55.92,55.92,0,0,1-11.53-8.94,57.28,57.28,0,0,1-14.65-25.43,58.85,58.85,0,0,1-2-15.47A57.47,57.47,0,0,1,357.84,48a56.78,56.78,0,0,1,40.51-16.62,39.89,39.89,0,0,1,10.13,1.23,38.94,38.94,0,0,1,8.59,3.33,34.38,34.38,0,0,1,7.06,5,38.39,38.39,0,0,1,5.52,6.36l2.55-8c.58-1.46,1.06-2.64,1.44-3.55a6.28,6.28,0,0,1,1.23-2,3.28,3.28,0,0,1,1.62-.87,12.69,12.69,0,0,1,2.72-.22h13.06a12.33,12.33,0,0,1,2.29.26,4.49,4.49,0,0,1,2.28,1.23,5.63,5.63,0,0,1,1.75,2.19,7.11,7.11,0,0,1,.53,2.81Z"/><path class="cls-1" d="M564.34,88.87a30.79,30.79,0,0,0-1.84-10.66,27.16,27.16,0,0,0-5.18-8.81,24.43,24.43,0,0,0-8-6,23.56,23.56,0,0,0-10.25-2.2,26.88,26.88,0,0,0-10.48,2.07,28,28,0,0,0-8.69,5.61,28.74,28.74,0,0,0-6,8.37,26.22,26.22,0,0,0-2.59,10.26v1.32a27.57,27.57,0,0,0,8.16,19.68,28.51,28.51,0,0,0,8.85,5.92,27,27,0,0,0,10.79,2.19,23.7,23.7,0,0,0,10.25-2.19,24.75,24.75,0,0,0,8-5.92,26.55,26.55,0,0,0,5.18-8.81,31.65,31.65,0,0,0,1.84-10.87m-81.9-54.72a5.52,5.52,0,0,1,2.37-1.23,11.67,11.67,0,0,1,2.36-.26h13.25a6.53,6.53,0,0,1,2.76.52,4.94,4.94,0,0,1,1.8,1.45,9.45,9.45,0,0,1,1.18,2.1c.32.79.63,1.66.92,2.59l3.68,10.61q2.46-3.15,5-6.44a32.77,32.77,0,0,1,5.92-6,30.26,30.26,0,0,1,8.15-4.42,33.51,33.51,0,0,1,11.58-1.76,54.72,54.72,0,0,1,22.14,4.43A52.89,52.89,0,0,1,581,48,56.26,56.26,0,0,1,592.4,66.2a61.34,61.34,0,0,1,4.12,22.67,61.46,61.46,0,0,1-4.12,22.62A56.23,56.23,0,0,1,581,129.77,53.44,53.44,0,0,1,563.51,142a54.24,54.24,0,0,1-22.14,4.47,31.65,31.65,0,0,1-9.82-1.35,28.63,28.63,0,0,1-7.32-3.56,32.6,32.6,0,0,1-5.66-4.82c-1.64-1.75-3.25-3.51-4.82-5.26v40.86a6.62,6.62,0,0,1-1.58,4.47,6.12,6.12,0,0,1-4.91,1.85H487.17a6.83,6.83,0,0,1-2.27-.44,8.52,8.52,0,0,1-2.28-1.23,6.67,6.67,0,0,1-1.76-2,5.15,5.15,0,0,1-.7-2.68V39.15a5.74,5.74,0,0,1,.66-2.9,10.16,10.16,0,0,1,1.62-2.1"/><path class="cls-1" d="M698.24,88.87a31,31,0,0,0-1.84-10.66,27.34,27.34,0,0,0-5.18-8.81,24.43,24.43,0,0,0-8-6A23.64,23.64,0,0,0,673,61.24a27,27,0,0,0-10.48,2.07,28.06,28.06,0,0,0-8.68,5.61,28.77,28.77,0,0,0-6.05,8.37,26.21,26.21,0,0,0-2.58,10.26v1.32a27,27,0,0,0,2.19,10.87,27.43,27.43,0,0,0,6,8.81,28.56,28.56,0,0,0,8.86,5.92A27,27,0,0,0,673,116.66a23.78,23.78,0,0,0,10.26-2.19,24.75,24.75,0,0,0,8-5.92,26.72,26.72,0,0,0,5.18-8.81,31.89,31.89,0,0,0,1.84-10.87m-81.9-54.72a5.41,5.41,0,0,1,2.37-1.23,11.52,11.52,0,0,1,2.36-.26h13.24a6.53,6.53,0,0,1,2.76.52,4.94,4.94,0,0,1,1.8,1.45,9.1,9.1,0,0,1,1.19,2.1c.32.79.62,1.66.92,2.59l3.68,10.61c1.63-2.1,3.29-4.25,5-6.44a33.09,33.09,0,0,1,5.92-6,30.18,30.18,0,0,1,8.16-4.42,33.41,33.41,0,0,1,11.57-1.76,54.69,54.69,0,0,1,22.14,4.43A52.78,52.78,0,0,1,714.85,48,56.29,56.29,0,0,1,726.3,66.2a61.55,61.55,0,0,1,4.12,22.67,61.66,61.66,0,0,1-4.12,22.62,56.26,56.26,0,0,1-11.45,18.28A53.33,53.33,0,0,1,697.4,142a54.21,54.21,0,0,1-22.14,4.47,31.7,31.7,0,0,1-9.82-1.35,28.63,28.63,0,0,1-7.32-3.56,33,33,0,0,1-5.66-4.82c-1.64-1.75-3.24-3.51-4.82-5.26v40.86a6.62,6.62,0,0,1-1.58,4.47,6.12,6.12,0,0,1-4.91,1.85H621.07a6.89,6.89,0,0,1-2.28-.44,8.67,8.67,0,0,1-2.28-1.23,6.78,6.78,0,0,1-1.75-2,5.15,5.15,0,0,1-.7-2.68V39.15a5.74,5.74,0,0,1,.65-2.9,9.88,9.88,0,0,1,1.63-2.1"/><path class="cls-1" d="M803.53,44.81A23.48,23.48,0,0,1,808.14,40a34.76,34.76,0,0,1,6.75-4.29,43.38,43.38,0,0,1,8.46-3.06,39.61,39.61,0,0,1,9.82-1.18,36.67,36.67,0,0,1,17.32,3.85,34.5,34.5,0,0,1,12.1,10.49,46.2,46.2,0,0,1,7.1,15.53,74.75,74.75,0,0,1,2.33,19v57.44a7.59,7.59,0,0,1-1.45,5,5.7,5.7,0,0,1-4.6,1.71H845.71c-2.51,0-4.24-.42-5.17-1.27s-1.4-2.5-1.4-5v-58a17.08,17.08,0,0,0-1.45-7,18.42,18.42,0,0,0-3.91-5.66A17.67,17.67,0,0,0,828,63.83a18,18,0,0,0-7-1.36,16,16,0,0,0-6.18,1.27,17.5,17.5,0,0,0-5.43,3.6,19.84,19.84,0,0,0-4,5.57,18.79,18.79,0,0,0-1.89,7.19V138a8.23,8.23,0,0,1-.56,3,4.8,4.8,0,0,1-1.71,2.28,8.31,8.31,0,0,1-2.15,1,9.53,9.53,0,0,1-2.33.26H777c-2.52,0-4.33-.62-5.44-1.84a7,7,0,0,1-1.67-4.91V6.67a6.94,6.94,0,0,1,1.67-4.83Q773.2,0,777,0h19.81a9.25,9.25,0,0,1,4.48,1.4A4.9,4.9,0,0,1,803,3.68a7.88,7.88,0,0,1,.56,2.81Z"/><path class="cls-1" d="M996.45,143a5.55,5.55,0,0,1-2.41,1.23,12.4,12.4,0,0,1-2.42.26H978.38a6,6,0,0,1-2.72-.57,5.86,5.86,0,0,1-1.92-1.53,9.05,9.05,0,0,1-1.32-2.19,18.13,18.13,0,0,1-.88-2.54l-1.84-8.57a21.44,21.44,0,0,1-4.38,5.73,36.17,36.17,0,0,1-7.59,5.56,47.72,47.72,0,0,1-10.39,4.19,46.86,46.86,0,0,1-12.8,1.66,39.05,39.05,0,0,1-17.72-3.86,38.31,38.31,0,0,1-13-10.52,46.58,46.58,0,0,1-8-15.56,64.77,64.77,0,0,1-2.72-19V39.85a7.64,7.64,0,0,1,1.45-5.05,5.73,5.73,0,0,1,4.6-1.7h20.26c2.51,0,4.24.42,5.17,1.27s1.41,2.5,1.41,5V96.47a18.07,18.07,0,0,0,1.44,7.16,20,20,0,0,0,3.9,6,18.35,18.35,0,0,0,5.75,4.08,16.75,16.75,0,0,0,7,1.49,25.11,25.11,0,0,0,6.84-1,22.4,22.4,0,0,0,6.84-3.29,18.88,18.88,0,0,0,5.26-5.75,16.15,16.15,0,0,0,2.1-8.43V39.59a8.25,8.25,0,0,1,.57-3,4.68,4.68,0,0,1,1.71-2.28,8.17,8.17,0,0,1,2.15-1,9.07,9.07,0,0,1,2.33-.26h19.81c2.51,0,4.33.61,5.44,1.84a7,7,0,0,1,1.66,4.91V138a6.42,6.42,0,0,1-.74,3.07,5.57,5.57,0,0,1-2.06,2.19Z"/><path class="cls-1" d="M1103.77,88.86a31.83,31.83,0,0,0-1.8-10.69,27.6,27.6,0,0,0-5.13-9,24.28,24.28,0,0,0-8-6.09,23.72,23.72,0,0,0-10.43-2.24,26.42,26.42,0,0,0-10.83,2.24,27.07,27.07,0,0,0-8.72,6.09,29.38,29.38,0,0,0-5.83,9,27.08,27.08,0,0,0-2.15,10.69v1.23a27.19,27.19,0,0,0,2.5,10.35,27.74,27.74,0,0,0,5.91,8.38,27.44,27.44,0,0,0,19.12,7.58,24.19,24.19,0,0,0,18.41-8,25.58,25.58,0,0,0,5.13-8.73,32,32,0,0,0,1.8-10.83m-52.87,48.85c-.53,1.11-1,2.09-1.32,2.93a8.86,8.86,0,0,1-1.18,2.11,4.27,4.27,0,0,1-1.62,1.27,6.53,6.53,0,0,1-2.63.44h-17.36q-7,0-7-6.75V6.7a6.32,6.32,0,0,1,.57-2.71,6.87,6.87,0,0,1,1.49-2.11,6.66,6.66,0,0,1,2.1-1.36,6.19,6.19,0,0,1,2.33-.48h19.9A7.12,7.12,0,0,1,1051.43,2a6.43,6.43,0,0,1,1.92,4.73V43.18a45.13,45.13,0,0,1,5.26-4.82,31.22,31.22,0,0,1,6.1-3.73,34.86,34.86,0,0,1,7.23-2.41,40.82,40.82,0,0,1,8.77-.88,53.91,53.91,0,0,1,22,4.43A52.19,52.19,0,0,1,1120,48a56.29,56.29,0,0,1,11.31,18.24,61.93,61.93,0,0,1,4.08,22.66,62.08,62.08,0,0,1-4.08,22.63A56.26,56.26,0,0,1,1120,129.77,52.58,52.58,0,0,1,1102.68,142a53.28,53.28,0,0,1-22,4.48,31.24,31.24,0,0,1-8.55-1.15,40.17,40.17,0,0,1-7.67-3,42.39,42.39,0,0,1-6.62-4.16,53.51,53.51,0,0,1-5.39-4.69Z"/><path class="cls-1" d="M15.26,19.82A4.61,4.61,0,0,1,17,15.9a19.48,19.48,0,0,1,4.93-2.49L41.05,6.75a4.61,4.61,0,0,1,.8-.08h.72c2.08,0,3.47.6,4.17,1.81a9.45,9.45,0,0,1,1.06,4.76l-.09,23.19H59.26A6.12,6.12,0,0,1,63.65,38a6.33,6.33,0,0,1,1.68,4.8V59.1q0,3.54-1.68,5.18a6,6,0,0,1-4.39,1.65H47.71l.09,71.15a6.11,6.11,0,0,1-1.86,4.84,7.47,7.47,0,0,1-5.14,1.65h-19q-6.49,0-6.49-6.49l-.09-71.15H6.49Q0,65.93,0,59.1V42.83q0-6.4,6.49-6.4h8.68Z"/><path class="cls-1" d="M113.55,47.77A22.64,22.64,0,0,1,118,43.1,33.91,33.91,0,0,1,124.46,39a41.47,41.47,0,0,1,8.14-3A38.45,38.45,0,0,1,142,34.91a35.26,35.26,0,0,1,16.65,3.7,33,33,0,0,1,11.63,10.08,44.73,44.73,0,0,1,6.83,14.94,71.75,71.75,0,0,1,2.24,18.23v55.22a7.34,7.34,0,0,1-1.4,4.85,5.49,5.49,0,0,1-4.42,1.64H154.1q-3.63,0-5-1.22t-1.35-4.77V81.86a16.33,16.33,0,0,0-1.39-6.74,17.73,17.73,0,0,0-3.75-5.44,17.44,17.44,0,0,0-12.22-4.93,15.34,15.34,0,0,0-6,1.22,16.92,16.92,0,0,0-5.22,3.46,19.31,19.31,0,0,0-3.88,5.35,17.84,17.84,0,0,0-1.81,6.91v55.64a8.16,8.16,0,0,1-.55,2.87,4.57,4.57,0,0,1-1.65,2.19,7.67,7.67,0,0,1-2.06.93,9.32,9.32,0,0,1-2.23.25H88c-2.41,0-4.16-.59-5.22-1.77a6.75,6.75,0,0,1-1.6-4.72V11.1a6.66,6.66,0,0,1,1.6-4.64C83.84,5.29,85.59,4.69,88,4.69h19.06A8.89,8.89,0,0,1,111.35,6,4.57,4.57,0,0,1,113,8.23a7.74,7.74,0,0,1,.55,2.7Z"/><path class="cls-1" d="M248.76,60.53a16.13,16.13,0,0,0-6.36,1.31,23.92,23.92,0,0,0-5.78,3.5,30.43,30.43,0,0,0-4.85,5,30.94,30.94,0,0,0-3.5,5.65h43.08a49.79,49.79,0,0,0-3.83-6.07A26.38,26.38,0,0,0,262.8,65a20.53,20.53,0,0,0-6.07-3.28,24.31,24.31,0,0,0-8-1.19m40.55,70.22a56.16,56.16,0,0,1-16.69,10.67A50.83,50.83,0,0,1,253,145.25a57.27,57.27,0,0,1-39.87-15.89,55.91,55.91,0,0,1-12.3-17.57,52.9,52.9,0,0,1-4.56-22,57.11,57.11,0,0,1,7-27.4,55.32,55.32,0,0,1,8.09-11.17A51.17,51.17,0,0,1,222,42.5a52.6,52.6,0,0,1,12.82-5.65,51.62,51.62,0,0,1,14.58-2,49.56,49.56,0,0,1,13.57,1.86A53.13,53.13,0,0,1,285.85,50a54.88,54.88,0,0,1,8.26,10.32,49.82,49.82,0,0,1,5.36,12,45.76,45.76,0,0,1,1.89,13.1q0,4.38-.13,7.17a8,8,0,0,1-1.3,4.42A6.33,6.33,0,0,1,296,99.27a38.52,38.52,0,0,1-8.05.63h-60.7a20.94,20.94,0,0,0,3.42,9,21.41,21.41,0,0,0,5.94,5.78,23.63,23.63,0,0,0,7.17,3.07,30.09,30.09,0,0,0,7.16.93,32.37,32.37,0,0,0,6.24-.63,43.9,43.9,0,0,0,6.2-1.69,34.35,34.35,0,0,0,5.47-2.44,18.31,18.31,0,0,0,4-2.91,16.87,16.87,0,0,1,2.32-1.64,3.88,3.88,0,0,1,4.3.21,17.73,17.73,0,0,1,2.57,2.19L291,121.91a5.46,5.46,0,0,1,1.18,2,6.49,6.49,0,0,1,.26,1.81,4.69,4.69,0,0,1-.93,2.91,10.59,10.59,0,0,1-2.19,2.14"/></svg>